<?xml version="1.0" standalone="no"?><!DOCTYPE svg PUBLIC "-//W3C//DTD SVG 1.1//EN" "http://www.w3.org/Graphics/SVG/1.1/DTD/svg11.dtd" ><svg xmlns="http://www.w3.org/2000/svg"><metadata></metadata><defs><font id="1.000;FBRC;Akrobat-Black" horiz-adv-x="836"><font-face font-family="Akrobat Black" font-weight="900" font-stretch="normal" units-per-em="1000" panose-1="0 0 10 0 0 0 0 0 0 0" ascent="1000" descent="-200" x-height="0" bbox="-579 -281 819 999" underline-thickness="50" underline-position="-175" unicode-range="U+0020-25ca" /><missing-glyph horiz-adv-x="500" d="M410 800 l0 -1000 l-317 0 l0 1000 l317 0 ZM333 733 l-165 0 l0 -33 l65 0 l0 -37 l-66 0 l0 -33 l166 0 l0 33 l-66 0 l0 37 l66 0 l0 33 ZM267 604 l-100 0 l0 -104 l166 0 l0 34 l-66 0 l0 70 ZM233 570 l0 -36 l-33 0 l0 36 l33 0 ZM333 473 l-166 0 l0 -33 l66 0 l0 -37 l-66 0 l0 -33 l100 0 l0 70 l66 0 l0 33 ZM333 413 l-33 0 l0 -66 l-133 0 l0 -34 l166 0 l0 100 ZM333 291 l-100 0 l0 -56 l34 0 l0 23 l33 0 l0 -47 l-100 0 l0 80 l-33 0 l0 -113 l166 0 l0 113 ZM333 118 l-166 0 l0 -113 l166 0 l0 113 ZM300 85 l0 -47 l-100 0 l0 47 l100 0 ZM333 -18 l-166 0 l0 -33 l70 0 l-70 -47 l0 -33 l166 0 l0 33 l-102 0 l70 47 l32 0 l0 33 Z" /><glyph glyph-name="space" unicode=" " d="" /><glyph glyph-name="exclam" unicode="!" d="M71 192 l0 508 l137 0 l0 -508 l-137 0 ZM194.5 8.5 q-20.5 -20.5 -54.5 -20.5 q-34 0 -54.5 20.5 q-20.5 20.5 -20.5 54.5 q0 34 20.5 54.5 q20.5 20.5 54.5 20.5 q34 0 54.5 -20.5 q20.5 -20.5 20.5 -54.5 q0 -34 -20.5 -54.5 Z" /><glyph glyph-name="quotedbl" unicode="&quot;" d="M43 700 l127 0 l-68 -263 l-79 0 l20 263 ZM203 700 l127 0 l-68 -263 l-79 0 l20 263 Z" /><glyph glyph-name="numbersign" unicode="#" d="M80 0 l39 169 l-113 0 l22 99 l113 0 l35 153 l-113 0 l23 99 l113 0 l41 180 l124 0 l-41 -180 l105 0 l41 180 l125 0 l-41 -180 l112 0 l-23 -99 l-112 0 l-35 -153 l112 0 l-22 -99 l-112 0 l-39 -169 l-125 0 l39 169 l-105 0 l-39 -169 l-124 0 ZM265 268 l105 0 l35 153 l-105 0 l-35 -153 Z" /><glyph glyph-name="dollar" unicode="$" d="M456 185 q0 -74 -41.5 -125.5 q-41.5 -51.5 -116.5 -67.5 l0 -77 l-120 0 l0 76 q-75 15 -117 70 q-42 55 -42 143 l146 0 q0 -80 73 -80 q34 0 52 17.5 q18 17.5 18 44.5 q0 27 -20.5 51 q-20.5 24 -50.5 42 q-30 18 -66 42.5 q-36 24.5 -66 50 q-30 25.5 -50.5 66.5 q-20.5 41 -20.5 91 q0 68 38 115.5 q38 47.5 106 63.5 l0 77 l120 0 l0 -77 q70 -16 108.5 -67.5 q38.5 -51.5 38.5 -132.5 l-146 0 q0 69 -62 69 q-28 0 -43.5 -14 q-15.5 -14 -15.5 -38 q0 -25 20.5 -48 q20.5 -23 51.5 -39.5 q31 -16.5 67 -40 q36 -23.5 67 -49.5 q31 -26 51.5 -68.5 q20.5 -42.5 20.5 -94.5 Z" /><glyph glyph-name="percent" unicode="%" d="M189.5 414.5 q-28.5 -28.5 -78.5 -28.5 q-50 0 -79 28.5 q-29 28.5 -29 81.5 l0 105 q0 53 29 82 q29 29 79 29 q50 0 78.5 -29 q28.5 -29 28.5 -82 l0 -105 q0 -53 -28.5 -81.5 ZM14 0 l482 700 l90 0 l-482 -700 l-90 0 ZM111 457 q15 0 21 8 q6 8 6 29 l0 109 q0 21 -6 29.5 q-6 8.5 -21 8.5 q-28 0 -28 -38 l0 -109 q0 -37 28 -37 ZM550.5 19.5 q-28.5 -28.5 -78.5 -28.5 q-50 0 -79 28.5 q-29 28.5 -29 81.5 l0 105 q0 53 29 82 q29 29 79 29 q50 0 78.5 -29 q28.5 -29 28.5 -82 l0 -105 q0 -53 -28.5 -81.5 ZM472 62 q15 0 21 8 q6 8 6 29 l0 109 q0 21 -6 29.5 q-6 8.5 -21 8.5 q-28 0 -28 -38 l0 -109 q0 -37 28 -37 Z" /><glyph glyph-name="ampersand" unicode="&amp;" d="M565 0 l-137 0 l-30 45 q-69 -59 -150 -59 q-75 0 -130.5 47.5 q-55.5 47.5 -55.5 133.5 q0 103 105 208 q-67 107 -67 172 q0 66 41.5 116.5 q41.5 50.5 120.5 50.5 q81 0 121.5 -47.5 q40.5 -47.5 40.5 -115.5 q0 -56 -27 -102 q-27 -46 -75 -94 l77 -110 q12 27 17 49 l123 0 q-20 -88 -65 -159 q85 -127 91 -135 ZM262 599 q-18 0 -30.5 -13.5 q-12.5 -13.5 -12.5 -42.5 q0 -33 34 -86 q50 53 50 91 q0 20 -10 35.5 q-10 15.5 -31 15.5 ZM254 111 q36 0 75 34 q-88 123 -91 127 q-45 -50 -45 -96 q0 -31 17 -48 q17 -17 44 -17 Z" /><glyph glyph-name="quotesingle" unicode="&#39;" d="M43 700 l127 0 l-68 -263 l-79 0 l20 263 Z" /><glyph glyph-name="parenleft" unicode="(" d="M272 -124 q-102 0 -156 55.5 q-54 55.5 -54 157.5 l0 518 q0 102 54 157.5 q54 55.5 156 55.5 l0 -127 q-74 0 -74 -77 l0 -536 q0 -77 74 -77 l0 -127 Z" /><glyph glyph-name="parenright" unicode=")" d="M38 -124 l0 127 q74 0 74 77 l0 536 q0 77 -74 77 l0 127 q102 0 156 -55.5 q54 -55.5 54 -157.5 l0 -518 q0 -102 -54 -157.5 q-54 -55.5 -156 -55.5 Z" /><glyph glyph-name="asterisk" unicode="*" d="M117 476 l-70 51 l43 59 l-70 23 l27 82 l70 -23 l0 74 l86 0 l0 -74 l70 23 l27 -82 l-70 -22 l43 -60 l-70 -51 l-43 59 l-43 -59 Z" /><glyph glyph-name="plus" unicode="+" d="M440 373 l0 -125 l-137 0 l0 -142 l-126 0 l0 142 l-137 0 l0 125 l137 0 l0 142 l126 0 l0 -142 l137 0 Z" /><glyph glyph-name="comma" unicode="," d="M42 120 l127 0 l-68 -263 l-79 0 l20 263 Z" /><glyph glyph-name="hyphen" unicode="-" d="M30 199 l0 116 l250 0 l0 -116 l-250 0 Z" /><glyph glyph-name="period" unicode="." d="M157.5 8.5 q-20.5 -20.5 -54.5 -20.5 q-34 0 -54.5 20.5 q-20.5 20.5 -20.5 54.5 q0 34 20.5 54.5 q20.5 20.5 54.5 20.5 q34 0 54.5 -20.5 q20.5 -20.5 20.5 -54.5 q0 -34 -20.5 -54.5 Z" /><glyph glyph-name="slash" unicode="/" d="M322 817 l116 0 l-318 -940 l-116 0 l318 940 Z" /><glyph glyph-name="zero" unicode="0" d="M391.5 45.5 q-53.5 -55.5 -148.5 -55.5 q-95 0 -148 55.5 q-53 55.5 -53 155.5 l0 296 q0 100 53 156.5 q53 56.5 148 56.5 q95 0 148.5 -56.5 q53.5 -56.5 53.5 -156.5 l0 -296 q0 -100 -53.5 -155.5 ZM243 116 q72 0 72 85 l0 296 q0 87 -72 87 q-71 0 -71 -87 l0 -296 q0 -85 71 -85 Z" /><glyph glyph-name="one" unicode="1" d="M169 700 l85 0 l0 -700 l-135 0 l0 519 l-96 -55 l0 146 l146 90 Z" /><glyph glyph-name="two" unicode="2" d="M23 0 l0 84 q0 52 18.5 101.5 q18.5 49.5 46.5 85.5 q28 36 60 72 q32 36 60 63.5 q28 27.5 46.5 58.5 q18.5 31 18.5 58 q0 25 -14 43 q-14 18 -41 18 q-57 0 -60 -73 l-128 0 q4 99 52 150 q48 51 134 51 q93 0 142.5 -54.5 q49.5 -54.5 49.5 -127.5 q0 -50 -25 -100 q-25 -50 -60.5 -90 q-35.5 -40 -71 -76.5 q-35.5 -36.5 -60.5 -72.5 q-25 -36 -25 -65 l245 0 l0 -126 l-388 0 Z" /><glyph glyph-name="three" unicode="3" d="M276 434 q56 -9 90 -61 q34 -52 34 -119 l0 -43 q0 -112 -45.5 -167.5 q-45.5 -55.5 -148.5 -55.5 q-92 0 -141 53 q-49 53 -54 152 l134 0 q3 -37 16.5 -55 q13.5 -18 42.5 -18 q35 0 47.5 21.5 q12.5 21.5 12.5 72.5 l0 35 q0 48 -17 65.5 q-17 17.5 -54 17.5 l-66 0 l0 88 l95 157 l-187 0 l0 123 l350 0 l0 -89 l-109 -177 Z" /><glyph glyph-name="four" unicode="4" d="M457 282 l0 -122 l-72 0 l0 -160 l-131 0 l0 160 l-248 0 l0 72 l128 468 l133 0 l-116 -418 l105 0 l21 233 l108 0 l0 -233 l72 0 Z" /><glyph glyph-name="five" unicode="5" d="M263 484 q75 0 121 -56 q46 -56 46 -154 l0 -73 q0 -100 -52 -156.5 q-52 -56.5 -140 -56.5 q-86 0 -137.5 54 q-51.5 54 -53.5 148 l138 0 q2 -39 14.5 -54.5 q12.5 -15.5 38.5 -15.5 q27 0 40.5 17.5 q13.5 17.5 13.5 61.5 l0 77 q0 44 -12 61.5 q-12 17.5 -35 17.5 q-24 0 -38 -13 q-14 -13 -19 -44 l-134 0 l0 402 l352 0 l0 -120 l-216 0 l0 -115 q36 19 73 19 Z" /><glyph glyph-name="six" unicode="6" d="M258 458 q76 0 123 -50.5 q47 -50.5 47 -127.5 l0 -99 q0 -87 -53.5 -140 q-53.5 -53 -139.5 -53 q-86 0 -139.5 53 q-53.5 53 -53.5 140 l0 338 q0 87 53 140 q53 53 139 53 q85 0 136.5 -52 q51.5 -52 53.5 -140 l-136 0 q-6 60 -54 60 q-55 0 -55 -59 l0 -88 q31 25 79 25 ZM291 182 l0 88 q0 30 -14.5 47 q-14.5 17 -40.5 17 q-27 0 -42 -17 q-15 -17 -15 -47 l0 -88 q0 -29 15 -45.5 q15 -16.5 41 -16.5 q26 0 41 16.5 q15 16.5 15 45.5 Z" /><glyph glyph-name="seven" unicode="7" d="M-9 700 l379 0 l0 -101 l-186 -599 l-141 0 l175 576 l-227 0 l0 124 Z" /><glyph glyph-name="eight" unicode="8" d="M366 369 q67 -51 67 -143 l0 -32 q0 -96 -54.5 -151 q-54.5 -55 -144.5 -55 q-90 0 -144.5 55 q-54.5 55 -54.5 151 l0 32 q0 91 66 142 q-54 57 -54 131 l0 21 q0 86 51.5 139 q51.5 53 135.5 53 q84 0 135.5 -53 q51.5 -53 51.5 -139 l0 -21 q0 -72 -55 -130 ZM180 514 l0 -19 q0 -71 54 -71 q54 0 54 71 l0 19 q0 67 -54 67 q-54 0 -54 -67 ZM298 195 l0 30 q0 73 -64 73 q-64 0 -64 -73 l0 -30 q0 -74 64 -74 q64 0 64 74 Z" /><glyph glyph-name="nine" unicode="9" d="M86.5 659 q53.5 53 139.5 53 q86 0 139.5 -53 q53.5 -53 53.5 -140 l0 -338 q0 -87 -52.5 -140 q-52.5 -53 -139.5 -53 q-85 0 -136.5 52 q-51.5 52 -53.5 140 l136 0 q6 -60 54 -60 q55 0 55 59 l0 88 q-31 -25 -79 -25 q-76 0 -123 50.5 q-47 50.5 -47 127.5 l0 99 q0 87 53.5 140 ZM225 366 q27 0 42 17 q15 17 15 47 l0 88 q0 29 -15 45.5 q-15 16.5 -41 16.5 q-26 0 -41 -16.5 q-15 -16.5 -15 -45.5 l0 -88 q0 -30 14.5 -47 q14.5 -17 40.5 -17 Z" /><glyph glyph-name="colon" unicode=":" d="M157.5 346.5 q-20.5 -20.5 -54.5 -20.5 q-34 0 -54.5 20.5 q-20.5 20.5 -20.5 54.5 q0 34 20.5 54.5 q20.5 20.5 54.5 20.5 q34 0 54.5 -20.5 q20.5 -20.5 20.5 -54.5 q0 -34 -20.5 -54.5 ZM157.5 8.5 q-20.5 -20.5 -54.5 -20.5 q-34 0 -54.5 20.5 q-20.5 20.5 -20.5 54.5 q0 34 20.5 54.5 q20.5 20.5 54.5 20.5 q34 0 54.5 -20.5 q20.5 -20.5 20.5 -54.5 q0 -34 -20.5 -54.5 Z" /><glyph glyph-name="semicolon" unicode=";" d="M157.5 348.5 q-20.5 -20.5 -54.5 -20.5 q-34 0 -54.5 20.5 q-20.5 20.5 -20.5 54.5 q0 34 20.5 54.5 q20.5 20.5 54.5 20.5 q34 0 54.5 -20.5 q20.5 -20.5 20.5 -54.5 q0 -34 -20.5 -54.5 ZM42 120 l127 0 l-68 -263 l-79 0 l20 263 Z" /><glyph glyph-name="less" unicode="&lt;" d="M410 496 l0 -126 l-228 -74 l228 -75 l0 -126 l-370 136 l0 129 l370 136 Z" /><glyph glyph-name="equal" unicode="=" d="M40 350 l0 123 l400 0 l0 -123 l-400 0 ZM40 138 l0 122 l400 0 l0 -122 l-400 0 Z" /><glyph glyph-name="greater" unicode="&gt;" d="M40 496 l370 -136 l0 -129 l-370 -136 l0 126 l228 75 l-228 74 l0 126 Z" /><glyph glyph-name="question" unicode="?" d="M123 192 l0 26 q0 54 13.5 95.5 q13.5 41.5 33 67 q19.5 25.5 39 46.5 q19.5 21 33 45.5 q13.5 24.5 13.5 52.5 q0 64 -59 64 q-60 0 -65 -82 l-131 0 q7 97 57 152 q50 55 138 55 q86 0 140 -51 q54 -51 54 -137 q0 -40 -13.5 -74 q-13.5 -34 -33 -58.5 q-19.5 -24.5 -39 -48.5 q-19.5 -24 -33 -55.5 q-13.5 -31.5 -13.5 -68.5 l0 -29 l-134 0 ZM245.5 8.5 q-20.5 -20.5 -54.5 -20.5 q-34 0 -54.5 20.5 q-20.5 20.5 -20.5 54.5 q0 34 20.5 54.5 q20.5 20.5 54.5 20.5 q34 0 54.5 -20.5 q20.5 -20.5 20.5 -54.5 q0 -34 -20.5 -54.5 Z" /><glyph glyph-name="at" unicode="@" d="M425 727 q177 0 275 -86.5 q98 -86.5 98 -242.5 l0 -108 q0 -56 -16.5 -98 q-16.5 -42 -44 -65 q-27.5 -23 -57.5 -34 q-30 -11 -62 -11 q-74 0 -108 68 q-33 -68 -114 -68 q-63 0 -99 40.5 q-36 40.5 -36 114.5 l0 121 q0 80 35.5 120.5 q35.5 40.5 92.5 40.5 q61 0 90 -54 l7 38 l80 0 l0 -240 q0 -40 10.5 -59.5 q10.5 -19.5 41.5 -19.5 q73 0 73 106 l0 108 q0 111 -67 168.5 q-67 57.5 -198 57.5 q-138 0 -209.5 -63 q-71.5 -63 -71.5 -185 l0 -111 q0 -143 74.5 -216.5 q74.5 -73.5 220.5 -73.5 q112 0 208 41 l53 -78 q-99 -66 -254 -66 q-197 0 -303 102 q-106 102 -106 291 l0 111 q0 168 102.5 259.5 q102.5 91.5 284.5 91.5 ZM411 186 q21 0 34 16.5 q13 16.5 13 46.5 l0 105 q0 29 -12 45.5 q-12 16.5 -33 16.5 q-41 0 -41 -54 l0 -121 q0 -55 39 -55 Z" /><glyph glyph-name="A" unicode="a" d="M344 0 l-23 116 l-148 0 l-23 -116 l-147 0 l168 700 l152 0 l168 -700 l-147 0 ZM201 251 l92 0 l-16 80 q-14 77 -28 192 l-4 0 q-17 -135 -28 -192 l-16 -80 Z" /><glyph glyph-name="B" unicode="b" d="M406 358 q39 -22 61 -62 q22 -40 22 -87 q0 -93 -57.5 -151 q-57.5 -58 -148.5 -58 l-221 0 l0 700 l218 0 q81 0 133 -55 q52 -55 52 -144 q0 -40 -16 -79 q-16 -39 -43 -64 ZM255 566 l-51 0 l0 -146 l56 0 q61 0 61 75 q0 71 -66 71 ZM258 134 q85 0 85 76 q0 77 -82 77 l-57 0 l0 -153 l54 0 Z" /><glyph glyph-name="C" unicode="c" d="M258 -12 q-103 0 -159.5 58.5 q-56.5 58.5 -56.5 167.5 l0 272 q0 110 57 169 q57 59 160 59 q105 0 162 -58.5 q57 -58.5 61 -169.5 l-142 0 q-3 48 -22 69 q-19 21 -60 21 q-68 0 -68 -90 l0 -272 q0 -88 68 -88 q41 0 61 21 q20 21 23 67 l142 0 q-2 -110 -60.5 -168 q-58.5 -58 -165.5 -58 Z" /><glyph glyph-name="D" unicode="d" d="M62 0 l0 700 l192 0 q106 0 165 -61 q59 -61 59 -171 l0 -231 q0 -112 -58.5 -174.5 q-58.5 -62.5 -163.5 -62.5 l-194 0 ZM204 135 l52 0 q78 0 78 102 l0 231 q0 97 -78 97 l-52 0 l0 -430 Z" /><glyph glyph-name="E" unicode="e" d="M204 135 l229 0 l0 -135 l-371 0 l0 700 l361 0 l0 -135 l-219 0 l0 -145 l199 0 l0 -130 l-199 0 l0 -155 Z" /><glyph glyph-name="F" unicode="f" d="M408 565 l-204 0 l0 -145 l184 0 l0 -130 l-184 0 l0 -290 l-142 0 l0 700 l346 0 l0 -135 Z" /><glyph glyph-name="G" unicode="g" d="M263 -12 q-105 0 -163 58.5 q-58 58.5 -58 167.5 l0 272 q0 109 58 167.5 q58 58.5 164 58.5 q101 0 155.5 -58 q54.5 -58 58.5 -168 l-142 0 q-2 48 -18.5 68.5 q-16.5 20.5 -53.5 20.5 q-74 0 -74 -89 l0 -272 q0 -89 75 -89 q39 0 58 21 q19 21 19 68 l0 50 l-84 0 l0 126 l224 0 l0 -176 q-3 -110 -59.5 -168 q-56.5 -58 -159.5 -58 Z" /><glyph glyph-name="H" unicode="h" d="M349 700 l143 0 l0 -700 l-143 0 l0 285 l-144 0 l0 -285 l-143 0 l0 700 l143 0 l0 -280 l144 0 l0 280 Z" /><glyph glyph-name="I" unicode="i" d="M62 700 l142 0 l0 -700 l-142 0 l0 700 Z" /><glyph glyph-name="J" unicode="j" d="M0 -153 l0 141 q61 0 90.5 26 q29.5 26 29.5 93 l0 593 l142 0 l0 -594 q0 -121 -67 -190 q-67 -69 -195 -69 Z" /><glyph glyph-name="K" unicode="k" d="M368 0 l-127 265 l-39 -63 l0 -202 l-140 0 l0 700 l140 0 l0 -268 l36 78 l98 190 l162 0 l-178 -306 l208 -394 l-160 0 Z" /><glyph glyph-name="L" unicode="l" d="M204 135 l208 0 l0 -135 l-350 0 l0 700 l142 0 l0 -565 Z" /><glyph glyph-name="M" unicode="m" d="M521 700 l143 0 l0 -700 l-139 0 l0 172 q2 43 5.5 128 q3.5 85 5.5 127 l-5 2 l-63 -184 l-35 -95 l-140 0 l-35 95 l-63 184 l-5 -2 q2 -42 5 -127 q3 -85 5 -128 l0 -172 l-138 0 l0 700 l143 0 l110 -265 q37 -92 46 -122 l4 0 q9 30 46 122 l110 265 Z" /><glyph glyph-name="N" unicode="n" d="M368 700 l140 0 l0 -700 l-140 0 l-118 271 l-63 171 l-3 -3 q18 -144 18 -297 l0 -142 l-140 0 l0 700 l140 0 l133 -304 q9 -22 25.5 -67 q16.5 -45 24.5 -67 l3 3 q-20 147 -20 273 l0 162 Z" /><glyph glyph-name="O" unicode="o" d="M436 51.5 q-60 -63.5 -167 -63.5 q-107 0 -167 63.5 q-60 63.5 -60 175.5 l0 246 q0 112 60 175.5 q60 63.5 167 63.5 q107 0 167 -63.5 q60 -63.5 60 -175.5 l0 -246 q0 -112 -60 -175.5 ZM189 227 q0 -101 80 -101 q80 0 80 101 l0 246 q0 101 -80 101 q-80 0 -80 -101 l0 -246 Z" /><glyph glyph-name="P" unicode="p" d="M265 700 q109 0 170 -63 q61 -63 61 -175 q0 -112 -61 -174.5 q-61 -62.5 -170 -62.5 l-61 0 l0 -225 l-142 0 l0 700 l203 0 ZM263 360 q87 0 87 102 q0 103 -87 103 l-59 0 l0 -205 l59 0 Z" /><glyph glyph-name="Q" unicode="q" d="M502 473 l0 -246 q0 -109 -57 -172 l54 -65 l-82 -71 l-66 79 q-33 -10 -77 -10 q-107 0 -167.5 63.5 q-60.5 63.5 -60.5 175.5 l0 246 q0 112 60.5 175.5 q60.5 63.5 167.5 63.5 q107 0 167.5 -63.5 q60.5 -63.5 60.5 -175.5 ZM194 227 q0 -101 80 -101 q80 0 80 101 l0 246 q0 101 -80 101 q-80 0 -80 -101 l0 -246 Z" /><glyph glyph-name="R" unicode="r" d="M366 0 l-112 235 l-50 0 l0 -235 l-142 0 l0 700 l203 0 q104 0 162.5 -61.5 q58.5 -61.5 58.5 -171.5 q0 -144 -97 -202 l132 -265 l-155 0 ZM204 565 l0 -195 l59 0 q77 0 77 97 q0 98 -77 98 l-59 0 Z" /><glyph glyph-name="S" unicode="s" d="M236 -14 q-101 0 -159 57 q-58 57 -58 161 l146 0 q0 -80 73 -80 q34 0 52 17.5 q18 17.5 18 44.5 q0 27 -20.5 51 q-20.5 24 -50.5 42 q-30 18 -66 42.5 q-36 24.5 -66 50 q-30 25.5 -50.5 66.5 q-20.5 41 -20.5 91 q0 82 54.5 133.5 q54.5 51.5 149.5 51.5 q97 0 152 -54.5 q55 -54.5 55 -151.5 l-146 0 q0 69 -62 69 q-28 0 -43.5 -14 q-15.5 -14 -15.5 -38 q0 -25 20.5 -48 q20.5 -23 51.5 -39.5 q31 -16.5 67 -40 q36 -23.5 67 -49.5 q31 -26 51.5 -68.5 q20.5 -42.5 20.5 -94.5 q0 -88 -59 -143.5 q-59 -55.5 -161 -55.5 Z" /><glyph glyph-name="T" unicode="t" d="M435 700 l0 -135 l-137 0 l0 -565 l-146 0 l0 565 l-137 0 l0 135 l420 0 Z" /><glyph glyph-name="U" unicode="u" d="M437 51 q-59 -63 -164 -63 q-105 0 -164 63 q-59 63 -59 174 l0 475 l148 0 l0 -475 q0 -99 75 -99 q75 0 75 99 l0 475 l148 0 l0 -475 q0 -111 -59 -174 Z" /><glyph glyph-name="V" unicode="v" d="M169 0 l-166 700 l147 0 l63 -331 q14 -72 29 -195 l4 0 q15 123 29 195 l63 331 l147 0 l-166 -700 l-150 0 Z" /><glyph glyph-name="W" unicode="w" d="M642 700 l147 0 l-158 -700 l-150 0 l-50 234 q-25 110 -33 229 l-4 0 q-8 -119 -33 -229 l-50 -234 l-150 0 l-158 700 l147 0 l55 -331 q24 -151 29 -195 l4 0 q5 44 29 195 l55 321 l148 0 l55 -321 q24 -151 29 -195 l4 0 q5 44 29 195 l55 331 Z" /><glyph glyph-name="X" unicode="x" d="M493 0 l-156 0 l-84 210 l-85 -210 l-156 0 l165 362 l-155 338 l155 0 l76 -190 l75 190 l155 0 l-155 -338 l165 -362 Z" /><glyph glyph-name="Y" unicode="y" d="M165 0 l0 208 l-165 492 l147 0 l57 -194 q21 -70 30 -112 l4 0 q11 47 32 115 l55 191 l147 0 l-165 -492 l0 -208 l-142 0 Z" /><glyph glyph-name="Z" unicode="z" d="M189 135 l225 0 l0 -135 l-401 0 l0 95 l222 470 l-205 0 l0 135 l379 0 l0 -98 l-220 -467 Z" /><glyph glyph-name="bracketleft" unicode="[" d="M284 694 l-87 0 l0 -688 l87 0 l0 -126 l-222 0 l0 940 l222 0 l0 -126 Z" /><glyph glyph-name="backslash" unicode="\" d="M156 817 l318 -940 l-116 0 l-318 940 l116 0 Z" /><glyph glyph-name="bracketright" unicode="]" d="M38 6 l87 0 l0 688 l-87 0 l0 126 l222 0 l0 -940 l-222 0 l0 126 Z" /><glyph glyph-name="asciicircum" unicode="^" d="M356 472 l-118 0 l-57 121 l-58 -121 l-118 0 l119 228 l113 0 l119 -228 Z" /><glyph glyph-name="underscore" unicode="_" d="M15 -10 l340 0 l0 -132 l-340 0 l0 132 Z" /><glyph glyph-name="a" unicode="a" d="M230 543 q94 0 138 -51.5 q44 -51.5 44 -154.5 l0 -337 l-108 0 l-8 50 q-34 -64 -115 -64 q-72 0 -115 46.5 q-43 46.5 -43 119.5 q0 83 55.5 126 q55.5 43 147.5 43 l49 0 l0 16 q0 38 -10.5 56.5 q-10.5 18.5 -36.5 18.5 q-46 0 -53 -47 l-137 0 q4 84 54.5 131 q50.5 47 137.5 47 ZM275 167 l0 39 l-46 0 q-67 0 -67 -54 q0 -22 12.5 -36 q12.5 -14 39.5 -14 q28 0 44.5 17.5 q16.5 17.5 16.5 47.5 Z" /><glyph glyph-name="b" unicode="b" d="M263 543 q77 0 124.5 -57 q47.5 -57 47.5 -151 l0 -138 q0 -94 -47 -151.5 q-47 -57.5 -125 -57.5 q-63 0 -114 58 l-6 -47 l-93 0 l0 726 l133 0 l0 -211 q37 29 80 29 ZM296 197 l0 138 q0 78 -53 78 q-60 0 -60 -78 l0 -138 q0 -79 60 -79 q53 0 53 79 Z" /><glyph glyph-name="c" unicode="c" d="M227 -12 q-89 0 -139 52.5 q-50 52.5 -50 146.5 l0 158 q0 93 50 145.5 q50 52.5 139 52.5 q92 0 141 -51.5 q49 -51.5 52 -146.5 l-137 0 q-3 68 -53 68 q-54 0 -54 -68 l0 -158 q0 -69 54 -69 q52 0 57 69 l137 0 q-2 -94 -54 -146.5 q-52 -52.5 -143 -52.5 Z" /><glyph glyph-name="d" unicode="d" d="M290 725 l133 0 l0 -726 l-93 0 l-6 47 q-51 -58 -114 -58 q-78 0 -125 57.5 q-47 57.5 -47 151.5 l0 138 q0 94 47.5 151 q47.5 57 124.5 57 q43 0 80 -29 l0 211 ZM290 197 l0 138 q0 78 -60 78 q-53 0 -53 -78 l0 -138 q0 -79 53 -79 q60 0 60 79 Z" /><glyph glyph-name="e" unicode="e" d="M292 169 l138 0 q-8 -86 -61 -133.5 q-53 -47.5 -141 -47.5 q-89 0 -139.5 55.5 q-50.5 55.5 -50.5 153.5 l0 141 q0 97 50.5 151 q50.5 54 140.5 54 q92 0 143 -54 q51 -54 51 -151 l0 -119 l-248 0 l0 -22 q0 -79 55 -79 q30 0 42.5 11.5 q12.5 11.5 19.5 39.5 ZM230 417 q-55 0 -55 -77 l0 -28 l113 0 l0 28 q0 77 -58 77 Z" /><glyph glyph-name="f" unicode="f" d="M280 616 q-36 0 -50 -16.5 q-14 -16.5 -14 -56.5 l0 -13 l89 0 l0 -125 l-89 0 l0 -405 l-135 0 l0 405 l-74 0 l0 125 l74 0 l0 13 q0 89 48 142.5 q48 53.5 151 53.5 l34 0 l0 -123 l-34 0 Z" /><glyph glyph-name="g" unicode="g" d="M334 530 l93 0 l0 -547 q0 -81 -49.5 -129 q-49.5 -48 -137.5 -48 q-86 0 -134.5 47.5 q-48.5 47.5 -50.5 129.5 l135 0 q5 -50 50 -50 q23 0 35.5 13.5 q12.5 13.5 12.5 36.5 l0 66 q-36 -22 -80 -22 q-73 0 -121.5 56 q-48.5 56 -48.5 142 l0 118 q0 87 48 143.5 q48 56.5 122 56.5 q71 0 117 -44 l9 31 ZM230 156 q58 0 58 69 l0 118 q0 68 -58 68 q-54 0 -54 -68 l0 -118 q0 -69 54 -69 Z" /><glyph glyph-name="h" unicode="h" d="M281 543 q71 0 110.5 -55.5 q39.5 -55.5 39.5 -162.5 l0 -325 l-137 0 l0 325 q0 88 -51 88 q-57 0 -57 -78 l0 -335 l-136 0 l0 725 l136 0 l0 -232 q39 50 95 50 Z" /><glyph glyph-name="i" unicode="i" d="M119 608 q-33 0 -54 21.5 q-21 21.5 -21 53.5 q0 32 21 53.5 q21 21.5 54 21.5 q32 0 53.5 -21.5 q21.5 -21.5 21.5 -53.5 q0 -30 -22 -52.5 q-22 -22.5 -53 -22.5 ZM50 0 l0 530 l137 0 l0 -530 l-137 0 Z" /><glyph glyph-name="j" unicode="j" d="M135 607 q-33 0 -54 21.5 q-21 21.5 -21 53.5 q0 32 21 53.5 q21 21.5 54 21.5 q32 0 53.5 -21.5 q21.5 -21.5 21.5 -53.5 q0 -30 -22 -52.5 q-22 -22.5 -53 -22.5 ZM-9 -194 l0 130 q77 0 77 74 l0 520 l136 0 l0 -511 q0 -102 -55 -157.5 q-55 -55.5 -158 -55.5 Z" /><glyph glyph-name="k" unicode="k" d="M311 0 l-101 213 l-25 -25 l0 -188 l-135 0 l0 725 l135 0 l0 -358 l98 163 l157 0 l-140 -210 l163 -320 l-152 0 Z" /><glyph glyph-name="l" unicode="l" d="M43 0 l0 725 l136 0 l0 -725 l-136 0 Z" /><glyph glyph-name="m" unicode="m" d="M511 543 q73 0 112.5 -55.5 q39.5 -55.5 39.5 -162.5 l0 -325 l-135 0 l0 325 q0 88 -49 88 q-55 0 -55 -78 l0 -335 l-135 0 l0 325 q0 88 -49 88 q-25 0 -40 -20 q-15 -20 -15 -58 l0 -335 l-135 0 l0 530 l89 0 l9 -54 q41 67 124 67 q79 0 118 -63 q40 63 121 63 Z" /><glyph glyph-name="n" unicode="n" d="M275 543 q74 0 115 -55.5 q41 -55.5 41 -162.5 l0 -325 l-137 0 l0 325 q0 88 -51 88 q-57 0 -57 -78 l0 -335 l-136 0 l0 530 l90 0 l10 -54 q41 67 125 67 Z" /><glyph glyph-name="o" unicode="o" d="M380 42 q-52 -55 -145 -55 q-93 0 -145 55 q-52 55 -52 156 l0 135 q0 101 52 155.5 q52 54.5 145 54.5 q93 0 145 -54.5 q52 -54.5 52 -155.5 l0 -135 q0 -101 -52 -156 ZM177 198 q0 -79 58 -79 q58 0 58 79 l0 135 q0 78 -58 78 q-58 0 -58 -78 l0 -135 Z" /><glyph glyph-name="p" unicode="p" d="M263 542 q78 0 125 -57.5 q47 -57.5 47 -151.5 l0 -138 q0 -94 -47.5 -151 q-47.5 -57 -124.5 -57 q-43 0 -80 29 l0 -196 l-133 0 l0 711 l93 0 l6 -47 q51 58 114 58 ZM296 195 l0 138 q0 79 -53 79 q-60 0 -60 -79 l0 -138 q0 -78 60 -78 q53 0 53 78 Z" /><glyph glyph-name="q" unicode="q" d="M330 531 l93 0 l0 -711 l-133 0 l0 196 q-37 -29 -80 -29 q-77 0 -124.5 57 q-47.5 57 -47.5 151 l0 138 q0 94 47 151.5 q47 57.5 125 57.5 q63 0 114 -58 l6 47 ZM230 117 q60 0 60 78 l0 138 q0 79 -60 79 q-53 0 -53 -79 l0 -138 q0 -78 53 -78 Z" /><glyph glyph-name="r" unicode="r" d="M284 543 q37 0 58 -12 l0 -130 q-30 14 -64 14 q-92 0 -92 -82 l0 -333 l-136 0 l0 530 l90 0 l10 -56 q43 69 134 69 Z" /><glyph glyph-name="s" unicode="s" d="M224 -15 q-97 0 -150.5 53.5 q-53.5 53.5 -55.5 130.5 l136 0 q5 -60 65 -60 q27 0 42 11.5 q15 11.5 15 30.5 q0 22 -25.5 38.5 q-25.5 16.5 -62 30 q-36.5 13.5 -73.5 31.5 q-37 18 -62.5 53 q-25.5 35 -25.5 85 q0 72 49 113 q49 41 134 41 q90 0 135.5 -47.5 q45.5 -47.5 51.5 -128.5 l-131 0 q-5 56 -56 56 q-22 0 -35 -9.5 q-13 -9.5 -13 -24.5 q0 -20 26 -34 q26 -14 62.5 -26.5 q36.5 -12.5 73 -30.5 q36.5 -18 62.5 -55.5 q26 -37.5 26 -90.5 q0 -76 -50 -121.5 q-50 -45.5 -138 -45.5 Z" /><glyph glyph-name="t" unicode="t" d="M271 120 l34 0 l0 -128 l-44 0 q-85 0 -135 52 q-50 52 -50 141 l0 222 l-69 0 l0 123 l69 0 l0 128 l135 0 l0 -128 l87 0 l0 -123 l-87 0 l0 -224 q0 -63 60 -63 Z" /><glyph glyph-name="u" unicode="u" d="M290 530 l136 0 l0 -530 l-90 0 l-10 54 q-41 -67 -125 -67 q-74 0 -115 55.5 q-41 55.5 -41 162.5 l0 325 l137 0 l0 -325 q0 -88 51 -88 q57 0 57 78 l0 335 Z" /><glyph glyph-name="v" unicode="v" d="M291 530 l145 0 l-141 -530 l-154 0 l-141 530 l145 0 l32 -165 q28 -140 38 -207 l6 0 q9 55 38 207 l32 165 Z" /><glyph glyph-name="w" unicode="w" d="M525 530 l141 0 l-121 -530 l-147 0 l-26 118 q-28 129 -36 239 l-6 0 q-8 -110 -36 -239 l-26 -118 l-147 0 l-121 530 l141 0 l28 -185 q24 -167 26 -198 l6 0 q6 48 28 185 l32 188 l144 0 l32 -188 q22 -137 28 -185 l6 0 q2 31 26 198 l28 185 Z" /><glyph glyph-name="x" unicode="x" d="M443 0 l-153 0 l-72 154 l-72 -154 l-153 0 l140 267 l-125 263 l149 0 l61 -144 l61 144 l149 0 l-122 -263 l137 -267 Z" /><glyph glyph-name="y" unicode="y" d="M309 530 l139 0 l-159 -546 q-50 -172 -159 -172 l-70 0 l0 131 l40 0 q25 0 37 15 q12 15 23 51 l13 45 l-173 476 l142 0 l87 -281 l80 281 Z" /><glyph glyph-name="z" unicode="z" d="M180 125 l185 0 l0 -125 l-362 0 l0 83 l178 322 l-157 0 l0 125 l331 0 l0 -83 l-175 -322 Z" /><glyph glyph-name="braceleft" unicode="{" d="M231 498 q0 -93 -61 -148 q61 -55 61 -148 l0 -128 q0 -64 71 -64 l0 -130 q-98 0 -151.5 55.5 q-53.5 55.5 -53.5 157.5 l0 128 q0 64 -59 64 l0 130 q59 0 59 64 l0 128 q0 102 53.5 157.5 q53.5 55.5 151.5 55.5 l0 -130 q-71 0 -71 -64 l0 -128 Z" /><glyph glyph-name="bar" unicode="|" d="M43 806 l140 0 l0 -906 l-140 0 l0 906 Z" /><glyph glyph-name="braceright" unicode="}" d="M243 479 q0 -64 59 -64 l0 -130 q-59 0 -59 -64 l0 -128 q0 -102 -53.5 -157.5 q-53.5 -55.5 -151.5 -55.5 l0 130 q71 0 71 64 l0 128 q0 93 61 148 q-61 55 -61 148 l0 128 q0 64 -71 64 l0 130 q98 0 151.5 -55.5 q53.5 -55.5 53.5 -157.5 l0 -128 Z" /><glyph glyph-name="asciitilde" unicode="~" d="M384 383 l72 -83 q-46 -70 -116 -70 q-38 0 -100 23.5 q-62 23.5 -85 23.5 q-34 0 -59 -38 l-70 83 q44 70 115 70 q37 0 99 -23.5 q62 -23.5 85 -23.5 q34 0 59 38 Z" /><glyph glyph-name="exclamdown" unicode="¡" d="M85.5 521.5 q20.5 20.5 54.5 20.5 q34 0 54.5 -20.5 q20.5 -20.5 20.5 -54.5 q0 -34 -20.5 -54.5 q-20.5 -20.5 -54.5 -20.5 q-34 0 -54.5 20.5 q-20.5 20.5 -20.5 54.5 q0 34 20.5 54.5 ZM71 338 l137 0 l0 -518 l-137 0 l0 518 Z" /><glyph glyph-name="cent" unicode="¢" d="M424 187 q-2 -79 -39.5 -129.5 q-37.5 -50.5 -105.5 -64.5 l0 -68 l-105 0 l0 69 q-65 14 -100.5 64 q-35.5 50 -35.5 129 l0 158 q0 78 35.5 128 q35.5 50 100.5 64 l0 66 l105 0 l0 -65 q136 -27 141 -193 l-137 0 q-3 68 -53 68 q-54 0 -54 -68 l0 -158 q0 -69 54 -69 q52 0 57 69 l137 0 Z" /><glyph glyph-name="sterling" unicode="£" d="M206 129 l250 0 l0 -129 l-431 0 l0 118 q30 0 43 18.5 q13 18.5 13 56.5 l0 87 l-56 0 l0 119 l56 0 l0 120 q0 87 50.5 140 q50.5 53 131.5 53 q81 0 132 -54 q51 -54 57 -150 l-138 0 q-9 66 -52 66 q-43 0 -43 -53 l0 -122 l147 0 l0 -119 l-147 0 l0 -87 q0 -36 -13 -64 Z" /><glyph glyph-name="currency" unicode="¤" d="M107 59 l-78 54 l52 74 q-21 39 -21 92 l0 82 q0 51 20 91 l-51 73 l77 55 l43 -61 q35 18 82 18 q47 0 83 -18 l42 61 l77 -55 l-51 -73 q20 -40 20 -91 l0 -82 q0 -53 -21 -92 l52 -74 l-78 -54 l-43 61 q-36 -17 -81 -17 q-44 0 -81 17 l-43 -61 ZM186 280 q0 -57 45 -57 q45 0 45 57 l0 80 q0 57 -45 57 q-45 0 -45 -57 l0 -80 Z" /><glyph glyph-name="yen" unicode="¥" d="M472 700 l-138 -411 l132 0 l0 -80 l-159 0 l0 -60 l159 0 l0 -80 l-159 0 l0 -69 l-142 0 l0 69 l-159 0 l0 80 l159 0 l0 60 l-159 0 l0 80 l132 0 l-138 411 l147 0 l57 -194 q21 -70 30 -112 l4 0 q11 47 32 115 l55 191 l147 0 Z" /><glyph glyph-name="brokenbar" unicode="¦" d="M33 482 l0 324 l140 0 l0 -324 l-140 0 ZM33 -100 l0 324 l140 0 l0 -324 l-140 0 Z" /><glyph glyph-name="section" unicode="§" d="M362 219 q47 -45 47 -109 q0 -77 -49.5 -122.5 q-49.5 -45.5 -137.5 -45.5 q-96 0 -147.5 53.5 q-51.5 53.5 -53.5 130.5 l136 0 q5 -60 60 -60 q56 0 56 46 q0 21 -26 37.5 q-26 16.5 -63.5 31 q-37.5 14.5 -75 33.5 q-37.5 19 -63.5 55.5 q-26 36.5 -26 87.5 q0 77 62 120 q-48 42 -48 110 q0 71 48 111.5 q48 40.5 129 40.5 q88 0 132.5 -47.5 q44.5 -47.5 50.5 -128.5 l-131 0 q-5 56 -52 56 q-44 0 -44 -34 q0 -18 18 -32 q18 -14 45 -23.5 q27 -9.5 59 -25 q32 -15.5 59 -34.5 q27 -19 45 -55 q18 -36 18 -84 q0 -70 -48 -112 ZM252 292 q22 11 22 37 q0 39 -78 71 q-19 -1 -30.5 -12.5 q-11.5 -11.5 -11.5 -27.5 q0 -23 23 -36.5 q23 -13.5 75 -31.5 Z" /><glyph glyph-name="copyright" unicode="©" d="M553.5 80 q-77.5 -86 -216.5 -86 q-139 0 -217 86 q-78 86 -78 240 l0 72 q0 152 78 237 q78 85 217 85 q139 0 216.5 -85 q77.5 -85 77.5 -237 l0 -72 q0 -154 -77.5 -240 ZM337 77 q101 0 152.5 61.5 q51.5 61.5 51.5 181.5 l0 72 q0 118 -51.5 178.5 q-51.5 60.5 -152.5 60.5 q-101 0 -153 -60.5 q-52 -60.5 -52 -178.5 l0 -72 q0 -243 205 -243 ZM335 152 q-61 0 -95 37 q-34 37 -34 103 l0 122 q0 66 34 103 q34 37 95 37 q63 0 96.5 -36.5 q33.5 -36.5 35.5 -103.5 l-92 0 q-3 49 -38 49 q-38 0 -38 -49 l0 -122 q0 -49 38 -49 q36 0 41 49 l92 0 q-2 -66 -37 -103 q-35 -37 -98 -37 Z" /><glyph glyph-name="guillemotleft" unicode="«" d="M141 85 l-111 150 l0 44 l111 150 l133 0 l-125 -172 l125 -172 l-133 0 ZM342 85 l-111 150 l0 44 l111 150 l133 0 l-125 -172 l125 -172 l-133 0 Z" /><glyph glyph-name="logicalnot" unicode="¬" d="M450 373 l0 -189 l-123 0 l0 64 l-287 0 l0 125 l410 0 Z" /><glyph glyph-name="registered" unicode="®" d="M93 664 q48 50 136 50 q88 0 136 -50 q48 -50 48 -143 l0 -61 q0 -98 -48 -150 q-48 -52 -136 -52 q-88 0 -136 52 q-48 52 -48 150 l0 61 q0 93 48 143 ZM365 459 l0 61 q0 150 -136 150 q-136 0 -136 -150 l0 -61 q0 -159 136 -159 q136 0 136 159 ZM308 528 q0 -49 -33 -69 l46 -91 l-55 0 l-39 80 l-17 0 l0 -80 l-50 0 l0 241 l71 0 q37 0 57 -21.5 q20 -21.5 20 -59.5 ZM210 561 l0 -66 l20 0 q27 0 27 33 q0 33 -27 33 l-20 0 Z" /><glyph glyph-name="degree" unicode="°" d="M18 573 q0 62 37.5 100.5 q37.5 38.5 99.5 38.5 q62 0 99.5 -38.5 q37.5 -38.5 37.5 -100.5 q0 -63 -37.5 -101.5 q-37.5 -38.5 -99.5 -38.5 q-62 0 -99.5 38.5 q-37.5 38.5 -37.5 101.5 ZM120 611.5 q-13 -14.5 -13 -38.5 q0 -24 13 -38.5 q13 -14.5 35 -14.5 q22 0 35 14.5 q13 14.5 13 38.5 q0 24 -13 38.5 q-13 14.5 -35 14.5 q-22 0 -35 -14.5 Z" /><glyph glyph-name="plusminus" unicode="±" d="M303 445 l137 0 l0 -121 l-137 0 l0 -124 l-126 0 l0 124 l-137 0 l0 121 l137 0 l0 124 l126 0 l0 -124 ZM40 38 l0 115 l400 0 l0 -115 l-400 0 Z" /><glyph glyph-name="paragraph" unicode="¶" d="M567 705 l0 -795 l-138 0 l0 666 l-86 0 l0 -666 l-138 0 l0 465 q-75 0 -121 44.5 q-46 44.5 -46 120.5 q0 76 46 120.5 q46 44.5 121 44.5 l362 0 Z" /><glyph glyph-name="periodcentered" unicode="·" d="M157.5 203.5 q-20.5 -20.5 -54.5 -20.5 q-34 0 -54.5 20.5 q-20.5 20.5 -20.5 54.5 q0 34 20.5 54.5 q20.5 20.5 54.5 20.5 q34 0 54.5 -20.5 q20.5 -20.5 20.5 -54.5 q0 -34 -20.5 -54.5 Z" /><glyph glyph-name="guillemotright" unicode="»" d="M163 85 l-133 0 l125 172 l-125 172 l133 0 l111 -150 l0 -44 l-111 -150 ZM364 85 l-133 0 l125 172 l-125 172 l133 0 l111 -150 l0 -44 l-111 -150 Z" /><glyph glyph-name="questiondown" unicode="¿" d="M156.5 518.5 q20.5 20.5 54.5 20.5 q34 0 54.5 -20.5 q20.5 -20.5 20.5 -54.5 q0 -34 -20.5 -54.5 q-20.5 -20.5 -54.5 -20.5 q-34 0 -54.5 20.5 q-20.5 20.5 -20.5 54.5 q0 34 20.5 54.5 ZM279 335 l0 -26 q0 -54 -13.5 -95.5 q-13.5 -41.5 -33 -67 q-19.5 -25.5 -39 -46.5 q-19.5 -21 -33 -45.5 q-13.5 -24.5 -13.5 -52.5 q0 -64 59 -64 q60 0 65 82 l131 0 q-7 -97 -57 -152 q-50 -55 -138 -55 q-86 0 -140 51 q-54 51 -54 137 q0 40 13.5 74 q13.5 34 33 58.5 q19.5 24.5 39 48.5 q19.5 24 33 55.5 q13.5 31.5 13.5 68.5 l0 29 l134 0 Z" /><glyph glyph-name="Agrave" unicode="à" d="M337 767 l-94 0 l-113 137 l113 0 l94 -137 ZM344 0 l-23 116 l-148 0 l-23 -116 l-147 0 l168 700 l152 0 l168 -700 l-147 0 ZM201 251 l92 0 l-16 80 q-14 77 -28 192 l-4 0 q-17 -135 -28 -192 l-16 -80 Z" /><glyph glyph-name="Aacute" unicode="á" d="M385 904 l-113 -137 l-94 0 l94 137 l113 0 ZM344 0 l-23 116 l-148 0 l-23 -116 l-147 0 l168 700 l152 0 l168 -700 l-147 0 ZM201 251 l92 0 l-16 80 q-14 77 -28 192 l-4 0 q-17 -135 -28 -192 l-16 -80 Z" /><glyph glyph-name="Acircumflex" unicode="â" d="M247 834 l-44 -67 l-89 0 l81 137 l103 0 l81 -137 l-89 0 l-43 67 ZM344 0 l-23 116 l-148 0 l-23 -116 l-147 0 l168 700 l152 0 l168 -700 l-147 0 ZM201 251 l92 0 l-16 80 q-14 77 -28 192 l-4 0 q-17 -135 -28 -192 l-16 -80 Z" /><glyph glyph-name="Atilde" unicode="ã" d="M224 809 q-24 0 -28 -25 l-77 0 q3 51 28 78.5 q25 27.5 63 27.5 q24 0 46.5 -14 q22.5 -14 31.5 -14 q23 0 28 25 l77 0 q-3 -49 -28 -77.5 q-25 -28.5 -63 -28.5 q-23 0 -45.5 14 q-22.5 14 -32.5 14 ZM344 0 l-23 116 l-148 0 l-23 -116 l-147 0 l168 700 l152 0 l168 -700 l-147 0 ZM201 251 l92 0 l-16 80 q-14 77 -28 192 l-4 0 q-17 -135 -28 -192 l-16 -80 Z" /><glyph glyph-name="Adieresis" unicode="ä" d="M210.5 791.5 q-16.5 -16.5 -44.5 -16.5 q-28 0 -44.5 16.5 q-16.5 16.5 -16.5 44.5 q0 28 16.5 44.5 q16.5 16.5 44.5 16.5 q28 0 44.5 -16.5 q16.5 -16.5 16.5 -44.5 q0 -28 -16.5 -44.5 ZM372.5 791.5 q-16.5 -16.5 -44.5 -16.5 q-28 0 -44.5 16.5 q-16.5 16.5 -16.5 44.5 q0 28 16.5 44.5 q16.5 16.5 44.5 16.5 q28 0 44.5 -16.5 q16.5 -16.5 16.5 -44.5 q0 -28 -16.5 -44.5 ZM344 0 l-23 116 l-148 0 l-23 -116 l-147 0 l168 700 l152 0 l168 -700 l-147 0 ZM201 251 l92 0 l-16 80 q-14 77 -28 192 l-4 0 q-17 -135 -28 -192 l-16 -80 Z" /><glyph glyph-name="Aring" unicode="å" d="M317.5 788 q-25.5 -25 -66.5 -25 q-41 0 -66.5 25 q-25.5 25 -25.5 65 q0 39 25.5 63.5 q25.5 24.5 66.5 24.5 q41 0 66.5 -24.5 q25.5 -24.5 25.5 -63.5 q0 -40 -25.5 -65 ZM275 876 q-9 9 -24 9 q-15 0 -24 -9 q-9 -9 -9 -24 q0 -15 9 -24 q9 -9 24 -9 q15 0 24 9 q9 9 9 24 q0 15 -9 24 ZM344 0 l-23 116 l-148 0 l-23 -116 l-147 0 l168 700 l152 0 l168 -700 l-147 0 ZM201 251 l92 0 l-16 80 q-14 77 -28 192 l-4 0 q-17 -135 -28 -192 l-16 -80 Z" /><glyph glyph-name="AE" unicode="æ" d="M467 135 l204 0 l0 -135 l-346 0 l0 116 l-136 0 l-39 -116 l-150 0 l255 700 l406 0 l0 -135 l-194 0 l0 -145 l174 0 l0 -130 l-174 0 l0 -155 ZM234 251 l91 0 l0 292 l-4 0 q-23 -106 -58 -207 l-29 -85 Z" /><glyph glyph-name="Ccedilla" unicode="ç" d="M484 214 q-2 -96 -46.5 -152.5 q-44.5 -56.5 -127.5 -69.5 l-11 -39 l9 0 q33 0 53.5 -20.5 q20.5 -20.5 20.5 -54.5 q0 -43 -30 -69 q-30 -26 -80 -26 q-43 0 -75 25.5 q-32 25.5 -36 65.5 l71 0 q14 -27 40 -27 q34 0 34 34 q0 29 -33 29 q-20 0 -35 -8 l-20 20 l19 67 q-93 6 -144 64 q-51 58 -51 161 l0 272 q0 110 57 169 q57 59 160 59 q105 0 162 -58.5 q57 -58.5 61 -169.5 l-142 0 q-3 48 -22 69 q-19 21 -60 21 q-68 0 -68 -90 l0 -272 q0 -88 68 -88 q41 0 61 21 q20 21 23 67 l142 0 Z" /><glyph glyph-name="Egrave" unicode="è" d="M326 767 l-94 0 l-113 137 l113 0 l94 -137 ZM204 135 l229 0 l0 -135 l-371 0 l0 700 l361 0 l0 -135 l-219 0 l0 -145 l199 0 l0 -130 l-199 0 l0 -155 Z" /><glyph glyph-name="Eacute" unicode="é" d="M374 904 l-113 -137 l-94 0 l94 137 l113 0 ZM204 135 l229 0 l0 -135 l-371 0 l0 700 l361 0 l0 -135 l-219 0 l0 -145 l199 0 l0 -130 l-199 0 l0 -155 Z" /><glyph glyph-name="Ecircumflex" unicode="ê" d="M236 834 l-44 -67 l-89 0 l81 137 l103 0 l81 -137 l-89 0 l-43 67 ZM204 135 l229 0 l0 -135 l-371 0 l0 700 l361 0 l0 -135 l-219 0 l0 -145 l199 0 l0 -130 l-199 0 l0 -155 Z" /><glyph glyph-name="Edieresis" unicode="ë" d="M199.5 791.5 q-16.5 -16.5 -44.5 -16.5 q-28 0 -44.5 16.5 q-16.5 16.5 -16.5 44.5 q0 28 16.5 44.5 q16.5 16.5 44.5 16.5 q28 0 44.5 -16.5 q16.5 -16.5 16.5 -44.5 q0 -28 -16.5 -44.5 ZM361.5 791.5 q-16.5 -16.5 -44.5 -16.5 q-28 0 -44.5 16.5 q-16.5 16.5 -16.5 44.5 q0 28 16.5 44.5 q16.5 16.5 44.5 16.5 q28 0 44.5 -16.5 q16.5 -16.5 16.5 -44.5 q0 -28 -16.5 -44.5 ZM204 135 l229 0 l0 -135 l-371 0 l0 700 l361 0 l0 -135 l-219 0 l0 -145 l199 0 l0 -130 l-199 0 l0 -155 Z" /><glyph glyph-name="Igrave" unicode="ì" d="M224 767 l-94 0 l-113 137 l113 0 l94 -137 ZM62 700 l142 0 l0 -700 l-142 0 l0 700 Z" /><glyph glyph-name="Iacute" unicode="í" d="M65 767 l94 137 l113 0 l-113 -137 l-94 0 ZM62 700 l142 0 l0 -700 l-142 0 l0 700 Z" /><glyph glyph-name="Icircumflex" unicode="î" d="M134 834 l-44 -67 l-89 0 l81 137 l103 0 l81 -137 l-89 0 l-43 67 ZM62 0 l0 700 l142 0 l0 -700 l-142 0 Z" /><glyph glyph-name="Idieresis" unicode="ï" d="M100.5 791.5 q-16.5 -16.5 -44.5 -16.5 q-28 0 -44.5 16.5 q-16.5 16.5 -16.5 44.5 q0 28 16.5 44.5 q16.5 16.5 44.5 16.5 q28 0 44.5 -16.5 q16.5 -16.5 16.5 -44.5 q0 -28 -16.5 -44.5 ZM258.5 791.5 q-16.5 -16.5 -44.5 -16.5 q-28 0 -44.5 16.5 q-16.5 16.5 -16.5 44.5 q0 28 16.5 44.5 q16.5 16.5 44.5 16.5 q28 0 44.5 -16.5 q16.5 -16.5 16.5 -44.5 q0 -28 -16.5 -44.5 ZM63 700 l142 0 l0 -700 l-142 0 l0 700 Z" /><glyph glyph-name="Eth" unicode="ð" d="M252 700 q108 0 171 -56 q63 -56 63 -156 l0 -271 q0 -103 -62.5 -160 q-62.5 -57 -169.5 -57 l-186 0 l0 317 l-63 0 l0 83 l63 0 l0 300 l184 0 ZM340 217 l0 271 q0 43 -19.5 60 q-19.5 17 -58.5 17 l-52 0 l0 -165 l69 0 l0 -83 l-69 0 l0 -182 l52 0 q40 0 59 17.5 q19 17.5 19 64.5 Z" /><glyph glyph-name="Ntilde" unicode="ñ" d="M262 809 q-24 0 -28 -25 l-77 0 q3 51 28 78.5 q25 27.5 63 27.5 q24 0 46.5 -14 q22.5 -14 31.5 -14 q23 0 28 25 l77 0 q-3 -49 -28 -77.5 q-25 -28.5 -63 -28.5 q-23 0 -45.5 14 q-22.5 14 -32.5 14 ZM368 700 l140 0 l0 -700 l-140 0 l-118 271 l-63 171 l-3 -3 q18 -144 18 -297 l0 -142 l-140 0 l0 700 l140 0 l133 -304 q9 -22 25.5 -67 q16.5 -45 24.5 -67 l3 3 q-20 147 -20 273 l0 162 Z" /><glyph glyph-name="Ograve" unicode="ò" d="M358 767 l-94 0 l-113 137 l113 0 l94 -137 ZM436 51.5 q-60 -63.5 -167 -63.5 q-107 0 -167 63.5 q-60 63.5 -60 175.5 l0 246 q0 112 60 175.5 q60 63.5 167 63.5 q107 0 167 -63.5 q60 -63.5 60 -175.5 l0 -246 q0 -112 -60 -175.5 ZM189 227 q0 -101 80 -101 q80 0 80 101 l0 246 q0 101 -80 101 q-80 0 -80 -101 l0 -246 Z" /><glyph glyph-name="Oacute" unicode="ó" d="M199 767 l94 137 l113 0 l-113 -137 l-94 0 ZM436 51.5 q-60 -63.5 -167 -63.5 q-107 0 -167 63.5 q-60 63.5 -60 175.5 l0 246 q0 112 60 175.5 q60 63.5 167 63.5 q107 0 167 -63.5 q60 -63.5 60 -175.5 l0 -246 q0 -112 -60 -175.5 ZM189 227 q0 -101 80 -101 q80 0 80 101 l0 246 q0 101 -80 101 q-80 0 -80 -101 l0 -246 Z" /><glyph glyph-name="Ocircumflex" unicode="ô" d="M268 834 l-44 -67 l-89 0 l81 137 l103 0 l81 -137 l-89 0 l-43 67 ZM102 648.5 q60 63.5 167 63.5 q107 0 167 -63.5 q60 -63.5 60 -175.5 l0 -246 q0 -112 -60 -175.5 q-60 -63.5 -167 -63.5 q-107 0 -167 63.5 q-60 63.5 -60 175.5 l0 246 q0 112 60 175.5 ZM349 227 l0 246 q0 101 -80 101 q-80 0 -80 -101 l0 -246 q0 -101 80 -101 q80 0 80 101 Z" /><glyph glyph-name="Otilde" unicode="õ" d="M245 809 q-24 0 -28 -25 l-77 0 q3 51 28 78.5 q25 27.5 63 27.5 q24 0 46.5 -14 q22.5 -14 31.5 -14 q23 0 28 25 l77 0 q-3 -49 -28 -77.5 q-25 -28.5 -63 -28.5 q-23 0 -45.5 14 q-22.5 14 -32.5 14 ZM436 51.5 q-60 -63.5 -167 -63.5 q-107 0 -167 63.5 q-60 63.5 -60 175.5 l0 246 q0 112 60 175.5 q60 63.5 167 63.5 q107 0 167 -63.5 q60 -63.5 60 -175.5 l0 -246 q0 -112 -60 -175.5 ZM189 227 q0 -101 80 -101 q80 0 80 101 l0 246 q0 101 -80 101 q-80 0 -80 -101 l0 -246 Z" /><glyph glyph-name="Odieresis" unicode="ö" d="M231.5 791.5 q-16.5 -16.5 -44.5 -16.5 q-28 0 -44.5 16.5 q-16.5 16.5 -16.5 44.5 q0 28 16.5 44.5 q16.5 16.5 44.5 16.5 q28 0 44.5 -16.5 q16.5 -16.5 16.5 -44.5 q0 -28 -16.5 -44.5 ZM393.5 791.5 q-16.5 -16.5 -44.5 -16.5 q-28 0 -44.5 16.5 q-16.5 16.5 -16.5 44.5 q0 28 16.5 44.5 q16.5 16.5 44.5 16.5 q28 0 44.5 -16.5 q16.5 -16.5 16.5 -44.5 q0 -28 -16.5 -44.5 ZM436 51.5 q-60 -63.5 -167 -63.5 q-107 0 -167 63.5 q-60 63.5 -60 175.5 l0 246 q0 112 60 175.5 q60 63.5 167 63.5 q107 0 167 -63.5 q60 -63.5 60 -175.5 l0 -246 q0 -112 -60 -175.5 ZM189 227 q0 -101 80 -101 q80 0 80 101 l0 246 q0 101 -80 101 q-80 0 -80 -101 l0 -246 Z" /><glyph glyph-name="multiply" unicode="×" d="M124 94 l-88 89 l115 115 l-115 114 l88 89 l115 -115 l115 115 l88 -89 l-114 -114 l114 -115 l-88 -89 l-115 115 l-115 -115 Z" /><glyph glyph-name="Oslash" unicode="ø" d="M422 666 q80 -62 80 -193 l0 -246 q0 -112 -60.5 -175.5 q-60.5 -63.5 -167.5 -63.5 q-30 0 -53 4 l-18 -61 l-106 0 l30 101 q-81 64 -81 195 l0 246 q0 112 60.5 175.5 q60.5 63.5 167.5 63.5 q26 0 54 -5 l19 62 l106 0 l-31 -103 ZM354 227 l0 246 q0 101 -80 101 q-80 0 -80 -101 l0 -246 q0 -101 80 -101 q80 0 80 101 Z" /><glyph glyph-name="Ugrave" unicode="ù" d="M363 767 l-94 0 l-113 137 l113 0 l94 -137 ZM437 51 q-59 -63 -164 -63 q-105 0 -164 63 q-59 63 -59 174 l0 475 l148 0 l0 -475 q0 -99 75 -99 q75 0 75 99 l0 475 l148 0 l0 -475 q0 -111 -59 -174 Z" /><glyph glyph-name="Uacute" unicode="ú" d="M204 767 l94 137 l113 0 l-113 -137 l-94 0 ZM437 51 q-59 -63 -164 -63 q-105 0 -164 63 q-59 63 -59 174 l0 475 l148 0 l0 -475 q0 -99 75 -99 q75 0 75 99 l0 475 l148 0 l0 -475 q0 -111 -59 -174 Z" /><glyph glyph-name="Ucircumflex" unicode="û" d="M273 834 l-44 -67 l-89 0 l81 137 l103 0 l81 -137 l-89 0 l-43 67 ZM348 700 l148 0 l0 -475 q0 -111 -59 -174 q-59 -63 -164 -63 q-105 0 -164 63 q-59 63 -59 174 l0 475 l148 0 l0 -475 q0 -99 75 -99 q75 0 75 99 l0 475 Z" /><glyph glyph-name="Udieresis" unicode="ü" d="M236.5 791.5 q-16.5 -16.5 -44.5 -16.5 q-28 0 -44.5 16.5 q-16.5 16.5 -16.5 44.5 q0 28 16.5 44.5 q16.5 16.5 44.5 16.5 q28 0 44.5 -16.5 q16.5 -16.5 16.5 -44.5 q0 -28 -16.5 -44.5 ZM398.5 791.5 q-16.5 -16.5 -44.5 -16.5 q-28 0 -44.5 16.5 q-16.5 16.5 -16.5 44.5 q0 28 16.5 44.5 q16.5 16.5 44.5 16.5 q28 0 44.5 -16.5 q16.5 -16.5 16.5 -44.5 q0 -28 -16.5 -44.5 ZM437 51 q-59 -63 -164 -63 q-105 0 -164 63 q-59 63 -59 174 l0 475 l148 0 l0 -475 q0 -99 75 -99 q75 0 75 99 l0 475 l148 0 l0 -475 q0 -111 -59 -174 Z" /><glyph glyph-name="Yacute" unicode="ý" d="M167 767 l94 137 l113 0 l-113 -137 l-94 0 ZM165 0 l0 208 l-165 492 l147 0 l57 -194 q21 -70 30 -112 l4 0 q11 47 32 115 l55 191 l147 0 l-165 -492 l0 -208 l-142 0 Z" /><glyph glyph-name="Thorn" unicode="þ" d="M265 600 q109 0 170 -63 q61 -63 61 -175 q0 -112 -61 -174.5 q-61 -62.5 -170 -62.5 l-61 0 l0 -125 l-142 0 l0 700 l142 0 l0 -100 l61 0 ZM263 260 q87 0 87 102 q0 103 -87 103 l-59 0 l0 -205 l59 0 Z" /><glyph glyph-name="germandbls" unicode="ß" d="M392 363 q39 -27 62 -68 q23 -41 23 -83 q0 -94 -58.5 -153 q-58.5 -59 -150.5 -59 l-29 0 l0 135 l4 0 q88 0 88 77 q0 82 -85 82 l-7 0 l0 130 l6 0 q72 0 72 75 q0 39 -16 60 q-16 21 -45 21 q-30 0 -47 -21 q-17 -21 -17 -60 l0 -499 l-142 0 l0 499 q0 96 56.5 155.5 q56.5 59.5 149.5 59.5 q92 0 148.5 -59.5 q56.5 -59.5 56.5 -156.5 q0 -79 -69 -135 Z" /><glyph glyph-name="agrave" unicode="à" d="M317 609 l-94 0 l-93 137 l113 0 l74 -137 ZM230 543 q94 0 138 -51.5 q44 -51.5 44 -154.5 l0 -337 l-108 0 l-8 50 q-34 -64 -115 -64 q-72 0 -115 46.5 q-43 46.5 -43 119.5 q0 83 55.5 126 q55.5 43 147.5 43 l49 0 l0 16 q0 38 -10.5 56.5 q-10.5 18.5 -36.5 18.5 q-46 0 -53 -47 l-137 0 q4 84 54.5 131 q50.5 47 137.5 47 ZM275 167 l0 39 l-46 0 q-67 0 -67 -54 q0 -22 12.5 -36 q12.5 -14 39.5 -14 q28 0 44.5 17.5 q16.5 17.5 16.5 47.5 Z" /><glyph glyph-name="aacute" unicode="á" d="M354 746 l-93 -137 l-94 0 l74 137 l113 0 ZM230 543 q94 0 138 -51.5 q44 -51.5 44 -154.5 l0 -337 l-108 0 l-8 50 q-34 -64 -115 -64 q-72 0 -115 46.5 q-43 46.5 -43 119.5 q0 83 55.5 126 q55.5 43 147.5 43 l49 0 l0 16 q0 38 -10.5 56.5 q-10.5 18.5 -36.5 18.5 q-46 0 -53 -47 l-137 0 q4 84 54.5 131 q50.5 47 137.5 47 ZM275 167 l0 39 l-46 0 q-67 0 -67 -54 q0 -22 12.5 -36 q12.5 -14 39.5 -14 q28 0 44.5 17.5 q16.5 17.5 16.5 47.5 Z" /><glyph glyph-name="acircumflex" unicode="â" d="M233 676 l-44 -67 l-89 0 l81 137 l103 0 l81 -137 l-89 0 l-43 67 ZM230 543 q94 0 138 -51.5 q44 -51.5 44 -154.5 l0 -337 l-108 0 l-8 50 q-34 -64 -115 -64 q-72 0 -115 46.5 q-43 46.5 -43 119.5 q0 83 55.5 126 q55.5 43 147.5 43 l49 0 l0 16 q0 38 -10.5 56.5 q-10.5 18.5 -36.5 18.5 q-46 0 -53 -47 l-137 0 q4 84 54.5 131 q50.5 47 137.5 47 ZM275 167 l0 39 l-46 0 q-67 0 -67 -54 q0 -22 12.5 -36 q12.5 -14 39.5 -14 q28 0 44.5 17.5 q16.5 17.5 16.5 47.5 Z" /><glyph glyph-name="atilde" unicode="ã" d="M201 639 q-24 0 -28 -25 l-77 0 q3 51 28 78.5 q25 27.5 63 27.5 q24 0 46.5 -14 q22.5 -14 31.5 -14 q23 0 28 25 l77 0 q-3 -49 -28 -77.5 q-25 -28.5 -63 -28.5 q-23 0 -45.5 14 q-22.5 14 -32.5 14 ZM230 543 q94 0 138 -51.5 q44 -51.5 44 -154.5 l0 -337 l-108 0 l-8 50 q-34 -64 -115 -64 q-72 0 -115 46.5 q-43 46.5 -43 119.5 q0 83 55.5 126 q55.5 43 147.5 43 l49 0 l0 16 q0 38 -10.5 56.5 q-10.5 18.5 -36.5 18.5 q-46 0 -53 -47 l-137 0 q4 84 54.5 131 q50.5 47 137.5 47 ZM275 167 l0 39 l-46 0 q-67 0 -67 -54 q0 -22 12.5 -36 q12.5 -14 39.5 -14 q28 0 44.5 17.5 q16.5 17.5 16.5 47.5 Z" /><glyph glyph-name="adieresis" unicode="ä" d="M196.5 630.5 q-16.5 -16.5 -44.5 -16.5 q-28 0 -44.5 16.5 q-16.5 16.5 -16.5 44.5 q0 28 16.5 44.5 q16.5 16.5 44.5 16.5 q28 0 44.5 -16.5 q16.5 -16.5 16.5 -44.5 q0 -28 -16.5 -44.5 ZM358.5 630.5 q-16.5 -16.5 -44.5 -16.5 q-28 0 -44.5 16.5 q-16.5 16.5 -16.5 44.5 q0 28 16.5 44.5 q16.5 16.5 44.5 16.5 q28 0 44.5 -16.5 q16.5 -16.5 16.5 -44.5 q0 -28 -16.5 -44.5 ZM230 543 q94 0 138 -51.5 q44 -51.5 44 -154.5 l0 -337 l-108 0 l-8 50 q-34 -64 -115 -64 q-72 0 -115 46.5 q-43 46.5 -43 119.5 q0 83 55.5 126 q55.5 43 147.5 43 l49 0 l0 16 q0 38 -10.5 56.5 q-10.5 18.5 -36.5 18.5 q-46 0 -53 -47 l-137 0 q4 84 54.5 131 q50.5 47 137.5 47 ZM275 167 l0 39 l-46 0 q-67 0 -67 -54 q0 -22 12.5 -36 q12.5 -14 39.5 -14 q28 0 44.5 17.5 q16.5 17.5 16.5 47.5 Z" /><glyph glyph-name="aring" unicode="å" d="M299.5 631 q-25.5 -25 -66.5 -25 q-41 0 -66.5 25 q-25.5 25 -25.5 65 q0 39 25.5 63.5 q25.5 24.5 66.5 24.5 q41 0 66.5 -24.5 q25.5 -24.5 25.5 -63.5 q0 -40 -25.5 -65 ZM257 719 q-9 9 -24 9 q-15 0 -24 -9 q-9 -9 -9 -24 q0 -15 9 -24 q9 -9 24 -9 q15 0 24 9 q9 9 9 24 q0 15 -9 24 ZM230 543 q94 0 138 -51.5 q44 -51.5 44 -154.5 l0 -337 l-108 0 l-8 50 q-34 -64 -115 -64 q-72 0 -115 46.5 q-43 46.5 -43 119.5 q0 83 55.5 126 q55.5 43 147.5 43 l49 0 l0 16 q0 38 -10.5 56.5 q-10.5 18.5 -36.5 18.5 q-46 0 -53 -47 l-137 0 q4 84 54.5 131 q50.5 47 137.5 47 ZM275 167 l0 39 l-46 0 q-67 0 -67 -54 q0 -22 12.5 -36 q12.5 -14 39.5 -14 q28 0 44.5 17.5 q16.5 17.5 16.5 47.5 Z" /><glyph glyph-name="ae" unicode="æ" d="M530 167 l138 0 q-8 -85 -61 -132 q-53 -47 -141 -47 q-74 0 -127 57 q-45 -59 -158 -59 q-72 0 -115 46.5 q-43 46.5 -43 120.5 q0 82 56 124.5 q56 42.5 149 42.5 l51 0 l0 17 q0 38 -10.5 56.5 q-10.5 18.5 -38.5 18.5 q-48 0 -55 -47 l-137 0 q4 84 55 131 q51 47 139 47 q76 0 118 -49 q47 49 117 49 q92 0 143 -54 q51 -54 51 -151 l0 -120 l-249 0 l0 -21 q0 -79 56 -79 q29 0 42 11 q13 11 20 38 ZM412 340 l0 -29 l114 0 l0 29 q0 77 -58 77 q-56 0 -56 -77 ZM279 167 l0 42 l-48 0 q-32 0 -50.5 -14.5 q-18.5 -14.5 -18.5 -41.5 q0 -22 13.5 -36.5 q13.5 -14.5 40.5 -14.5 q29 0 46 17 q17 17 17 48 Z" /><glyph glyph-name="ccedilla" unicode="ç" d="M424 187 q-2 -82 -42.5 -133 q-40.5 -51 -112.5 -63 l-11 -38 l9 0 q33 0 53.5 -20.5 q20.5 -20.5 20.5 -54.5 q0 -43 -30.5 -69 q-30.5 -26 -79.5 -26 q-43 0 -75 25.5 q-32 25.5 -36 65.5 l71 0 q14 -27 40 -27 q34 0 34 34 q0 29 -33 29 q-20 0 -35 -8 l-20 20 l19 68 q-75 9 -116.5 60.5 q-41.5 51.5 -41.5 136.5 l0 158 q0 93 50 145.5 q50 52.5 139 52.5 q92 0 141 -51.5 q49 -51.5 52 -146.5 l-137 0 q-3 68 -53 68 q-54 0 -54 -68 l0 -158 q0 -69 54 -69 q52 0 57 69 l137 0 Z" /><glyph glyph-name="egrave" unicode="è" d="M314 609 l-94 0 l-93 137 l113 0 l74 -137 ZM292 169 l138 0 q-8 -86 -61 -133.5 q-53 -47.5 -141 -47.5 q-89 0 -139.5 55.5 q-50.5 55.5 -50.5 153.5 l0 141 q0 97 50.5 151 q50.5 54 140.5 54 q92 0 143 -54 q51 -54 51 -151 l0 -119 l-248 0 l0 -22 q0 -79 55 -79 q30 0 42.5 11.5 q12.5 11.5 19.5 39.5 ZM230 417 q-55 0 -55 -77 l0 -28 l113 0 l0 28 q0 77 -58 77 Z" /><glyph glyph-name="eacute" unicode="é" d="M351 746 l-93 -137 l-94 0 l74 137 l113 0 ZM292 169 l138 0 q-8 -86 -61 -133.5 q-53 -47.5 -141 -47.5 q-89 0 -139.5 55.5 q-50.5 55.5 -50.5 153.5 l0 141 q0 97 50.5 151 q50.5 54 140.5 54 q92 0 143 -54 q51 -54 51 -151 l0 -119 l-248 0 l0 -22 q0 -79 55 -79 q30 0 42.5 11.5 q12.5 11.5 19.5 39.5 ZM230 417 q-55 0 -55 -77 l0 -28 l113 0 l0 28 q0 77 -58 77 Z" /><glyph glyph-name="ecircumflex" unicode="ê" d="M230 676 l-44 -67 l-89 0 l81 137 l103 0 l81 -137 l-89 0 l-43 67 ZM292 169 l138 0 q-8 -86 -61 -133.5 q-53 -47.5 -141 -47.5 q-89 0 -139.5 55.5 q-50.5 55.5 -50.5 153.5 l0 141 q0 97 50.5 151 q50.5 54 140.5 54 q92 0 143 -54 q51 -54 51 -151 l0 -119 l-248 0 l0 -22 q0 -79 55 -79 q30 0 42.5 11.5 q12.5 11.5 19.5 39.5 ZM230 417 q-55 0 -55 -77 l0 -28 l113 0 l0 28 q0 77 -58 77 Z" /><glyph glyph-name="edieresis" unicode="ë" d="M193.5 630.5 q-16.5 -16.5 -44.5 -16.5 q-28 0 -44.5 16.5 q-16.5 16.5 -16.5 44.5 q0 28 16.5 44.5 q16.5 16.5 44.5 16.5 q28 0 44.5 -16.5 q16.5 -16.5 16.5 -44.5 q0 -28 -16.5 -44.5 ZM355.5 630.5 q-16.5 -16.5 -44.5 -16.5 q-28 0 -44.5 16.5 q-16.5 16.5 -16.5 44.5 q0 28 16.5 44.5 q16.5 16.5 44.5 16.5 q28 0 44.5 -16.5 q16.5 -16.5 16.5 -44.5 q0 -28 -16.5 -44.5 ZM292 169 l138 0 q-8 -86 -61 -133.5 q-53 -47.5 -141 -47.5 q-89 0 -139.5 55.5 q-50.5 55.5 -50.5 153.5 l0 141 q0 97 50.5 151 q50.5 54 140.5 54 q92 0 143 -54 q51 -54 51 -151 l0 -119 l-248 0 l0 -22 q0 -79 55 -79 q30 0 42.5 11.5 q12.5 11.5 19.5 39.5 ZM230 417 q-55 0 -55 -77 l0 -28 l113 0 l0 28 q0 77 -58 77 Z" /><glyph glyph-name="igrave" unicode="ì" d="M16 746 l113 0 l74 -137 l-94 0 l-93 137 ZM50 0 l0 530 l137 0 l0 -530 l-137 0 Z" /><glyph glyph-name="iacute" unicode="í" d="M240 746 l-93 -137 l-94 0 l74 137 l113 0 ZM50 0 l0 530 l137 0 l0 -530 l-137 0 Z" /><glyph glyph-name="icircumflex" unicode="î" d="M121 675 l-42 -66 l-87 0 l79 137 l99 0 l79 -137 l-87 0 l-41 66 ZM52 0 l0 530 l137 0 l0 -530 l-137 0 Z" /><glyph glyph-name="idieresis" unicode="ï" d="M58 616 q-26 0 -42 16 q-16 16 -16 43 q0 27 16 43 q16 16 42 16 q27 0 43 -16 q16 -16 16 -43 q0 -27 -16 -43 q-16 -16 -43 -16 ZM208 616 q-27 0 -43 16 q-16 16 -16 43 q0 27 16 43 q16 16 43 16 q26 0 42 -16 q16 -16 16 -43 q0 -27 -16 -43 q-16 -16 -42 -16 ZM64 0 l0 530 l137 0 l0 -530 l-137 0 Z" /><glyph glyph-name="eth" unicode="ð" d="M360 623 q71 -100 72 -266 l0 -158 q0 -101 -52 -156 q-52 -55 -145 -55 q-93 0 -145 55 q-52 55 -52 156 l0 94 q0 101 49 155.5 q49 54.5 138 54.5 q27 0 54 -11 q-14 42 -38 72 l-68 -33 l-19 42 l53 26 q-26 22 -64 36 l50 105 q84 -25 137 -81 l59 29 l19 -42 l-48 -23 ZM293 199 l0 94 q0 78 -58 78 q-58 0 -58 -78 l0 -94 q0 -79 58 -79 q58 0 58 79 Z" /><glyph glyph-name="ntilde" unicode="ñ" d="M207 639 q-24 0 -28 -25 l-77 0 q3 51 28 78.5 q25 27.5 63 27.5 q24 0 46.5 -14 q22.5 -14 31.5 -14 q23 0 28 25 l77 0 q-3 -49 -28 -77.5 q-25 -28.5 -63 -28.5 q-23 0 -45.5 14 q-22.5 14 -32.5 14 ZM275 543 q74 0 115 -55.5 q41 -55.5 41 -162.5 l0 -325 l-137 0 l0 325 q0 88 -51 88 q-57 0 -57 -78 l0 -335 l-136 0 l0 530 l90 0 l10 -54 q41 67 125 67 Z" /><glyph glyph-name="ograve" unicode="ò" d="M132 746 l113 0 l74 -137 l-94 0 l-93 137 ZM380 42 q-52 -55 -145 -55 q-93 0 -145 55 q-52 55 -52 156 l0 135 q0 101 52 155.5 q52 54.5 145 54.5 q93 0 145 -54.5 q52 -54.5 52 -155.5 l0 -135 q0 -101 -52 -156 ZM177 198 q0 -79 58 -79 q58 0 58 79 l0 135 q0 78 -58 78 q-58 0 -58 -78 l0 -135 Z" /><glyph glyph-name="oacute" unicode="ó" d="M356 746 l-93 -137 l-94 0 l74 137 l113 0 ZM380 42 q-52 -55 -145 -55 q-93 0 -145 55 q-52 55 -52 156 l0 135 q0 101 52 155.5 q52 54.5 145 54.5 q93 0 145 -54.5 q52 -54.5 52 -155.5 l0 -135 q0 -101 -52 -156 ZM177 198 q0 -79 58 -79 q58 0 58 79 l0 135 q0 78 -58 78 q-58 0 -58 -78 l0 -135 Z" /><glyph glyph-name="ocircumflex" unicode="ô" d="M235 676 l-44 -67 l-89 0 l81 137 l103 0 l81 -137 l-89 0 l-43 67 ZM90 488.5 q52 54.5 145 54.5 q93 0 145 -54.5 q52 -54.5 52 -155.5 l0 -135 q0 -101 -52 -156 q-52 -55 -145 -55 q-93 0 -145 55 q-52 55 -52 156 l0 135 q0 101 52 155.5 ZM293 198 l0 135 q0 78 -58 78 q-58 0 -58 -78 l0 -135 q0 -79 58 -79 q58 0 58 79 Z" /><glyph glyph-name="otilde" unicode="õ" d="M203 639 q-24 0 -28 -25 l-77 0 q3 51 28 78.5 q25 27.5 63 27.5 q24 0 46.5 -14 q22.5 -14 31.5 -14 q23 0 28 25 l77 0 q-3 -49 -28 -77.5 q-25 -28.5 -63 -28.5 q-23 0 -45.5 14 q-22.5 14 -32.5 14 ZM380 42 q-52 -55 -145 -55 q-93 0 -145 55 q-52 55 -52 156 l0 135 q0 101 52 155.5 q52 54.5 145 54.5 q93 0 145 -54.5 q52 -54.5 52 -155.5 l0 -135 q0 -101 -52 -156 ZM177 198 q0 -79 58 -79 q58 0 58 79 l0 135 q0 78 -58 78 q-58 0 -58 -78 l0 -135 Z" /><glyph glyph-name="odieresis" unicode="ö" d="M198.5 630.5 q-16.5 -16.5 -44.5 -16.5 q-28 0 -44.5 16.5 q-16.5 16.5 -16.5 44.5 q0 28 16.5 44.5 q16.5 16.5 44.5 16.5 q28 0 44.5 -16.5 q16.5 -16.5 16.5 -44.5 q0 -28 -16.5 -44.5 ZM360.5 630.5 q-16.5 -16.5 -44.5 -16.5 q-28 0 -44.5 16.5 q-16.5 16.5 -16.5 44.5 q0 28 16.5 44.5 q16.5 16.5 44.5 16.5 q28 0 44.5 -16.5 q16.5 -16.5 16.5 -44.5 q0 -28 -16.5 -44.5 ZM380 42 q-52 -55 -145 -55 q-93 0 -145 55 q-52 55 -52 156 l0 135 q0 101 52 155.5 q52 54.5 145 54.5 q93 0 145 -54.5 q52 -54.5 52 -155.5 l0 -135 q0 -101 -52 -156 ZM177 198 q0 -79 58 -79 q58 0 58 79 l0 135 q0 78 -58 78 q-58 0 -58 -78 l0 -135 Z" /><glyph glyph-name="divide" unicode="÷" d="M293.5 412.5 q-19.5 -19.5 -51.5 -19.5 q-32 0 -51.5 19.5 q-19.5 19.5 -19.5 51.5 q0 32 19.5 51.5 q19.5 19.5 51.5 19.5 q32 0 51.5 -19.5 q19.5 -19.5 19.5 -51.5 q0 -32 -19.5 -51.5 ZM40 244 l0 115 l400 0 l0 -115 l-400 0 ZM293.5 82.5 q-19.5 -19.5 -51.5 -19.5 q-32 0 -51.5 19.5 q-19.5 19.5 -19.5 51.5 q0 32 19.5 51.5 q19.5 19.5 51.5 19.5 q32 0 51.5 -19.5 q19.5 -19.5 19.5 -51.5 q0 -32 -19.5 -51.5 Z" /><glyph glyph-name="oslash" unicode="ø" d="M362 499 q63 -54 63 -166 l0 -134 q0 -101 -52 -156 q-52 -55 -145 -55 q-31 0 -58 6 l-26 -68 l-86 0 l39 103 q-66 55 -66 170 l0 134 q0 101 52 155.5 q52 54.5 145 54.5 q35 0 62 -7 l28 72 l86 0 l-42 -109 ZM286 199 l0 134 q0 78 -58 78 q-58 0 -58 -78 l0 -134 q0 -79 58 -79 q58 0 58 79 Z" /><glyph glyph-name="ugrave" unicode="ù" d="M318 609 l-94 0 l-93 137 l113 0 l74 -137 ZM290 530 l136 0 l0 -530 l-90 0 l-10 54 q-41 -67 -125 -67 q-74 0 -115 55.5 q-41 55.5 -41 162.5 l0 325 l137 0 l0 -325 q0 -88 51 -88 q57 0 57 78 l0 335 Z" /><glyph glyph-name="uacute" unicode="ú" d="M355 746 l-93 -137 l-94 0 l74 137 l113 0 ZM290 530 l136 0 l0 -530 l-90 0 l-10 54 q-41 -67 -125 -67 q-74 0 -115 55.5 q-41 55.5 -41 162.5 l0 325 l137 0 l0 -325 q0 -88 51 -88 q57 0 57 78 l0 335 Z" /><glyph glyph-name="ucircumflex" unicode="û" d="M234 676 l-44 -67 l-89 0 l81 137 l103 0 l81 -137 l-89 0 l-43 67 ZM290 530 l136 0 l0 -530 l-90 0 l-10 54 q-41 -67 -125 -67 q-74 0 -115 55.5 q-41 55.5 -41 162.5 l0 325 l137 0 l0 -325 q0 -88 51 -88 q57 0 57 78 l0 335 Z" /><glyph glyph-name="udieresis" unicode="ü" d="M197.5 630.5 q-16.5 -16.5 -44.5 -16.5 q-28 0 -44.5 16.5 q-16.5 16.5 -16.5 44.5 q0 28 16.5 44.5 q16.5 16.5 44.5 16.5 q28 0 44.5 -16.5 q16.5 -16.5 16.5 -44.5 q0 -28 -16.5 -44.5 ZM359.5 630.5 q-16.5 -16.5 -44.5 -16.5 q-28 0 -44.5 16.5 q-16.5 16.5 -16.5 44.5 q0 28 16.5 44.5 q16.5 16.5 44.5 16.5 q28 0 44.5 -16.5 q16.5 -16.5 16.5 -44.5 q0 -28 -16.5 -44.5 ZM290 530 l136 0 l0 -530 l-90 0 l-10 54 q-41 -67 -125 -67 q-74 0 -115 55.5 q-41 55.5 -41 162.5 l0 325 l137 0 l0 -325 q0 -88 51 -88 q57 0 57 78 l0 335 Z" /><glyph glyph-name="yacute" unicode="ý" d="M344 749 l-93 -137 l-94 0 l74 137 l113 0 ZM309 530 l139 0 l-159 -546 q-50 -172 -159 -172 l-70 0 l0 131 l40 0 q25 0 37 15 q12 15 23 51 l13 45 l-173 476 l142 0 l87 -281 l80 281 Z" /><glyph glyph-name="thorn" unicode="þ" d="M263 558 q77 0 124.5 -57 q47.5 -57 47.5 -151 l0 -155 q0 -94 -47.5 -151 q-47.5 -57 -124.5 -57 q-43 0 -80 29 l0 -196 l-133 0 l0 905 l133 0 l0 -196 q37 29 80 29 ZM296 195 l0 155 q0 78 -53 78 q-60 0 -60 -78 l0 -155 q0 -78 60 -78 q53 0 53 78 Z" /><glyph glyph-name="ydieresis" unicode="ÿ" d="M186.5 633.5 q-16.5 -16.5 -44.5 -16.5 q-28 0 -44.5 16.5 q-16.5 16.5 -16.5 44.5 q0 28 16.5 44.5 q16.5 16.5 44.5 16.5 q28 0 44.5 -16.5 q16.5 -16.5 16.5 -44.5 q0 -28 -16.5 -44.5 ZM348.5 633.5 q-16.5 -16.5 -44.5 -16.5 q-28 0 -44.5 16.5 q-16.5 16.5 -16.5 44.5 q0 28 16.5 44.5 q16.5 16.5 44.5 16.5 q28 0 44.5 -16.5 q16.5 -16.5 16.5 -44.5 q0 -28 -16.5 -44.5 ZM309 530 l139 0 l-159 -546 q-50 -172 -159 -172 l-70 0 l0 131 l40 0 q25 0 37 15 q12 15 23 51 l13 45 l-173 476 l142 0 l87 -281 l80 281 Z" /><glyph glyph-name="Amacron" unicode="&#x100;" d="M361 876 l0 -87 l-220 0 l0 87 l220 0 ZM344 0 l-23 116 l-148 0 l-23 -116 l-147 0 l168 700 l152 0 l168 -700 l-147 0 ZM201 251 l92 0 l-16 80 q-14 77 -28 192 l-4 0 q-17 -135 -28 -192 l-16 -80 Z" /><glyph glyph-name="amacron" unicode="&#x101;" d="M342 719 l0 -87 l-220 0 l0 87 l220 0 ZM230 543 q94 0 138 -51.5 q44 -51.5 44 -154.5 l0 -337 l-108 0 l-8 50 q-34 -64 -115 -64 q-72 0 -115 46.5 q-43 46.5 -43 119.5 q0 83 55.5 126 q55.5 43 147.5 43 l49 0 l0 16 q0 38 -10.5 56.5 q-10.5 18.5 -36.5 18.5 q-46 0 -53 -47 l-137 0 q4 84 54.5 131 q50.5 47 137.5 47 ZM275 167 l0 39 l-46 0 q-67 0 -67 -54 q0 -22 12.5 -36 q12.5 -14 39.5 -14 q28 0 44.5 17.5 q16.5 17.5 16.5 47.5 Z" /><glyph glyph-name="Abreve" unicode="&#x102;" d="M251 770 q-55 0 -91 33.5 q-36 33.5 -38 90.5 l87 0 q0 -19 12 -30 q12 -11 29 -11 q17 0 29 11 q12 11 12 30 l87 0 q-2 -59 -37.5 -91.5 q-35.5 -32.5 -89.5 -32.5 ZM344 0 l-23 116 l-148 0 l-23 -116 l-147 0 l168 700 l152 0 l168 -700 l-147 0 ZM201 251 l92 0 l-16 80 q-14 77 -28 192 l-4 0 q-17 -135 -28 -192 l-16 -80 Z" /><glyph glyph-name="abreve" unicode="&#x103;" d="M234 612 q-55 0 -91 33.5 q-36 33.5 -38 90.5 l87 0 q0 -19 12 -30 q12 -11 29 -11 q17 0 29 11 q12 11 12 30 l87 0 q-2 -59 -37.5 -91.5 q-35.5 -32.5 -89.5 -32.5 ZM230 543 q94 0 138 -51.5 q44 -51.5 44 -154.5 l0 -337 l-108 0 l-8 50 q-34 -64 -115 -64 q-72 0 -115 46.5 q-43 46.5 -43 119.5 q0 83 55.5 126 q55.5 43 147.5 43 l49 0 l0 16 q0 38 -10.5 56.5 q-10.5 18.5 -36.5 18.5 q-46 0 -53 -47 l-137 0 q4 84 54.5 131 q50.5 47 137.5 47 ZM275 167 l0 39 l-46 0 q-67 0 -67 -54 q0 -22 12.5 -36 q12.5 -14 39.5 -14 q28 0 44.5 17.5 q16.5 17.5 16.5 47.5 Z" /><glyph glyph-name="Aogonek" unicode="&#x104;" d="M444 -93 q15 0 27 3 l1 -91 q-28 -13 -83 -13 q-47 0 -73.5 22.5 q-26.5 22.5 -26.5 62.5 q0 61 55 109 l-23 116 l-148 0 l-23 -116 l-147 0 l168 700 l152 0 l168 -700 l-32 0 q-21 -15 -33.5 -34.5 q-12.5 -19.5 -12.5 -33.5 q0 -25 31 -25 ZM201 251 l92 0 l-16 80 q-14 77 -28 192 l-4 0 q-17 -135 -28 -192 l-16 -80 Z" /><glyph glyph-name="aogonek" unicode="&#x105;" d="M341 -194 q-50 0 -74 24 q-24 24 -24 65 q0 58 64 105 l-8 50 q-34 -64 -118 -64 q-72 0 -115 46.5 q-43 46.5 -43 119.5 q0 83 56 126 q56 43 149 43 l50 0 l0 16 q0 38 -10.5 56.5 q-10.5 18.5 -37.5 18.5 q-48 0 -55 -47 l-137 0 q4 84 55 131 q51 47 139 47 q94 0 138.5 -51.5 q44.5 -51.5 44.5 -154.5 l0 -337 q-58 -36 -58 -73 q0 -22 27 -22 q15 0 32 5 l0 -92 q-30 -12 -75 -12 ZM216 102 q29 0 45.5 17 q16.5 17 16.5 48 l0 39 l-47 0 q-69 0 -69 -54 q0 -21 13.5 -35.5 q13.5 -14.5 40.5 -14.5 Z" /><glyph glyph-name="Cacute" unicode="&#x106;" d="M185 767 l94 137 l113 0 l-113 -137 l-94 0 ZM258 -12 q-103 0 -159.5 58.5 q-56.5 58.5 -56.5 167.5 l0 272 q0 110 57 169 q57 59 160 59 q105 0 162 -58.5 q57 -58.5 61 -169.5 l-142 0 q-3 48 -22 69 q-19 21 -60 21 q-68 0 -68 -90 l0 -272 q0 -88 68 -88 q41 0 61 21 q20 21 23 67 l142 0 q-2 -110 -60.5 -168 q-58.5 -58 -165.5 -58 Z" /><glyph glyph-name="cacute" unicode="&#x107;" d="M354 746 l-93 -137 l-94 0 l74 137 l113 0 ZM227 -12 q-89 0 -139 52.5 q-50 52.5 -50 146.5 l0 158 q0 93 50 145.5 q50 52.5 139 52.5 q92 0 141 -51.5 q49 -51.5 52 -146.5 l-137 0 q-3 68 -53 68 q-54 0 -54 -68 l0 -158 q0 -69 54 -69 q52 0 57 69 l137 0 q-2 -94 -54 -146.5 q-52 -52.5 -143 -52.5 Z" /><glyph glyph-name="Cdotaccent" unicode="&#x10a;" d="M254 762 q-33 0 -54 21.5 q-21 21.5 -21 53.5 q0 32 21 53.5 q21 21.5 54 21.5 q32 0 53.5 -21.5 q21.5 -21.5 21.5 -53.5 q0 -30 -22 -52.5 q-22 -22.5 -53 -22.5 ZM258 -12 q-103 0 -159.5 58.5 q-56.5 58.5 -56.5 167.5 l0 272 q0 110 57 169 q57 59 160 59 q105 0 162 -58.5 q57 -58.5 61 -169.5 l-142 0 q-3 48 -22 69 q-19 21 -60 21 q-68 0 -68 -90 l0 -272 q0 -88 68 -88 q41 0 61 21 q20 21 23 67 l142 0 q-2 -110 -60.5 -168 q-58.5 -58 -165.5 -58 Z" /><glyph glyph-name="cdotaccent" unicode="&#x10b;" d="M233 608 q-33 0 -54 21.5 q-21 21.5 -21 53.5 q0 32 21 53.5 q21 21.5 54 21.5 q32 0 53.5 -21.5 q21.5 -21.5 21.5 -53.5 q0 -30 -22 -52.5 q-22 -22.5 -53 -22.5 ZM227 -12 q-89 0 -139 52.5 q-50 52.5 -50 146.5 l0 158 q0 93 50 145.5 q50 52.5 139 52.5 q92 0 141 -51.5 q49 -51.5 52 -146.5 l-137 0 q-3 68 -53 68 q-54 0 -54 -68 l0 -158 q0 -69 54 -69 q52 0 57 69 l137 0 q-2 -94 -54 -146.5 q-52 -52.5 -143 -52.5 Z" /><glyph glyph-name="Ccaron" unicode="&#x10c;" d="M307 767 l-103 0 l-81 137 l89 0 l44 -67 l43 67 l89 0 l-81 -137 ZM342 214 l142 0 q-2 -110 -60.5 -168 q-58.5 -58 -165.5 -58 q-103 0 -159.5 58.5 q-56.5 58.5 -56.5 167.5 l0 272 q0 110 57 169 q57 59 160 59 q105 0 162 -58.5 q57 -58.5 61 -169.5 l-142 0 q-3 48 -22 69 q-19 21 -60 21 q-68 0 -68 -90 l0 -272 q0 -88 68 -88 q41 0 61 21 q20 21 23 67 Z" /><glyph glyph-name="ccaron" unicode="&#x10d;" d="M284 609 l-103 0 l-81 137 l89 0 l44 -67 l43 67 l89 0 l-81 -137 ZM287 187 l137 0 q-2 -94 -54 -146.5 q-52 -52.5 -143 -52.5 q-89 0 -139 52.5 q-50 52.5 -50 146.5 l0 158 q0 93 50 145.5 q50 52.5 139 52.5 q92 0 141 -51.5 q49 -51.5 52 -146.5 l-137 0 q-3 68 -53 68 q-54 0 -54 -68 l0 -158 q0 -69 54 -69 q52 0 57 69 Z" /><glyph glyph-name="Dcaron" unicode="&#x10e;" d="M306 767 l-103 0 l-81 137 l89 0 l44 -67 l43 67 l89 0 l-81 -137 ZM254 700 q106 0 165 -61 q59 -61 59 -171 l0 -231 q0 -112 -58.5 -174.5 q-58.5 -62.5 -163.5 -62.5 l-194 0 l0 700 l192 0 ZM334 237 l0 231 q0 97 -78 97 l-52 0 l0 -430 l52 0 q78 0 78 102 Z" /><glyph glyph-name="dcaron" unicode="&#x10f;" d="M492 780 l114 0 l-52 -201 l-79 0 l17 201 ZM290 514 l0 211 l133 0 l0 -726 l-93 0 l-6 47 q-51 -58 -114 -58 q-78 0 -125 57.5 q-47 57.5 -47 151.5 l0 138 q0 94 47.5 151 q47.5 57 124.5 57 q43 0 80 -29 ZM290 197 l0 138 q0 78 -60 78 q-53 0 -53 -78 l0 -138 q0 -79 53 -79 q60 0 60 79 Z" /><glyph glyph-name="Dcroat" unicode="&#x110;" d="M252 700 q108 0 171 -56 q63 -56 63 -156 l0 -271 q0 -103 -62.5 -160 q-62.5 -57 -169.5 -57 l-186 0 l0 317 l-63 0 l0 83 l63 0 l0 300 l184 0 ZM340 217 l0 271 q0 43 -19.5 60 q-19.5 17 -58.5 17 l-52 0 l0 -165 l69 0 l0 -83 l-69 0 l0 -182 l52 0 q40 0 59 17.5 q19 17.5 19 64.5 Z" /><glyph glyph-name="dcroat" unicode="&#x111;" d="M493 652 l0 -66 l-70 0 l0 -587 l-93 0 l-6 47 q-51 -58 -114 -58 q-78 0 -125 57.5 q-47 57.5 -47 151.5 l0 138 q0 94 47.5 151 q47.5 57 124.5 57 q43 0 80 -29 l0 72 l-101 0 l0 66 l101 0 l0 73 l133 0 l0 -73 l70 0 ZM290 197 l0 138 q0 78 -60 78 q-53 0 -53 -78 l0 -138 q0 -79 53 -79 q60 0 60 79 Z" /><glyph glyph-name="Emacron" unicode="&#x112;" d="M350 876 l0 -87 l-220 0 l0 87 l220 0 ZM204 135 l229 0 l0 -135 l-371 0 l0 700 l361 0 l0 -135 l-219 0 l0 -145 l199 0 l0 -130 l-199 0 l0 -155 Z" /><glyph glyph-name="emacron" unicode="&#x113;" d="M339 719 l0 -87 l-220 0 l0 87 l220 0 ZM292 169 l138 0 q-8 -86 -61 -133.5 q-53 -47.5 -141 -47.5 q-89 0 -139.5 55.5 q-50.5 55.5 -50.5 153.5 l0 141 q0 97 50.5 151 q50.5 54 140.5 54 q92 0 143 -54 q51 -54 51 -151 l0 -119 l-248 0 l0 -22 q0 -79 55 -79 q30 0 42.5 11.5 q12.5 11.5 19.5 39.5 ZM230 417 q-55 0 -55 -77 l0 -28 l113 0 l0 28 q0 77 -58 77 Z" /><glyph glyph-name="Edotaccent" unicode="&#x116;" d="M236 762 q-33 0 -54 21.5 q-21 21.5 -21 53.5 q0 32 21 53.5 q21 21.5 54 21.5 q32 0 53.5 -21.5 q21.5 -21.5 21.5 -53.5 q0 -30 -22 -52.5 q-22 -22.5 -53 -22.5 ZM204 135 l229 0 l0 -135 l-371 0 l0 700 l361 0 l0 -135 l-219 0 l0 -145 l199 0 l0 -130 l-199 0 l0 -155 Z" /><glyph glyph-name="edotaccent" unicode="&#x117;" d="M230 608 q-33 0 -54 21.5 q-21 21.5 -21 53.5 q0 32 21 53.5 q21 21.5 54 21.5 q32 0 53.5 -21.5 q21.5 -21.5 21.5 -53.5 q0 -30 -22 -52.5 q-22 -22.5 -53 -22.5 ZM292 169 l138 0 q-8 -86 -61 -133.5 q-53 -47.5 -141 -47.5 q-89 0 -139.5 55.5 q-50.5 55.5 -50.5 153.5 l0 141 q0 97 50.5 151 q50.5 54 140.5 54 q92 0 143 -54 q51 -54 51 -151 l0 -119 l-248 0 l0 -22 q0 -79 55 -79 q30 0 42.5 11.5 q12.5 11.5 19.5 39.5 ZM230 417 q-55 0 -55 -77 l0 -28 l113 0 l0 28 q0 77 -58 77 Z" /><glyph glyph-name="Eogonek" unicode="&#x118;" d="M433 -90 l1 -91 q-28 -13 -83 -13 q-47 0 -73.5 22.5 q-26.5 22.5 -26.5 62.5 q0 61 68 109 l-257 0 l0 700 l361 0 l0 -135 l-219 0 l0 -145 l199 0 l0 -130 l-199 0 l0 -155 l229 0 l0 -135 q-27 -15 -42.5 -34.5 q-15.5 -19.5 -15.5 -33.5 q0 -25 31 -25 q15 0 27 3 Z" /><glyph glyph-name="eogonek" unicode="&#x119;" d="M301 -194 q-47 0 -73.5 22.5 q-26.5 22.5 -26.5 63.5 q0 53 60 98 l0 2 q-14 -4 -33 -4 q-89 0 -139.5 55.5 q-50.5 55.5 -50.5 153.5 l0 141 q0 97 50.5 151 q50.5 54 140.5 54 q92 0 143 -54 q51 -54 51 -151 l0 -119 l-248 0 l0 -22 q0 -79 55 -79 q29 0 42 11.5 q13 11.5 20 40.5 l138 0 q-4 -38 -21 -76 q-17 -38 -40 -60 q-56 -54 -56 -91 q0 -36 38 -36 q21 0 33 3 l0 -91 q-35 -13 -83 -13 ZM175 312 l113 0 l0 28 q0 77 -58 77 q-55 0 -55 -77 l0 -28 Z" /><glyph glyph-name="Ecaron" unicode="&#x11a;" d="M289 767 l-103 0 l-81 137 l89 0 l44 -67 l43 67 l89 0 l-81 -137 ZM204 135 l229 0 l0 -135 l-371 0 l0 700 l361 0 l0 -135 l-219 0 l0 -145 l199 0 l0 -130 l-199 0 l0 -155 Z" /><glyph glyph-name="ecaron" unicode="&#x11b;" d="M281 609 l-103 0 l-81 137 l89 0 l44 -67 l43 67 l89 0 l-81 -137 ZM292 169 l138 0 q-8 -86 -61 -133.5 q-53 -47.5 -141 -47.5 q-89 0 -139.5 55.5 q-50.5 55.5 -50.5 153.5 l0 141 q0 97 50.5 151 q50.5 54 140.5 54 q92 0 143 -54 q51 -54 51 -151 l0 -119 l-248 0 l0 -22 q0 -79 55 -79 q30 0 42.5 11.5 q12.5 11.5 19.5 39.5 ZM230 417 q-55 0 -55 -77 l0 -28 l113 0 l0 28 q0 77 -58 77 Z" /><glyph glyph-name="Gbreve" unicode="&#x11e;" d="M265 770 q-55 0 -91 33.5 q-36 33.5 -38 90.5 l87 0 q0 -19 12 -30 q12 -11 29 -11 q17 0 29 11 q12 11 12 30 l87 0 q-2 -59 -37.5 -91.5 q-35.5 -32.5 -89.5 -32.5 ZM263 -12 q-105 0 -163 58.5 q-58 58.5 -58 167.5 l0 272 q0 109 58 167.5 q58 58.5 164 58.5 q101 0 155.5 -58 q54.5 -58 58.5 -168 l-142 0 q-2 48 -18.5 68.5 q-16.5 20.5 -53.5 20.5 q-74 0 -74 -89 l0 -272 q0 -89 75 -89 q39 0 58 21 q19 21 19 68 l0 50 l-84 0 l0 126 l224 0 l0 -176 q-3 -110 -59.5 -168 q-56.5 -58 -159.5 -58 Z" /><glyph glyph-name="gbreve" unicode="&#x11f;" d="M235 612 q-55 0 -91 33.5 q-36 33.5 -38 90.5 l87 0 q0 -19 12 -30 q12 -11 29 -11 q17 0 29 11 q12 11 12 30 l87 0 q-2 -59 -37.5 -91.5 q-35.5 -32.5 -89.5 -32.5 ZM334 530 l93 0 l0 -547 q0 -81 -49.5 -129 q-49.5 -48 -137.5 -48 q-86 0 -134.5 47.5 q-48.5 47.5 -50.5 129.5 l135 0 q5 -50 50 -50 q23 0 35.5 13.5 q12.5 13.5 12.5 36.5 l0 66 q-36 -22 -80 -22 q-73 0 -121.5 56 q-48.5 56 -48.5 142 l0 118 q0 87 48 143.5 q48 56.5 122 56.5 q71 0 117 -44 l9 31 ZM230 156 q58 0 58 69 l0 118 q0 68 -58 68 q-54 0 -54 -68 l0 -118 q0 -69 54 -69 Z" /><glyph glyph-name="Gdotaccent" unicode="&#x120;" d="M261 762 q-33 0 -54 21.5 q-21 21.5 -21 53.5 q0 32 21 53.5 q21 21.5 54 21.5 q32 0 53.5 -21.5 q21.5 -21.5 21.5 -53.5 q0 -30 -22 -52.5 q-22 -22.5 -53 -22.5 ZM263 -12 q-105 0 -163 58.5 q-58 58.5 -58 167.5 l0 272 q0 109 58 167.5 q58 58.5 164 58.5 q101 0 155.5 -58 q54.5 -58 58.5 -168 l-142 0 q-2 48 -18.5 68.5 q-16.5 20.5 -53.5 20.5 q-74 0 -74 -89 l0 -272 q0 -89 75 -89 q39 0 58 21 q19 21 19 68 l0 50 l-84 0 l0 126 l224 0 l0 -176 q-3 -110 -59.5 -168 q-56.5 -58 -159.5 -58 Z" /><glyph glyph-name="gdotaccent" unicode="&#x121;" d="M234 608 q-33 0 -54 21.5 q-21 21.5 -21 53.5 q0 32 21 53.5 q21 21.5 54 21.5 q32 0 53.5 -21.5 q21.5 -21.5 21.5 -53.5 q0 -30 -22 -52.5 q-22 -22.5 -53 -22.5 ZM334 530 l93 0 l0 -547 q0 -81 -49.5 -129 q-49.5 -48 -137.5 -48 q-86 0 -134.5 47.5 q-48.5 47.5 -50.5 129.5 l135 0 q5 -50 50 -50 q23 0 35.5 13.5 q12.5 13.5 12.5 36.5 l0 66 q-36 -22 -80 -22 q-73 0 -121.5 56 q-48.5 56 -48.5 142 l0 118 q0 87 48 143.5 q48 56.5 122 56.5 q71 0 117 -44 l9 31 ZM230 156 q58 0 58 69 l0 118 q0 68 -58 68 q-54 0 -54 -68 l0 -118 q0 -69 54 -69 Z" /><glyph glyph-name="Gcommaaccent" unicode="&#x122;" d="M263 -12 q-105 0 -163 58.5 q-58 58.5 -58 167.5 l0 272 q0 109 58 167.5 q58 58.5 164 58.5 q101 0 155.5 -58 q54.5 -58 58.5 -168 l-142 0 q-2 48 -18.5 68.5 q-16.5 20.5 -53.5 20.5 q-74 0 -74 -89 l0 -272 q0 -89 75 -89 q39 0 58 21 q19 21 19 68 l0 50 l-84 0 l0 126 l224 0 l0 -176 q-3 -110 -59.5 -168 q-56.5 -58 -159.5 -58 ZM194 -281 l16 209 l114 0 l-51 -209 l-79 0 Z" /><glyph glyph-name="gcommaaccent" unicode="&#x123;" d="M286 601 l-127 0 l-17 216 l84 0 l60 -216 ZM334 530 l93 0 l0 -547 q0 -81 -49.5 -129 q-49.5 -48 -137.5 -48 q-86 0 -134.5 47.5 q-48.5 47.5 -50.5 129.5 l135 0 q5 -50 50 -50 q23 0 35.5 13.5 q12.5 13.5 12.5 36.5 l0 66 q-36 -22 -80 -22 q-73 0 -121.5 56 q-48.5 56 -48.5 142 l0 118 q0 87 48 143.5 q48 56.5 122 56.5 q71 0 117 -44 l9 31 ZM230 156 q58 0 58 69 l0 118 q0 68 -58 68 q-54 0 -54 -68 l0 -118 q0 -69 54 -69 Z" /><glyph glyph-name="Hbar" unicode="&#x126;" d="M574 587 l0 -66 l-65 0 l0 -521 l-143 0 l0 285 l-144 0 l0 -285 l-143 0 l0 521 l-65 0 l0 66 l65 0 l0 113 l143 0 l0 -113 l144 0 l0 113 l143 0 l0 -113 l65 0 ZM366 420 l0 101 l-144 0 l0 -101 l144 0 Z" /><glyph glyph-name="hbar" unicode="&#x127;" d="M280 543 q71 0 110.5 -55.5 q39.5 -55.5 39.5 -162.5 l0 -325 l-137 0 l0 325 q0 88 -51 88 q-57 0 -57 -78 l0 -335 l-136 0 l0 599 l-63 0 l0 66 l63 0 l0 60 l136 0 l0 -60 l91 0 l0 -66 l-91 0 l0 -106 q39 50 95 50 Z" /><glyph glyph-name="Imacron" unicode="&#x12a;" d="M28 876 l220 0 l0 -87 l-220 0 l0 87 ZM62 700 l142 0 l0 -700 l-142 0 l0 700 Z" /><glyph glyph-name="imacron" unicode="&#x12b;" d="M19 720 l195 0 l0 -90 l-195 0 l0 90 ZM48 0 l0 530 l137 0 l0 -530 l-137 0 Z" /><glyph glyph-name="Iogonek" unicode="&#x12e;" d="M190 -92 q16 0 29 3 l0 -91 q-39 -14 -87 -14 q-106 0 -106 91 q0 28 16.5 56.5 q16.5 28.5 43.5 46.5 l-23 0 l0 700 l142 0 l0 -700 l-24 0 q-34 -31 -34 -66 q0 -26 43 -26 Z" /><glyph glyph-name="iogonek" unicode="&#x12f;" d="M112 608 q-33 0 -54 21.5 q-21 21.5 -21 53.5 q0 32 21 53.5 q21 21.5 54 21.5 q32 0 53.5 -21.5 q21.5 -21.5 21.5 -53.5 q0 -30 -22 -52.5 q-22 -22.5 -53 -22.5 ZM167 -93 q15 0 28 3 l0 -91 q-28 -13 -92 -13 q-47 0 -73.5 22.5 q-26.5 22.5 -26.5 62.5 q0 61 40 109 l0 530 l137 0 l0 -530 l-28 0 q-26 -31 -26 -66 q0 -27 41 -27 Z" /><glyph glyph-name="Idotaccent" unicode="&#x130;" d="M134 762 q-33 0 -54 21.5 q-21 21.5 -21 53.5 q0 32 21 53.5 q21 21.5 54 21.5 q32 0 53.5 -21.5 q21.5 -21.5 21.5 -53.5 q0 -30 -22 -52.5 q-22 -22.5 -53 -22.5 ZM62 700 l142 0 l0 -700 l-142 0 l0 700 Z" /><glyph glyph-name="dotlessi" unicode="&#x131;" d="M50 0 l0 530 l137 0 l0 -530 l-137 0 Z" /><glyph glyph-name="Kcommaaccent" unicode="&#x136;" d="M320 394 l208 -394 l-160 0 l-127 265 l-39 -63 l0 -202 l-140 0 l0 700 l140 0 l0 -268 l36 78 l98 190 l162 0 l-178 -306 ZM183 -281 l16 209 l114 0 l-51 -209 l-79 0 Z" /><glyph glyph-name="kcommaaccent" unicode="&#x137;" d="M300 320 l163 -320 l-152 0 l-101 213 l-25 -25 l0 -188 l-135 0 l0 725 l135 0 l0 -358 l98 163 l157 0 l-140 -210 ZM161 -281 l16 209 l114 0 l-51 -209 l-79 0 Z" /><glyph glyph-name="Lacute" unicode="&#x139;" d="M284 904 l-113 -137 l-94 0 l94 137 l113 0 ZM204 135 l208 0 l0 -135 l-350 0 l0 700 l142 0 l0 -565 Z" /><glyph glyph-name="lacute" unicode="&#x13a;" d="M43 767 l94 137 l113 0 l-113 -137 l-94 0 ZM43 0 l0 725 l136 0 l0 -725 l-136 0 Z" /><glyph glyph-name="Lcommaaccent" unicode="&#x13b;" d="M204 135 l208 0 l0 -135 l-350 0 l0 700 l142 0 l0 -565 ZM143 -281 l16 209 l114 0 l-51 -209 l-79 0 Z" /><glyph glyph-name="lcommaaccent" unicode="&#x13c;" d="M43 0 l0 725 l136 0 l0 -725 l-136 0 ZM47 -281 l16 209 l114 0 l-51 -209 l-79 0 Z" /><glyph glyph-name="Lcaron" unicode="&#x13d;" d="M204 700 l0 -565 l194 0 l0 -135 l-336 0 l0 700 l142 0 ZM416 700 l-48 -230 l-79 0 l10 230 l117 0 Z" /><glyph glyph-name="lcaron" unicode="&#x13e;" d="M231 579 l17 201 l114 0 l-52 -201 l-79 0 ZM43 0 l0 725 l136 0 l0 -725 l-136 0 Z" /><glyph glyph-name="Lslash" unicode="&#x141;" d="M233 135 l208 0 l0 -135 l-350 0 l0 280 l-72 -27 l0 117 l72 27 l0 303 l142 0 l0 -249 l115 43 l0 -117 l-115 -43 l0 -199 Z" /><glyph glyph-name="lslash" unicode="&#x142;" d="M272 501 l0 -103 l-62 -21 l0 -377 l-136 0 l0 332 l-63 -21 l0 103 l63 21 l0 290 l136 0 l0 -245 l62 21 Z" /><glyph glyph-name="Nacute" unicode="&#x143;" d="M216 767 l94 137 l113 0 l-113 -137 l-94 0 ZM368 700 l140 0 l0 -700 l-140 0 l-118 271 l-63 171 l-3 -3 q18 -144 18 -297 l0 -142 l-140 0 l0 700 l140 0 l133 -304 q9 -22 25.5 -67 q16.5 -45 24.5 -67 l3 3 q-20 147 -20 273 l0 162 Z" /><glyph glyph-name="nacute" unicode="&#x144;" d="M360 746 l-93 -137 l-94 0 l74 137 l113 0 ZM275 543 q74 0 115 -55.5 q41 -55.5 41 -162.5 l0 -325 l-137 0 l0 325 q0 88 -51 88 q-57 0 -57 -78 l0 -335 l-136 0 l0 530 l90 0 l10 -54 q41 67 125 67 Z" /><glyph glyph-name="Ncommaaccent" unicode="&#x145;" d="M368 700 l140 0 l0 -700 l-140 0 l-118 271 l-63 171 l-3 -3 q18 -144 18 -297 l0 -142 l-140 0 l0 700 l140 0 l133 -304 q9 -22 25.5 -67 q16.5 -45 24.5 -67 l3 3 q-20 147 -20 273 l0 162 ZM218 -281 l16 209 l114 0 l-51 -209 l-79 0 Z" /><glyph glyph-name="ncommaaccent" unicode="&#x146;" d="M275 543 q74 0 115 -55.5 q41 -55.5 41 -162.5 l0 -325 l-137 0 l0 325 q0 88 -51 88 q-57 0 -57 -78 l0 -335 l-136 0 l0 530 l90 0 l10 -54 q41 67 125 67 ZM143 -281 l16 209 l114 0 l-51 -209 l-79 0 Z" /><glyph glyph-name="Ncaron" unicode="&#x147;" d="M338 767 l-103 0 l-81 137 l89 0 l44 -67 l43 67 l89 0 l-81 -137 ZM368 700 l140 0 l0 -700 l-140 0 l-118 271 l-63 171 l-3 -3 q18 -144 18 -297 l0 -142 l-140 0 l0 700 l140 0 l133 -304 q9 -22 25.5 -67 q16.5 -45 24.5 -67 l3 3 q-20 147 -20 273 l0 162 Z" /><glyph glyph-name="ncaron" unicode="&#x148;" d="M290 609 l-103 0 l-81 137 l89 0 l44 -67 l43 67 l89 0 l-81 -137 ZM275 543 q74 0 115 -55.5 q41 -55.5 41 -162.5 l0 -325 l-137 0 l0 325 q0 88 -51 88 q-57 0 -57 -78 l0 -335 l-136 0 l0 530 l90 0 l10 -54 q41 67 125 67 Z" /><glyph glyph-name="Eng" unicode="&#x14a;" d="M368 700 l140 0 l0 -700 l-1 0 q-4 -93 -57.5 -143.5 q-53.5 -50.5 -144.5 -50.5 l0 130 q59 0 66 57 l-121 278 l-63 171 l-3 -3 q18 -144 18 -297 l0 -142 l-140 0 l0 700 l140 0 l133 -304 q9 -22 25.5 -67 q16.5 -45 24.5 -67 l3 3 q-20 147 -20 273 l0 162 Z" /><glyph glyph-name="eng" unicode="&#x14b;" d="M275 543 q74 0 115 -55.5 q41 -55.5 41 -162.5 l0 -306 q0 -102 -54 -157.5 q-54 -55.5 -150 -55.5 l0 130 q67 0 67 74 l0 315 q0 88 -51 88 q-57 0 -57 -78 l0 -335 l-136 0 l0 530 l90 0 l10 -54 q41 67 125 67 Z" /><glyph glyph-name="Omacron" unicode="&#x14c;" d="M162 876 l220 0 l0 -87 l-220 0 l0 87 ZM436 51.5 q-60 -63.5 -167 -63.5 q-107 0 -167 63.5 q-60 63.5 -60 175.5 l0 246 q0 112 60 175.5 q60 63.5 167 63.5 q107 0 167 -63.5 q60 -63.5 60 -175.5 l0 -246 q0 -112 -60 -175.5 ZM189 227 q0 -101 80 -101 q80 0 80 101 l0 246 q0 101 -80 101 q-80 0 -80 -101 l0 -246 Z" /><glyph glyph-name="omacron" unicode="&#x14d;" d="M124 719 l220 0 l0 -87 l-220 0 l0 87 ZM380 42 q-52 -55 -145 -55 q-93 0 -145 55 q-52 55 -52 156 l0 135 q0 101 52 155.5 q52 54.5 145 54.5 q93 0 145 -54.5 q52 -54.5 52 -155.5 l0 -135 q0 -101 -52 -156 ZM177 198 q0 -79 58 -79 q58 0 58 79 l0 135 q0 78 -58 78 q-58 0 -58 -78 l0 -135 Z" /><glyph glyph-name="Ohungarumlaut" unicode="&#x150;" d="M310 905 l-93 -137 l-86 0 l77 137 l102 0 ZM465 905 l-99 -137 l-86 0 l83 137 l102 0 ZM436 51.5 q-60 -63.5 -167 -63.5 q-107 0 -167 63.5 q-60 63.5 -60 175.5 l0 246 q0 112 60 175.5 q60 63.5 167 63.5 q107 0 167 -63.5 q60 -63.5 60 -175.5 l0 -246 q0 -112 -60 -175.5 ZM189 227 q0 -101 80 -101 q80 0 80 101 l0 246 q0 101 -80 101 q-80 0 -80 -101 l0 -246 Z" /><glyph glyph-name="ohungarumlaut" unicode="&#x151;" d="M272 746 l-93 -137 l-86 0 l77 137 l102 0 ZM427 746 l-99 -137 l-86 0 l83 137 l102 0 ZM380 42 q-52 -55 -145 -55 q-93 0 -145 55 q-52 55 -52 156 l0 135 q0 101 52 155.5 q52 54.5 145 54.5 q93 0 145 -54.5 q52 -54.5 52 -155.5 l0 -135 q0 -101 -52 -156 ZM177 198 q0 -79 58 -79 q58 0 58 79 l0 135 q0 78 -58 78 q-58 0 -58 -78 l0 -135 Z" /><glyph glyph-name="OE" unicode="&#x152;" d="M491 135 l229 0 l0 -135 l-371 0 l0 27 q-45 -39 -101 -39 q-96 0 -151 63.5 q-55 63.5 -55 175.5 l0 246 q0 112 55 175.5 q55 63.5 151 63.5 q56 0 101 -39 l0 27 l361 0 l0 -135 l-219 0 l0 -145 l199 0 l0 -130 l-199 0 l0 -155 ZM261 126 q88 0 88 101 l0 246 q0 101 -88 101 q-72 0 -72 -101 l0 -246 q0 -101 72 -101 Z" /><glyph glyph-name="oe" unicode="&#x153;" d="M548 169 l137 0 q-8 -86 -61 -133.5 q-53 -47.5 -141 -47.5 q-75 0 -122 51 q-48 -51 -126 -51 q-93 0 -145 55 q-52 55 -52 156 l0 134 q0 102 51.5 156 q51.5 54 145.5 54 q78 0 126 -50 q47 50 123 50 q92 0 143 -54 q51 -54 51 -151 l0 -119 l-249 0 l0 -22 q0 -79 56 -79 q30 0 43 11.5 q13 11.5 20 39.5 ZM429 340 l0 -28 l115 0 l0 28 q0 77 -59 77 q-56 0 -56 -77 ZM294 199 l0 134 q0 78 -59 78 q-59 0 -59 -78 l0 -134 q0 -79 59 -79 q59 0 59 79 Z" /><glyph glyph-name="Racute" unicode="&#x154;" d="M410 904 l-113 -137 l-94 0 l94 137 l113 0 ZM366 0 l-112 235 l-50 0 l0 -235 l-142 0 l0 700 l203 0 q104 0 162.5 -61.5 q58.5 -61.5 58.5 -171.5 q0 -144 -97 -202 l132 -265 l-155 0 ZM204 565 l0 -195 l59 0 q77 0 77 97 q0 98 -77 98 l-59 0 Z" /><glyph glyph-name="racute" unicode="&#x155;" d="M308 746 l-93 -137 l-94 0 l74 137 l113 0 ZM284 543 q37 0 58 -12 l0 -130 q-30 14 -64 14 q-92 0 -92 -82 l0 -333 l-136 0 l0 530 l90 0 l10 -56 q43 69 134 69 Z" /><glyph glyph-name="Rcommaaccent" unicode="&#x156;" d="M389 265 l132 -265 l-155 0 l-112 235 l-50 0 l0 -235 l-142 0 l0 700 l203 0 q104 0 162.5 -61.5 q58.5 -61.5 58.5 -171.5 q0 -144 -97 -202 ZM204 565 l0 -195 l59 0 q77 0 77 97 q0 98 -77 98 l-59 0 ZM205 -281 l16 209 l114 0 l-51 -209 l-79 0 Z" /><glyph glyph-name="rcommaaccent" unicode="&#x157;" d="M284 543 q37 0 58 -12 l0 -130 q-30 14 -64 14 q-92 0 -92 -82 l0 -333 l-136 0 l0 530 l90 0 l10 -56 q43 69 134 69 ZM62 -281 l16 209 l114 0 l-51 -209 l-79 0 Z" /><glyph glyph-name="Rcaron" unicode="&#x158;" d="M325 767 l-103 0 l-81 137 l89 0 l44 -67 l43 67 l89 0 l-81 -137 ZM366 0 l-112 235 l-50 0 l0 -235 l-142 0 l0 700 l203 0 q104 0 162.5 -61.5 q58.5 -61.5 58.5 -171.5 q0 -144 -97 -202 l132 -265 l-155 0 ZM204 565 l0 -195 l59 0 q77 0 77 97 q0 98 -77 98 l-59 0 Z" /><glyph glyph-name="rcaron" unicode="&#x159;" d="M238 609 l-103 0 l-81 137 l89 0 l44 -67 l43 67 l89 0 l-81 -137 ZM284 543 q37 0 58 -12 l0 -130 q-30 14 -64 14 q-92 0 -92 -82 l0 -333 l-136 0 l0 530 l90 0 l10 -56 q43 69 134 69 Z" /><glyph glyph-name="Sacute" unicode="&#x15a;" d="M168 767 l94 137 l113 0 l-113 -137 l-94 0 ZM236 -14 q-101 0 -159 57 q-58 57 -58 161 l146 0 q0 -80 73 -80 q34 0 52 17.5 q18 17.5 18 44.5 q0 27 -20.5 51 q-20.5 24 -50.5 42 q-30 18 -66 42.5 q-36 24.5 -66 50 q-30 25.5 -50.5 66.5 q-20.5 41 -20.5 91 q0 82 54.5 133.5 q54.5 51.5 149.5 51.5 q97 0 152 -54.5 q55 -54.5 55 -151.5 l-146 0 q0 69 -62 69 q-28 0 -43.5 -14 q-15.5 -14 -15.5 -38 q0 -25 20.5 -48 q20.5 -23 51.5 -39.5 q31 -16.5 67 -40 q36 -23.5 67 -49.5 q31 -26 51.5 -68.5 q20.5 -42.5 20.5 -94.5 q0 -88 -59 -143.5 q-59 -55.5 -161 -55.5 Z" /><glyph glyph-name="sacute" unicode="&#x15b;" d="M340 749 l-93 -137 l-94 0 l74 137 l113 0 ZM224 -15 q-97 0 -150.5 53.5 q-53.5 53.5 -55.5 130.5 l136 0 q5 -60 65 -60 q27 0 42 11.5 q15 11.5 15 30.5 q0 22 -25.5 38.5 q-25.5 16.5 -62 30 q-36.5 13.5 -73.5 31.5 q-37 18 -62.5 53 q-25.5 35 -25.5 85 q0 72 49 113 q49 41 134 41 q90 0 135.5 -47.5 q45.5 -47.5 51.5 -128.5 l-131 0 q-5 56 -56 56 q-22 0 -35 -9.5 q-13 -9.5 -13 -24.5 q0 -20 26 -34 q26 -14 62.5 -26.5 q36.5 -12.5 73 -30.5 q36.5 -18 62.5 -55.5 q26 -37.5 26 -90.5 q0 -76 -50 -121.5 q-50 -45.5 -138 -45.5 Z" /><glyph glyph-name="Scedilla" unicode="&#x15e;" d="M456 185 q0 -77 -45.5 -129.5 q-45.5 -52.5 -126.5 -65.5 l-10 -37 l9 0 q33 0 53.5 -20.5 q20.5 -20.5 20.5 -54.5 q0 -43 -30.5 -69 q-30.5 -26 -79.5 -26 q-43 0 -75 25.5 q-32 25.5 -36 65.5 l71 0 q14 -27 40 -27 q34 0 34 34 q0 29 -33 29 q-20 0 -35 -8 l-20 20 l18 65 q-90 7 -141 63 q-51 56 -51 154 l146 0 q0 -80 73 -80 q34 0 52 17.5 q18 17.5 18 44.5 q0 27 -20.5 51 q-20.5 24 -50.5 42 q-30 18 -66 42.5 q-36 24.5 -66 50 q-30 25.5 -50.5 66.5 q-20.5 41 -20.5 91 q0 82 54.5 133.5 q54.5 51.5 149.5 51.5 q97 0 152 -54.5 q55 -54.5 55 -151.5 l-146 0 q0 69 -62 69 q-28 0 -43.5 -14 q-15.5 -14 -15.5 -38 q0 -25 20.5 -48 q20.5 -23 51.5 -39.5 q31 -16.5 67 -40 q36 -23.5 67 -49.5 q31 -26 51.5 -68.5 q20.5 -42.5 20.5 -94.5 Z" /><glyph glyph-name="scedilla" unicode="&#x15f;" d="M412 152 q0 -69 -42 -113.5 q-42 -44.5 -117 -52.5 l-9 -33 l9 0 q33 0 53.5 -20.5 q20.5 -20.5 20.5 -54.5 q0 -43 -30.5 -69 q-30.5 -26 -79.5 -26 q-43 0 -75 25.5 q-32 25.5 -36 65.5 l71 0 q14 -27 40 -27 q34 0 34 34 q0 29 -33 29 q-20 0 -35 -8 l-20 20 l19 66 q-78 12 -120 63 q-42 51 -44 118 l136 0 q5 -60 65 -60 q27 0 42 11.5 q15 11.5 15 30.5 q0 22 -25.5 38.5 q-25.5 16.5 -62 30 q-36.5 13.5 -73.5 31.5 q-37 18 -62.5 53 q-25.5 35 -25.5 85 q0 72 49 113 q49 41 134 41 q90 0 135.5 -47.5 q45.5 -47.5 51.5 -128.5 l-131 0 q-5 56 -56 56 q-22 0 -35 -9.5 q-13 -9.5 -13 -24.5 q0 -20 26 -34 q26 -14 62.5 -26.5 q36.5 -12.5 73 -30.5 q36.5 -18 62.5 -55.5 q26 -37.5 26 -90.5 Z" /><glyph glyph-name="Scaron" unicode="&#x160;" d="M290 767 l-103 0 l-81 137 l89 0 l44 -67 l43 67 l89 0 l-81 -137 ZM178 525 q0 -25 20.5 -48 q20.5 -23 51.5 -39.5 q31 -16.5 67 -40 q36 -23.5 67 -49.5 q31 -26 51.5 -68.5 q20.5 -42.5 20.5 -94.5 q0 -88 -59 -143.5 q-59 -55.5 -161 -55.5 q-101 0 -159 57 q-58 57 -58 161 l146 0 q0 -80 73 -80 q34 0 52 17.5 q18 17.5 18 44.5 q0 27 -20.5 51 q-20.5 24 -50.5 42 q-30 18 -66 42.5 q-36 24.5 -66 50 q-30 25.5 -50.5 66.5 q-20.5 41 -20.5 91 q0 82 54.5 133.5 q54.5 51.5 149.5 51.5 q97 0 152 -54.5 q55 -54.5 55 -151.5 l-146 0 q0 69 -62 69 q-28 0 -43.5 -14 q-15.5 -14 -15.5 -38 Z" /><glyph glyph-name="scaron" unicode="&#x161;" d="M270 612 l-103 0 l-81 137 l89 0 l44 -67 l43 67 l89 0 l-81 -137 ZM162 389 q0 -20 26 -34 q26 -14 62.5 -26.5 q36.5 -12.5 73 -30.5 q36.5 -18 62.5 -55.5 q26 -37.5 26 -90.5 q0 -76 -50 -121.5 q-50 -45.5 -138 -45.5 q-97 0 -150.5 53.5 q-53.5 53.5 -55.5 130.5 l136 0 q5 -60 65 -60 q27 0 42 11.5 q15 11.5 15 30.5 q0 22 -25.5 38.5 q-25.5 16.5 -62 30 q-36.5 13.5 -73.5 31.5 q-37 18 -62.5 53 q-25.5 35 -25.5 85 q0 72 49 113 q49 41 134 41 q90 0 135.5 -47.5 q45.5 -47.5 51.5 -128.5 l-131 0 q-5 56 -56 56 q-22 0 -35 -9.5 q-13 -9.5 -13 -24.5 Z" /><glyph glyph-name="uni0162" unicode="&#x162;" d="M435 700 l0 -135 l-137 0 l0 -565 l-146 0 l0 565 l-137 0 l0 135 l420 0 ZM158 -281 l16 209 l114 0 l-51 -209 l-79 0 Z" /><glyph glyph-name="uni0163" unicode="&#x163;" d="M271 120 l34 0 l0 -128 l-44 0 q-85 0 -135 52 q-50 52 -50 141 l0 222 l-69 0 l0 123 l69 0 l0 128 l135 0 l0 -128 l87 0 l0 -123 l-87 0 l0 -224 q0 -63 60 -63 ZM117 -281 l16 209 l114 0 l-51 -209 l-79 0 Z" /><glyph glyph-name="Tcaron" unicode="&#x164;" d="M278 767 l-103 0 l-81 137 l89 0 l44 -67 l43 67 l89 0 l-81 -137 ZM435 700 l0 -135 l-137 0 l0 -565 l-146 0 l0 565 l-137 0 l0 135 l420 0 Z" /><glyph glyph-name="tcaron" unicode="&#x165;" d="M290 778 l110 0 l-50 -186 l-82 0 l22 186 ZM211 183 q0 -63 60 -63 l34 0 l0 -128 l-44 0 q-85 0 -135 52 q-50 52 -50 141 l0 222 l-69 0 l0 123 l69 0 l0 128 l135 0 l0 -128 l87 0 l0 -123 l-87 0 l0 -224 Z" /><glyph glyph-name="Tbar" unicode="&#x166;" d="M435 565 l-137 0 l0 -177 l77 0 l0 -76 l-77 0 l0 -312 l-146 0 l0 312 l-77 0 l0 76 l77 0 l0 177 l-137 0 l0 135 l420 0 l0 -135 Z" /><glyph glyph-name="tbar" unicode="&#x167;" d="M271 120 l34 0 l0 -128 l-44 0 q-85 0 -135 52 q-50 52 -50 141 l0 47 l-52 0 l0 86 l52 0 l0 89 l-69 0 l0 123 l69 0 l0 128 l135 0 l0 -128 l87 0 l0 -123 l-87 0 l0 -89 l60 0 l0 -86 l-60 0 l0 -49 q0 -63 60 -63 Z" /><glyph glyph-name="Umacron" unicode="&#x16a;" d="M167 876 l220 0 l0 -87 l-220 0 l0 87 ZM437 51 q-59 -63 -164 -63 q-105 0 -164 63 q-59 63 -59 174 l0 475 l148 0 l0 -475 q0 -99 75 -99 q75 0 75 99 l0 475 l148 0 l0 -475 q0 -111 -59 -174 Z" /><glyph glyph-name="umacron" unicode="&#x16b;" d="M343 719 l0 -87 l-220 0 l0 87 l220 0 ZM290 530 l136 0 l0 -530 l-90 0 l-10 54 q-41 -67 -125 -67 q-74 0 -115 55.5 q-41 55.5 -41 162.5 l0 325 l137 0 l0 -325 q0 -88 51 -88 q57 0 57 78 l0 335 Z" /><glyph glyph-name="Uring" unicode="&#x16e;" d="M185 853 q0 39 25.5 63.5 q25.5 24.5 66.5 24.5 q41 0 66.5 -24.5 q25.5 -24.5 25.5 -63.5 q0 -40 -25.5 -65 q-25.5 -25 -66.5 -25 q-41 0 -66.5 25 q-25.5 25 -25.5 65 ZM253 876 q-9 -9 -9 -24 q0 -15 9 -24 q9 -9 24 -9 q15 0 24 9 q9 9 9 24 q0 15 -9 24 q-9 9 -24 9 q-15 0 -24 -9 ZM437 51 q-59 -63 -164 -63 q-105 0 -164 63 q-59 63 -59 174 l0 475 l148 0 l0 -475 q0 -99 75 -99 q75 0 75 99 l0 475 l148 0 l0 -475 q0 -111 -59 -174 Z" /><glyph glyph-name="uring" unicode="&#x16f;" d="M300.5 631 q-25.5 -25 -66.5 -25 q-41 0 -66.5 25 q-25.5 25 -25.5 65 q0 39 25.5 63.5 q25.5 24.5 66.5 24.5 q41 0 66.5 -24.5 q25.5 -24.5 25.5 -63.5 q0 -40 -25.5 -65 ZM258 719 q-9 9 -24 9 q-15 0 -24 -9 q-9 -9 -9 -24 q0 -15 9 -24 q9 -9 24 -9 q15 0 24 9 q9 9 9 24 q0 15 -9 24 ZM290 530 l136 0 l0 -530 l-90 0 l-10 54 q-41 -67 -125 -67 q-74 0 -115 55.5 q-41 55.5 -41 162.5 l0 325 l137 0 l0 -325 q0 -88 51 -88 q57 0 57 78 l0 335 Z" /><glyph glyph-name="Uhungarumlaut" unicode="&#x170;" d="M315 905 l-93 -137 l-86 0 l77 137 l102 0 ZM470 905 l-99 -137 l-86 0 l83 137 l102 0 ZM437 51 q-59 -63 -164 -63 q-105 0 -164 63 q-59 63 -59 174 l0 475 l148 0 l0 -475 q0 -99 75 -99 q75 0 75 99 l0 475 l148 0 l0 -475 q0 -111 -59 -174 Z" /><glyph glyph-name="uhungarumlaut" unicode="&#x171;" d="M271 746 l-93 -137 l-86 0 l77 137 l102 0 ZM327 609 l-86 0 l83 137 l102 0 l-99 -137 ZM290 530 l136 0 l0 -530 l-90 0 l-10 54 q-41 -67 -125 -67 q-74 0 -115 55.5 q-41 55.5 -41 162.5 l0 325 l137 0 l0 -325 q0 -88 51 -88 q57 0 57 78 l0 335 Z" /><glyph glyph-name="Uogonek" unicode="&#x172;" d="M319 -194 q-47 0 -73.5 22.5 q-26.5 22.5 -26.5 61.5 q0 53 53 98 l-1 2 q-4 -2 -8 -2 q-100 4 -156.5 66.5 q-56.5 62.5 -56.5 170.5 l0 475 l148 0 l0 -475 q0 -99 75 -99 q75 0 75 99 l0 475 l148 0 l0 -475 q0 -125 -85 -197 q-68 -56 -68 -95 q0 -26 31 -26 q14 0 28 3 l0 -91 q-33 -13 -83 -13 Z" /><glyph glyph-name="uogonek" unicode="&#x173;" d="M426 0 q-28 -16 -43.5 -35.5 q-15.5 -19.5 -15.5 -35.5 q0 -22 31 -22 q14 0 28 3 l0 -91 q-28 -13 -83 -13 q-42 0 -66 23 q-24 23 -24 61 q0 62 83 110 l-10 54 q-41 -67 -125 -67 q-74 0 -115 55.5 q-41 55.5 -41 162.5 l0 325 l137 0 l0 -325 q0 -88 51 -88 q57 0 57 78 l0 335 l136 0 l0 -530 Z" /><glyph glyph-name="Wcircumflex" unicode="&#x174;" d="M406 834 l-44 -67 l-89 0 l81 137 l103 0 l81 -137 l-89 0 l-43 67 ZM642 700 l147 0 l-158 -700 l-150 0 l-50 234 q-25 110 -33 229 l-4 0 q-8 -119 -33 -229 l-50 -234 l-150 0 l-158 700 l147 0 l55 -331 q24 -151 29 -195 l4 0 q5 44 29 195 l55 321 l148 0 l55 -321 q24 -151 29 -195 l4 0 q5 44 29 195 l55 331 Z" /><glyph glyph-name="wcircumflex" unicode="&#x175;" d="M330 676 l-44 -67 l-89 0 l81 137 l103 0 l81 -137 l-89 0 l-43 67 ZM525 530 l141 0 l-121 -530 l-147 0 l-26 118 q-28 129 -36 239 l-6 0 q-8 -110 -36 -239 l-26 -118 l-147 0 l-121 530 l141 0 l28 -185 q24 -167 26 -198 l6 0 q6 48 28 185 l32 188 l144 0 l32 -188 q22 -137 28 -185 l6 0 q2 31 26 198 l28 185 Z" /><glyph glyph-name="Ycircumflex" unicode="&#x176;" d="M236 834 l-44 -67 l-89 0 l81 137 l103 0 l81 -137 l-89 0 l-43 67 ZM325 700 l147 0 l-165 -492 l0 -208 l-142 0 l0 208 l-165 492 l147 0 l57 -194 q21 -70 30 -112 l4 0 q11 47 32 115 l55 191 Z" /><glyph glyph-name="ycircumflex" unicode="&#x177;" d="M223 679 l-44 -67 l-89 0 l81 137 l103 0 l81 -137 l-89 0 l-43 67 ZM309 530 l139 0 l-159 -546 q-50 -172 -159 -172 l-70 0 l0 131 l40 0 q25 0 37 15 q12 15 23 51 l13 45 l-173 476 l142 0 l87 -281 l80 281 Z" /><glyph glyph-name="Ydieresis" unicode="&#x178;" d="M199.5 791.5 q-16.5 -16.5 -44.5 -16.5 q-28 0 -44.5 16.5 q-16.5 16.5 -16.5 44.5 q0 28 16.5 44.5 q16.5 16.5 44.5 16.5 q28 0 44.5 -16.5 q16.5 -16.5 16.5 -44.5 q0 -28 -16.5 -44.5 ZM361.5 791.5 q-16.5 -16.5 -44.5 -16.5 q-28 0 -44.5 16.5 q-16.5 16.5 -16.5 44.5 q0 28 16.5 44.5 q16.5 16.5 44.5 16.5 q28 0 44.5 -16.5 q16.5 -16.5 16.5 -44.5 q0 -28 -16.5 -44.5 ZM165 0 l0 208 l-165 492 l147 0 l57 -194 q21 -70 30 -112 l4 0 q11 47 32 115 l55 191 l147 0 l-165 -492 l0 -208 l-142 0 Z" /><glyph glyph-name="Zacute" unicode="&#x179;" d="M153 767 l94 137 l113 0 l-113 -137 l-94 0 ZM189 135 l225 0 l0 -135 l-401 0 l0 95 l222 470 l-205 0 l0 135 l379 0 l0 -98 l-220 -467 Z" /><glyph glyph-name="zacute" unicode="&#x17a;" d="M304 746 l-93 -137 l-94 0 l74 137 l113 0 ZM180 125 l185 0 l0 -125 l-362 0 l0 83 l178 322 l-157 0 l0 125 l331 0 l0 -83 l-175 -322 Z" /><glyph glyph-name="Zdotaccent" unicode="&#x17b;" d="M222 778 q-33 0 -54 21.5 q-21 21.5 -21 53.5 q0 32 21 53.5 q21 21.5 54 21.5 q32 0 53.5 -21.5 q21.5 -21.5 21.5 -53.5 q0 -30 -22 -52.5 q-22 -22.5 -53 -22.5 ZM189 135 l225 0 l0 -135 l-401 0 l0 95 l222 470 l-205 0 l0 135 l379 0 l0 -98 l-220 -467 Z" /><glyph glyph-name="zdotaccent" unicode="&#x17c;" d="M183 608 q-33 0 -54 21.5 q-21 21.5 -21 53.5 q0 32 21 53.5 q21 21.5 54 21.5 q32 0 53.5 -21.5 q21.5 -21.5 21.5 -53.5 q0 -30 -22 -52.5 q-22 -22.5 -53 -22.5 ZM180 125 l185 0 l0 -125 l-362 0 l0 83 l178 322 l-157 0 l0 125 l331 0 l0 -83 l-175 -322 Z" /><glyph glyph-name="Zcaron" unicode="&#x17d;" d="M275 767 l-103 0 l-81 137 l89 0 l44 -67 l43 67 l89 0 l-81 -137 ZM189 135 l225 0 l0 -135 l-401 0 l0 95 l222 470 l-205 0 l0 135 l379 0 l0 -98 l-220 -467 Z" /><glyph glyph-name="zcaron" unicode="&#x17e;" d="M234 609 l-103 0 l-81 137 l89 0 l44 -67 l43 67 l89 0 l-81 -137 ZM180 125 l185 0 l0 -125 l-362 0 l0 83 l178 322 l-157 0 l0 125 l331 0 l0 -83 l-175 -322 Z" /><glyph glyph-name="Scommaaccent" unicode="&#x218;" d="M236 -14 q-101 0 -159 57 q-58 57 -58 161 l146 0 q0 -80 73 -80 q34 0 52 17.5 q18 17.5 18 44.5 q0 27 -20.5 51 q-20.5 24 -50.5 42 q-30 18 -66 42.5 q-36 24.5 -66 50 q-30 25.5 -50.5 66.5 q-20.5 41 -20.5 91 q0 82 54.5 133.5 q54.5 51.5 149.5 51.5 q97 0 152 -54.5 q55 -54.5 55 -151.5 l-146 0 q0 69 -62 69 q-28 0 -43.5 -14 q-15.5 -14 -15.5 -38 q0 -25 20.5 -48 q20.5 -23 51.5 -39.5 q31 -16.5 67 -40 q36 -23.5 67 -49.5 q31 -26 51.5 -68.5 q20.5 -42.5 20.5 -94.5 q0 -88 -59 -143.5 q-59 -55.5 -161 -55.5 ZM172 -281 l16 209 l114 0 l-51 -209 l-79 0 Z" /><glyph glyph-name="scommaaccent" unicode="&#x219;" d="M224 -15 q-97 0 -150.5 53.5 q-53.5 53.5 -55.5 130.5 l136 0 q5 -60 65 -60 q27 0 42 11.5 q15 11.5 15 30.5 q0 22 -25.5 38.5 q-25.5 16.5 -62 30 q-36.5 13.5 -73.5 31.5 q-37 18 -62.5 53 q-25.5 35 -25.5 85 q0 72 49 113 q49 41 134 41 q90 0 135.5 -47.5 q45.5 -47.5 51.5 -128.5 l-131 0 q-5 56 -56 56 q-22 0 -35 -9.5 q-13 -9.5 -13 -24.5 q0 -20 26 -34 q26 -14 62.5 -26.5 q36.5 -12.5 73 -30.5 q36.5 -18 62.5 -55.5 q26 -37.5 26 -90.5 q0 -76 -50 -121.5 q-50 -45.5 -138 -45.5 ZM154 -281 l16 209 l114 0 l-51 -209 l-79 0 Z" /><glyph glyph-name="uni021A" unicode="&#x21a;" d="M435 700 l0 -135 l-137 0 l0 -565 l-146 0 l0 565 l-137 0 l0 135 l420 0 ZM158 -281 l16 209 l114 0 l-51 -209 l-79 0 Z" /><glyph glyph-name="uni021B" unicode="&#x21b;" d="M271 120 l34 0 l0 -128 l-44 0 q-85 0 -135 52 q-50 52 -50 141 l0 222 l-69 0 l0 123 l69 0 l0 128 l135 0 l0 -128 l87 0 l0 -123 l-87 0 l0 -224 q0 -63 60 -63 ZM117 -281 l16 209 l114 0 l-51 -209 l-79 0 Z" /><glyph glyph-name="gravecomb" unicode="&#x300;" d="M-187 746 l113 0 l74 -137 l-94 0 l-93 137 Z" /><glyph glyph-name="acutecomb" unicode="&#x301;" d="M0 746 l-93 -137 l-94 0 l74 137 l113 0 Z" /><glyph glyph-name="uni0302" unicode="&#x302;" d="M2 609 l-89 0 l-43 67 l-44 -67 l-89 0 l81 137 l103 0 l81 -137 Z" /><glyph glyph-name="tildecomb" unicode="&#x303;" d="M-169 649 q-24 0 -28 -25 l-77 0 q3 51 28 78.5 q25 27.5 63 27.5 q24 0 46.5 -14 q22.5 -14 31.5 -14 q23 0 28 25 l77 0 q-3 -49 -28 -77.5 q-25 -28.5 -63 -28.5 q-23 0 -45.5 14 q-22.5 14 -32.5 14 Z" /><glyph glyph-name="uni0304" unicode="&#x304;" d="M-220 719 l220 0 l0 -87 l-220 0 l0 87 Z" /><glyph glyph-name="uni0306" unicode="&#x306;" d="M-127 612 q-55 0 -91 33.5 q-36 33.5 -38 90.5 l87 0 q0 -19 12 -30 q12 -11 29 -11 q17 0 29 11 q12 11 12 30 l87 0 q-2 -59 -37.5 -91.5 q-35.5 -32.5 -89.5 -32.5 Z" /><glyph glyph-name="uni0307" unicode="&#x307;" d="M-103 608 q-33 0 -54 21.5 q-21 21.5 -21 53.5 q0 32 21 53.5 q21 21.5 54 21.5 q32 0 53.5 -21.5 q21.5 -21.5 21.5 -53.5 q0 -30 -22 -52.5 q-22 -22.5 -53 -22.5 Z" /><glyph glyph-name="uni0308" unicode="&#x308;" d="M-178.5 630.5 q-16.5 -16.5 -44.5 -16.5 q-28 0 -44.5 16.5 q-16.5 16.5 -16.5 44.5 q0 28 16.5 44.5 q16.5 16.5 44.5 16.5 q28 0 44.5 -16.5 q16.5 -16.5 16.5 -44.5 q0 -28 -16.5 -44.5 ZM-16.5 630.5 q-16.5 -16.5 -44.5 -16.5 q-28 0 -44.5 16.5 q-16.5 16.5 -16.5 44.5 q0 28 16.5 44.5 q16.5 16.5 44.5 16.5 q28 0 44.5 -16.5 q16.5 -16.5 16.5 -44.5 q0 -28 -16.5 -44.5 Z" /><glyph glyph-name="uni030A" unicode="&#x30a;" d="M-184 696 q0 39 25.5 63.5 q25.5 24.5 66.5 24.5 q41 0 66.5 -24.5 q25.5 -24.5 25.5 -63.5 q0 -40 -25.5 -65 q-25.5 -25 -66.5 -25 q-41 0 -66.5 25 q-25.5 25 -25.5 65 ZM-116 719 q-9 -9 -9 -24 q0 -15 9 -24 q9 -9 24 -9 q15 0 24 9 q9 9 9 24 q0 15 -9 24 q-9 9 -24 9 q-15 0 -24 -9 Z" /><glyph glyph-name="uni030B" unicode="&#x30b;" d="M-155 746 l-93 -137 l-86 0 l77 137 l102 0 ZM0 746 l-99 -137 l-86 0 l83 137 l102 0 Z" /><glyph glyph-name="uni030C" unicode="&#x30c;" d="M-79 746 l89 0 l-81 -137 l-103 0 l-81 137 l89 0 l44 -67 l43 67 Z" /><glyph glyph-name="uni0312" unicode="&#x312;" d="M-60 817 l60 -216 l-127 0 l-17 216 l84 0 Z" /><glyph glyph-name="uni0326" unicode="&#x326;" d="M-130 -281 l16 209 l114 0 l-51 -209 l-79 0 Z" /><glyph glyph-name="uni0327" unicode="&#x327;" d="M-110 -217 q-43 0 -75 25.5 q-32 25.5 -36 65.5 l71 0 q14 -27 40 -27 q34 0 34 34 q0 29 -33 29 q-20 0 -35 -8 l-20 20 l22 78 l72 0 l-13 -47 l9 0 q33 0 53.5 -20.5 q20.5 -20.5 20.5 -54.5 q0 -43 -30 -69 q-30 -26 -80 -26 Z" /><glyph glyph-name="uni0328" unicode="&#x328;" d="M-10 -181 q-28 -13 -83 -13 q-47 0 -73.5 22.5 q-26.5 22.5 -26.5 62.5 q0 61 60 109 l115 0 q-24 -15 -37.5 -34.5 q-13.5 -19.5 -13.5 -33.5 q0 -25 31 -25 q14 0 28 3 l0 -91 Z" /><glyph glyph-name="uni0335" unicode="&#x335;" d="M-210 372 l0 66 l200 0 l0 -66 l-200 0 Z" /><glyph glyph-name="uni0336" unicode="&#x336;" d="M-330 438 l320 0 l0 -66 l-320 0 l0 66 Z" /><glyph glyph-name="uni0337" unicode="&#x337;" d="M-298 -43 l155 597 l149 0 l-155 -597 l-149 0 Z" /><glyph glyph-name="uni0338" unicode="&#x338;" d="M-369 -39 l210 778 l146 0 l-210 -778 l-146 0 Z" /><glyph glyph-name="uni0401" unicode="&#x401;" d="M217.5 791.5 q-16.5 -16.5 -44.5 -16.5 q-28 0 -44.5 16.5 q-16.5 16.5 -16.5 44.5 q0 28 16.5 44.5 q16.5 16.5 44.5 16.5 q28 0 44.5 -16.5 q16.5 -16.5 16.5 -44.5 q0 -28 -16.5 -44.5 ZM379.5 791.5 q-16.5 -16.5 -44.5 -16.5 q-28 0 -44.5 16.5 q-16.5 16.5 -16.5 44.5 q0 28 16.5 44.5 q16.5 16.5 44.5 16.5 q28 0 44.5 -16.5 q16.5 -16.5 16.5 -44.5 q0 -28 -16.5 -44.5 ZM204 135 l229 0 l0 -135 l-371 0 l0 700 l361 0 l0 -135 l-219 0 l0 -145 l199 0 l0 -130 l-199 0 l0 -155 Z" /><glyph glyph-name="uni0402" unicode="&#x402;" d="M392 505 q71 0 110.5 -55.5 q39.5 -55.5 39.5 -162.5 l0 -80 q-1 -101 -55 -156 q-54 -55 -149 -55 l0 130 q67 0 67 83 l0 78 q0 88 -51 88 q-25 0 -40.5 -16.5 q-15.5 -16.5 -15.5 -46.5 l0 -312 l-146 0 l0 565 l-137 0 l0 135 l420 0 l0 -135 l-137 0 l0 -109 q38 49 94 49 Z" /><glyph glyph-name="uni0403" unicode="&#x403;" d="M373 904 l-113 -137 l-94 0 l94 137 l113 0 ZM415 700 l0 -135 l-211 0 l0 -565 l-142 0 l0 700 l353 0 Z" /><glyph glyph-name="uni0404" unicode="&#x404;" d="M342 214 l142 0 q-2 -110 -60.5 -168 q-58.5 -58 -165.5 -58 q-103 0 -159.5 58.5 q-56.5 58.5 -56.5 167.5 l0 272 q0 110 57 169 q57 59 160 59 q105 0 162 -58.5 q57 -58.5 61 -169.5 l-142 0 q-3 48 -22 69 q-19 21 -60 21 q-68 0 -68 -90 l0 -73 l143 0 l0 -116 l-143 0 l0 -83 q0 -88 68 -88 q41 0 61 21 q20 21 23 67 Z" /><glyph glyph-name="uni0405" unicode="&#x405;" d="M236 -14 q-101 0 -159 57 q-58 57 -58 161 l146 0 q0 -80 73 -80 q34 0 52 17.5 q18 17.5 18 44.5 q0 27 -20.5 51 q-20.5 24 -50.5 42 q-30 18 -66 42.5 q-36 24.5 -66 50 q-30 25.5 -50.5 66.5 q-20.5 41 -20.5 91 q0 82 54.5 133.5 q54.5 51.5 149.5 51.5 q97 0 152 -54.5 q55 -54.5 55 -151.5 l-146 0 q0 69 -62 69 q-28 0 -43.5 -14 q-15.5 -14 -15.5 -38 q0 -25 20.5 -48 q20.5 -23 51.5 -39.5 q31 -16.5 67 -40 q36 -23.5 67 -49.5 q31 -26 51.5 -68.5 q20.5 -42.5 20.5 -94.5 q0 -88 -59 -143.5 q-59 -55.5 -161 -55.5 Z" /><glyph glyph-name="uni0406" unicode="&#x406;" d="M62 700 l142 0 l0 -700 l-142 0 l0 700 Z" /><glyph glyph-name="uni0407" unicode="&#x407;" d="M97.5 791.5 q-16.5 -16.5 -44.5 -16.5 q-28 0 -44.5 16.5 q-16.5 16.5 -16.5 44.5 q0 28 16.5 44.5 q16.5 16.5 44.5 16.5 q28 0 44.5 -16.5 q16.5 -16.5 16.5 -44.5 q0 -28 -16.5 -44.5 ZM259.5 791.5 q-16.5 -16.5 -44.5 -16.5 q-28 0 -44.5 16.5 q-16.5 16.5 -16.5 44.5 q0 28 16.5 44.5 q16.5 16.5 44.5 16.5 q28 0 44.5 -16.5 q16.5 -16.5 16.5 -44.5 q0 -28 -16.5 -44.5 ZM62 700 l142 0 l0 -700 l-142 0 l0 700 Z" /><glyph glyph-name="uni0408" unicode="&#x408;" d="M0 -153 l0 141 q61 0 90.5 26 q29.5 26 29.5 93 l0 593 l142 0 l0 -594 q0 -121 -67 -190 q-67 -69 -195 -69 Z" /><glyph glyph-name="uni0409" unicode="&#x409;" d="M0 -12 l0 130 q37 0 57 22.5 q20 22.5 29 84.5 q12 69 30 475 l394 0 l0 -266 l41 0 q110 0 163.5 -59.5 q53.5 -59.5 53.5 -166.5 q0 -106 -53 -157 q-53 -51 -164 -51 l-188 0 l0 566 l-113 0 q-15 -276 -33 -383 q-21 -118 -69.5 -156.5 q-48.5 -38.5 -147.5 -38.5 ZM510 130 l29 0 q42 0 61.5 20 q19.5 20 19.5 64 q0 44 -19.5 64.5 q-19.5 20.5 -61.5 20.5 l-29 0 l0 -169 Z" /><glyph glyph-name="uni040A" unicode="&#x40a;" d="M551 428 q112 0 166.5 -58.5 q54.5 -58.5 54.5 -158.5 q0 -109 -52.5 -160 q-52.5 -51 -168.5 -51 l-203 0 l0 291 l-144 0 l0 -291 l-142 0 l0 700 l142 0 l0 -274 l144 0 l0 274 l142 0 l0 -272 l61 0 ZM539 130 q44 0 64.5 19 q20.5 19 20.5 62 q0 43 -20.5 62.5 q-20.5 19.5 -64.5 19.5 l-49 0 l0 -163 l49 0 Z" /><glyph glyph-name="uni040B" unicode="&#x40b;" d="M392 505 q71 0 110.5 -55.5 q39.5 -55.5 39.5 -162.5 l0 -287 l-137 0 l0 287 q0 88 -51 88 q-48 0 -56 -60 l0 -315 l-146 0 l0 565 l-137 0 l0 135 l420 0 l0 -135 l-137 0 l0 -109 q38 49 94 49 Z" /><glyph glyph-name="uni040C" unicode="&#x40c;" d="M363 904 l-113 -137 l-94 0 l94 137 l113 0 ZM368 0 l-127 265 l-39 -63 l0 -202 l-140 0 l0 700 l140 0 l0 -268 l36 78 l98 190 l162 0 l-178 -306 l208 -394 l-160 0 Z" /><glyph glyph-name="uni040D" unicode="&#x40d;" d="M375 767 l-94 0 l-113 137 l113 0 l94 -137 ZM62 0 l0 700 l138 0 l0 -162 q0 -129 -18 -273 l3 -3 q3 8 21.5 58.5 q18.5 50.5 29.5 75.5 l133 304 l139 0 l0 -700 l-138 0 l0 142 q0 156 16 297 l-3 3 q-57 -154 -64 -171 l-118 -271 l-139 0 Z" /><glyph glyph-name="uni040E" unicode="&#x40e;" d="M237 770 q-55 0 -91 33.5 q-36 33.5 -38 90.5 l87 0 q0 -19 12 -30 q12 -11 29 -11 q17 0 29 11 q12 11 12 30 l87 0 q-2 -59 -37.5 -91.5 q-35.5 -32.5 -89.5 -32.5 ZM321 700 l149 0 l-163 -529 q-35 -113 -82.5 -148 q-47.5 -35 -147.5 -35 l-26 0 l0 126 l31 0 q38 0 57 14.5 q19 14.5 35 62.5 l-172 509 l149 0 l88 -286 l82 286 Z" /><glyph glyph-name="uni040F" unicode="&#x40f;" d="M206 -119 l0 119 l-144 0 l0 700 l142 0 l0 -565 l144 0 l0 565 l142 0 l0 -700 l-144 0 l0 -119 l-140 0 Z" /><glyph glyph-name="uni0410" unicode="&#x410;" d="M344 0 l-23 116 l-148 0 l-23 -116 l-147 0 l168 700 l152 0 l168 -700 l-147 0 ZM201 251 l92 0 l-16 80 q-14 77 -28 192 l-4 0 q-17 -135 -28 -192 l-16 -80 Z" /><glyph glyph-name="uni0411" unicode="&#x411;" d="M271 433 q108 0 163.5 -59 q55.5 -59 55.5 -158 q0 -111 -53.5 -163.5 q-53.5 -52.5 -165.5 -52.5 l-209 0 l0 700 l389 0 l0 -133 l-246 0 l0 -134 l66 0 ZM259 135 q85 0 85 81 q0 84 -85 84 l-54 0 l0 -165 l54 0 Z" /><glyph glyph-name="uni0412" unicode="&#x412;" d="M406 358 q39 -22 61 -62 q22 -40 22 -87 q0 -93 -57.5 -151 q-57.5 -58 -148.5 -58 l-221 0 l0 700 l218 0 q81 0 133 -55 q52 -55 52 -144 q0 -40 -16 -79 q-16 -39 -43 -64 ZM255 566 l-51 0 l0 -146 l56 0 q61 0 61 75 q0 71 -66 71 ZM258 134 q85 0 85 76 q0 77 -82 77 l-57 0 l0 -153 l54 0 Z" /><glyph glyph-name="uni0413" unicode="&#x413;" d="M415 700 l0 -135 l-211 0 l0 -565 l-142 0 l0 700 l353 0 Z" /><glyph glyph-name="uni0414" unicode="&#x414;" d="M523 133 l65 0 l0 -252 l-141 0 l0 119 l-303 0 l0 -119 l-140 0 l0 252 l45 0 q75 81 83 276 l11 291 l380 0 l0 -567 ZM383 133 l0 433 l-107 0 l-8 -199 q-5 -143 -54 -234 l169 0 Z" /><glyph glyph-name="uni0415" unicode="&#x415;" d="M204 135 l229 0 l0 -135 l-371 0 l0 700 l361 0 l0 -135 l-219 0 l0 -145 l199 0 l0 -130 l-199 0 l0 -155 Z" /><glyph glyph-name="uni0416" unicode="&#x416;" d="M602 0 l-121 263 l-33 -53 l0 -210 l-138 0 l0 210 l-33 53 l-121 -263 l-156 0 l202 386 l-183 314 l160 0 l95 -190 l36 -81 l0 271 l138 0 l0 -271 l36 81 l95 190 l160 0 l-183 -314 l202 -386 l-156 0 Z" /><glyph glyph-name="uni0417" unicode="&#x417;" d="M361 366 q115 -34 115 -164 q0 -98 -67 -157 q-67 -59 -168 -59 q-106 0 -168.5 66.5 q-62.5 66.5 -66.5 160.5 l143 0 q1 -35 24 -62.5 q23 -27.5 68 -27.5 q38 0 64 23.5 q26 23.5 26 64.5 q0 87 -98 87 l-48 0 l0 123 l38 0 q47 0 67 20.5 q20 20.5 20 63.5 q0 34 -17.5 54 q-17.5 20 -49.5 20 q-80 0 -84 -93 l-140 0 q6 104 63 166.5 q57 62.5 160 62.5 q96 0 154 -56.5 q58 -56.5 58 -150.5 q0 -53 -21.5 -87 q-21.5 -34 -71.5 -55 Z" /><glyph glyph-name="uni0418" unicode="&#x418;" d="M62 0 l0 700 l138 0 l0 -162 q0 -129 -18 -273 l3 -3 q3 8 21.5 58.5 q18.5 50.5 29.5 75.5 l133 304 l139 0 l0 -700 l-138 0 l0 142 q0 156 16 297 l-3 3 q-57 -154 -64 -171 l-118 -271 l-139 0 Z" /><glyph glyph-name="uni0419" unicode="&#x419;" d="M290 770 q-55 0 -91 33.5 q-36 33.5 -38 90.5 l87 0 q0 -19 12 -30 q12 -11 29 -11 q17 0 29 11 q12 11 12 30 l87 0 q-2 -59 -37.5 -91.5 q-35.5 -32.5 -89.5 -32.5 ZM62 0 l0 700 l138 0 l0 -162 q0 -129 -18 -273 l3 -3 q3 8 21.5 58.5 q18.5 50.5 29.5 75.5 l133 304 l139 0 l0 -700 l-138 0 l0 142 q0 156 16 297 l-3 3 q-57 -154 -64 -171 l-118 -271 l-139 0 Z" /><glyph glyph-name="uni041A" unicode="&#x41a;" d="M368 0 l-127 265 l-39 -63 l0 -202 l-140 0 l0 700 l140 0 l0 -268 l36 78 l98 190 l162 0 l-178 -306 l208 -394 l-160 0 Z" /><glyph glyph-name="uni041B" unicode="&#x41b;" d="M114 700 l393 0 l0 -700 l-142 0 l0 566 l-115 0 q-14 -269 -33 -383 q-19 -118 -69.5 -156.5 q-50.5 -38.5 -147.5 -38.5 l0 128 q34 0 51.5 20.5 q17.5 20.5 29.5 83.5 q14 75 33 480 Z" /><glyph glyph-name="uni041C" unicode="&#x41c;" d="M521 700 l143 0 l0 -700 l-139 0 l0 172 q2 43 5.5 128 q3.5 85 5.5 127 l-5 2 l-63 -184 l-35 -95 l-140 0 l-35 95 l-63 184 l-5 -2 q2 -42 5 -127 q3 -85 5 -128 l0 -172 l-138 0 l0 700 l143 0 l110 -265 q37 -92 46 -122 l4 0 q9 30 46 122 l110 265 Z" /><glyph glyph-name="uni041D" unicode="&#x41d;" d="M349 700 l143 0 l0 -700 l-143 0 l0 285 l-144 0 l0 -285 l-143 0 l0 700 l143 0 l0 -280 l144 0 l0 280 Z" /><glyph glyph-name="uni041E" unicode="&#x41e;" d="M436 51.5 q-60 -63.5 -167 -63.5 q-107 0 -167 63.5 q-60 63.5 -60 175.5 l0 246 q0 112 60 175.5 q60 63.5 167 63.5 q107 0 167 -63.5 q60 -63.5 60 -175.5 l0 -246 q0 -112 -60 -175.5 ZM189 227 q0 -101 80 -101 q80 0 80 101 l0 246 q0 101 -80 101 q-80 0 -80 -101 l0 -246 Z" /><glyph glyph-name="uni041F" unicode="&#x41f;" d="M490 700 l0 -700 l-142 0 l0 565 l-144 0 l0 -565 l-142 0 l0 700 l428 0 Z" /><glyph glyph-name="uni0420" unicode="&#x420;" d="M265 700 q109 0 170 -63 q61 -63 61 -175 q0 -112 -61 -174.5 q-61 -62.5 -170 -62.5 l-61 0 l0 -225 l-142 0 l0 700 l203 0 ZM263 360 q87 0 87 102 q0 103 -87 103 l-59 0 l0 -205 l59 0 Z" /><glyph glyph-name="uni0421" unicode="&#x421;" d="M258 -12 q-103 0 -159.5 58.5 q-56.5 58.5 -56.5 167.5 l0 272 q0 110 57 169 q57 59 160 59 q105 0 162 -58.5 q57 -58.5 61 -169.5 l-142 0 q-3 48 -22 69 q-19 21 -60 21 q-68 0 -68 -90 l0 -272 q0 -88 68 -88 q41 0 61 21 q20 21 23 67 l142 0 q-2 -110 -60.5 -168 q-58.5 -58 -165.5 -58 Z" /><glyph glyph-name="uni0422" unicode="&#x422;" d="M435 700 l0 -135 l-137 0 l0 -565 l-146 0 l0 565 l-137 0 l0 135 l420 0 Z" /><glyph glyph-name="uni0423" unicode="&#x423;" d="M321 700 l149 0 l-163 -529 q-35 -113 -82.5 -148 q-47.5 -35 -147.5 -35 l-26 0 l0 126 l31 0 q38 0 57 14.5 q19 14.5 35 62.5 l-172 509 l149 0 l88 -286 l82 286 Z" /><glyph glyph-name="uni0424" unicode="&#x424;" d="M275 -69 l0 79 l-13 0 q-104 0 -173.5 70.5 q-69.5 70.5 -69.5 191.5 l0 148 q0 124 69.5 196.5 q69.5 72.5 173.5 72.5 l13 0 l0 75 l140 0 l0 -75 l13 0 q104 0 173.5 -72.5 q69.5 -72.5 69.5 -196.5 l0 -148 q0 -121 -69.5 -191.5 q-69.5 -70.5 -173.5 -70.5 l-13 0 l0 -79 l-140 0 ZM255 146 l20 0 l0 407 l-20 0 q-41 0 -68 -32.5 q-27 -32.5 -27 -100.5 l0 -148 q0 -65 27 -95.5 q27 -30.5 68 -30.5 ZM415 146 l20 0 q41 0 68 30.5 q27 30.5 27 95.5 l0 148 q0 68 -27 100.5 q-27 32.5 -68 32.5 l-20 0 l0 -407 Z" /><glyph glyph-name="uni0425" unicode="&#x425;" d="M493 0 l-156 0 l-84 210 l-85 -210 l-156 0 l165 362 l-155 338 l155 0 l76 -190 l75 190 l155 0 l-155 -338 l165 -362 Z" /><glyph glyph-name="uni0426" unicode="&#x426;" d="M414 -119 l0 119 l-352 0 l0 700 l143 0 l0 -565 l141 0 l0 565 l143 0 l0 -565 l65 0 l0 -254 l-140 0 Z" /><glyph glyph-name="uni0427" unicode="&#x427;" d="M324 700 l142 0 l0 -705 l-142 0 l0 244 q-40 -11 -88 -11 q-96 0 -150 62.5 q-54 62.5 -54 174.5 l0 235 l142 0 l0 -242 q0 -50 20.5 -73.5 q20.5 -23.5 64.5 -23.5 q32 0 65 9 l0 330 Z" /><glyph glyph-name="uni0428" unicode="&#x428;" d="M62 0 l0 700 l140 0 l0 -565 l138 0 l0 565 l140 0 l0 -565 l138 0 l0 565 l140 0 l0 -700 l-696 0 Z" /><glyph glyph-name="uni0429" unicode="&#x429;" d="M754 135 l65 0 l0 -254 l-140 0 l0 119 l-617 0 l0 700 l140 0 l0 -565 l136 0 l0 565 l140 0 l0 -565 l136 0 l0 565 l140 0 l0 -565 Z" /><glyph glyph-name="uni042A" unicode="&#x42a;" d="M150 0 l0 571 l-138 0 l0 129 l281 0 l0 -266 l54 0 q111 0 165.5 -59.5 q54.5 -59.5 54.5 -160.5 q0 -111 -52.5 -162.5 q-52.5 -51.5 -167.5 -51.5 l-197 0 ZM293 130 l42 0 q45 0 65.5 20 q20.5 20 20.5 64 q0 44 -21 64.5 q-21 20.5 -65 20.5 l-42 0 l0 -169 Z" /><glyph glyph-name="uni042B" unicode="&#x42b;" d="M62 0 l0 700 l147 0 l0 -266 l41 0 q109 0 163 -59.5 q54 -59.5 54 -160.5 q0 -111 -52 -162.5 q-52 -51.5 -165 -51.5 l-188 0 ZM533 0 l0 700 l142 0 l0 -700 l-142 0 ZM209 130 l29 0 q42 0 61.5 20 q19.5 20 19.5 64 q0 44 -19.5 64.5 q-19.5 20.5 -61.5 20.5 l-29 0 l0 -169 Z" /><glyph glyph-name="uni042C" unicode="&#x42c;" d="M62 0 l0 700 l143 0 l0 -266 l54 0 q112 0 167 -59.5 q55 -59.5 55 -160.5 q0 -111 -53 -162.5 q-53 -51.5 -169 -51.5 l-197 0 ZM205 130 l42 0 q45 0 65.5 20 q20.5 20 20.5 64 q0 44 -21 64.5 q-21 20.5 -65 20.5 l-42 0 l0 -169 Z" /><glyph glyph-name="uni042D" unicode="&#x42d;" d="M245 714 q103 0 160 -59 q57 -59 57 -169 l0 -272 q0 -109 -56.5 -167.5 q-56.5 -58.5 -159.5 -58.5 q-107 0 -165.5 58 q-58.5 58 -60.5 168 l142 0 q3 -46 23 -67 q20 -21 61 -21 q68 0 68 88 l0 83 l-143 0 l0 116 l143 0 l0 73 q0 90 -68 90 q-41 0 -60 -21 q-19 -21 -22 -69 l-142 0 q4 111 61 169.5 q57 58.5 162 58.5 Z" /><glyph glyph-name="uni042E" unicode="&#x42e;" d="M361 649 q59 63 164 63 q105 0 164 -63 q59 -63 59 -176 l0 -246 q0 -113 -59 -176 q-59 -63 -164 -63 q-105 0 -164 63 q-59 63 -59 176 l0 58 l-99 0 l0 -285 l-141 0 l0 700 l141 0 l0 -280 l99 0 l0 53 q0 113 59 176 ZM602 227 l0 246 q0 101 -77 101 q-77 0 -77 -101 l0 -246 q0 -101 77 -101 q77 0 77 101 Z" /><glyph glyph-name="uni042F" unicode="&#x42f;" d="M5 0 l132 258 q-97 58 -97 205 q0 112 58.5 174.5 q58.5 62.5 162.5 62.5 l203 0 l0 -700 l-142 0 l0 227 l-50 0 l-112 -227 l-155 0 ZM263 362 l59 0 l0 203 l-59 0 q-77 0 -77 -102 q0 -101 77 -101 Z" /><glyph glyph-name="uni0430" unicode="&#x430;" d="M230 543 q94 0 138 -51.5 q44 -51.5 44 -154.5 l0 -337 l-108 0 l-8 50 q-34 -64 -115 -64 q-72 0 -115 46.5 q-43 46.5 -43 119.5 q0 83 55.5 126 q55.5 43 147.5 43 l49 0 l0 16 q0 38 -10.5 56.5 q-10.5 18.5 -36.5 18.5 q-46 0 -53 -47 l-137 0 q4 84 54.5 131 q50.5 47 137.5 47 ZM275 167 l0 39 l-46 0 q-67 0 -67 -54 q0 -22 12.5 -36 q12.5 -14 39.5 -14 q28 0 44.5 17.5 q16.5 17.5 16.5 47.5 Z" /><glyph glyph-name="uni0431" unicode="&#x431;" d="M271 480 q78 0 125 -55.5 q47 -55.5 47 -154.5 l0 -72 q0 -101 -52 -156 q-52 -55 -145 -55 q-93 0 -144.5 55 q-51.5 55 -51.5 156 l0 262 q0 86 40.5 137 q40.5 51 128.5 87 q49 20 65.5 30.5 q16.5 10.5 35.5 37.5 l94 -81 q-25 -40 -52.5 -61.5 q-27.5 -21.5 -68.5 -35.5 q-25 -8 -39 -14 q-14 -6 -32.5 -17.5 q-18.5 -11.5 -27.5 -28.5 q-9 -17 -9 -40 l0 -15 q38 21 86 21 ZM304 198 l0 72 q0 78 -57 78 q-59 0 -59 -78 l0 -72 q0 -79 58 -79 q58 0 58 79 Z" /><glyph glyph-name="uni0432" unicode="&#x432;" d="M346 281 q80 -31 80 -126 q0 -73 -49 -114 q-49 -41 -148 -41 l-179 0 l0 531 l179 0 q83 0 126 -40 q43 -40 43 -113 q0 -62 -52 -97 ZM181 423 l0 -101 l38 0 q46 0 46 51 q0 23 -12.5 36.5 q-12.5 13.5 -34.5 13.5 l-37 0 ZM238 110 q53 0 53 52 q0 52 -53 52 l-57 0 l0 -104 l57 0 Z" /><glyph glyph-name="uni0433" unicode="&#x433;" d="M338 531 l0 -130 l-150 0 l0 -401 l-138 0 l0 531 l288 0 Z" /><glyph glyph-name="uni0434" unicode="&#x434;" d="M0 -119 l0 242 l42 0 q35 36 41 130 q10 161 13 277 l343 0 l0 -407 l62 0 l0 -242 l-130 0 l0 119 l-241 0 l0 -119 l-130 0 ZM199 123 l105 0 l0 282 l-79 0 q-2 -109 -8 -186 q-4 -55 -18 -96 Z" /><glyph glyph-name="uni0435" unicode="&#x435;" d="M292 169 l138 0 q-8 -86 -61 -133.5 q-53 -47.5 -141 -47.5 q-89 0 -139.5 55.5 q-50.5 55.5 -50.5 153.5 l0 141 q0 97 50.5 151 q50.5 54 140.5 54 q92 0 143 -54 q51 -54 51 -151 l0 -119 l-248 0 l0 -22 q0 -79 55 -79 q30 0 42.5 11.5 q12.5 11.5 19.5 39.5 ZM230 417 q-55 0 -55 -77 l0 -28 l113 0 l0 28 q0 77 -58 77 Z" /><glyph glyph-name="uni0436" unicode="&#x436;" d="M531 0 l-104 202 l-25 -26 l0 -176 l-130 0 l0 176 l-25 26 l-104 -202 l-149 0 l166 308 l-143 222 l154 0 l57 -111 q19 -35 44 -87 l0 198 l130 0 l0 -198 q25 52 44 87 l57 111 l154 0 l-143 -222 l166 -308 l-149 0 Z" /><glyph glyph-name="uni0437" unicode="&#x437;" d="M343 281 q29 -16 48.5 -47.5 q19.5 -31.5 19.5 -71.5 q0 -83 -52.5 -129.5 q-52.5 -46.5 -145.5 -46.5 q-90 0 -142.5 46 q-52.5 46 -57.5 129 l130 0 q6 -51 70 -51 q66 0 66 59 q0 53 -61 53 l-58 0 l0 96 l57 0 q49 0 49 54 q0 49 -53 49 q-56 0 -61 -58 l-130 0 q5 85 54 132.5 q49 47.5 133 47.5 q88 0 137.5 -42.5 q49.5 -42.5 49.5 -119.5 q0 -64 -53 -100 Z" /><glyph glyph-name="uni0438" unicode="&#x438;" d="M50 0 l0 530 l130 0 l0 -140 q0 -19 -0.5 -77 q-0.5 -58 -0.5 -100 l3 -1 q10 39 76 224 l34 94 l138 0 l0 -530 l-130 0 l0 117 q0 121 5 201 l-3 1 q-4 -20 -32 -107.5 q-28 -87.5 -45 -124.5 l-37 -87 l-138 0 Z" /><glyph glyph-name="uni0439" unicode="&#x439;" d="M242 612 q-55 0 -91 33.5 q-36 33.5 -38 90.5 l87 0 q0 -19 12 -30 q12 -11 29 -11 q17 0 29 11 q12 11 12 30 l87 0 q-2 -59 -37.5 -91.5 q-35.5 -32.5 -89.5 -32.5 ZM50 0 l0 530 l130 0 l0 -140 q0 -19 -0.5 -77 q-0.5 -58 -0.5 -100 l3 -1 q10 39 76 224 l34 94 l138 0 l0 -530 l-130 0 l0 117 q0 121 5 201 l-3 1 q-4 -20 -32 -107.5 q-28 -87.5 -45 -124.5 l-37 -87 l-138 0 Z" /><glyph glyph-name="uni043A" unicode="&#x43a;" d="M314 0 l-104 201 l-25 -26 l0 -175 l-135 0 l0 530 l135 0 l0 -199 l44 88 l56 111 l157 0 l-143 -222 l167 -308 l-152 0 Z" /><glyph glyph-name="uni043B" unicode="&#x43b;" d="M-5 -10 l0 131 q31 0 44 20 q13 20 19 70 q15 116 21 319 l345 0 l0 -530 l-135 0 l0 405 l-80 0 q-3 -123 -17 -219 q-13 -101 -61.5 -148.5 q-48.5 -47.5 -135.5 -47.5 Z" /><glyph glyph-name="uni043C" unicode="&#x43c;" d="M389 530 l135 0 l0 -530 l-125 0 l0 125 q0 61 7 182 l-7 2 l-40 -145 l-12 -41 l-120 0 l-12 41 l-40 145 l-7 -2 q7 -121 7 -182 l0 -125 l-125 0 l0 530 l135 0 l54 -139 q33 -86 46 -138 l4 0 q13 52 46 138 l54 139 Z" /><glyph glyph-name="uni043D" unicode="&#x43d;" d="M278 530 l136 0 l0 -530 l-136 0 l0 205 l-92 0 l0 -205 l-136 0 l0 530 l136 0 l0 -200 l92 0 l0 200 Z" /><glyph glyph-name="uni043E" unicode="&#x43e;" d="M380 42 q-52 -55 -145 -55 q-93 0 -145 55 q-52 55 -52 156 l0 135 q0 101 52 155.5 q52 54.5 145 54.5 q93 0 145 -54.5 q52 -54.5 52 -155.5 l0 -135 q0 -101 -52 -156 ZM177 198 q0 -79 58 -79 q58 0 58 79 l0 135 q0 78 -58 78 q-58 0 -58 -78 l0 -135 Z" /><glyph glyph-name="uni043F" unicode="&#x43f;" d="M414 530 l0 -530 l-136 0 l0 405 l-92 0 l0 -405 l-136 0 l0 530 l364 0 Z" /><glyph glyph-name="uni0440" unicode="&#x440;" d="M263 542 q78 0 125 -57.5 q47 -57.5 47 -151.5 l0 -138 q0 -94 -47.5 -151 q-47.5 -57 -124.5 -57 q-43 0 -80 29 l0 -196 l-133 0 l0 711 l93 0 l6 -47 q51 58 114 58 ZM296 195 l0 138 q0 79 -53 79 q-60 0 -60 -79 l0 -138 q0 -78 60 -78 q53 0 53 78 Z" /><glyph glyph-name="uni0441" unicode="&#x441;" d="M227 -12 q-89 0 -139 52.5 q-50 52.5 -50 146.5 l0 158 q0 93 50 145.5 q50 52.5 139 52.5 q92 0 141 -51.5 q49 -51.5 52 -146.5 l-137 0 q-3 68 -53 68 q-54 0 -54 -68 l0 -158 q0 -69 54 -69 q52 0 57 69 l137 0 q-2 -94 -54 -146.5 q-52 -52.5 -143 -52.5 Z" /><glyph glyph-name="uni0442" unicode="&#x442;" d="M363 530 l0 -129 l-110 0 l0 -401 l-136 0 l0 401 l-110 0 l0 129 l356 0 Z" /><glyph glyph-name="uni0443" unicode="&#x443;" d="M309 530 l139 0 l-159 -546 q-50 -172 -159 -172 l-70 0 l0 131 l40 0 q25 0 37 15 q12 15 23 51 l13 45 l-173 476 l142 0 l87 -281 l80 281 Z" /><glyph glyph-name="uni0444" unicode="&#x444;" d="M397 538 q94 0 145.5 -53.5 q51.5 -53.5 51.5 -151.5 l0 -124 q0 -102 -52 -158 q-52 -56 -145 -56 l-15 0 l0 -175 l-132 0 l0 175 l-15 0 q-93 0 -145 56 q-52 56 -52 158 l0 124 q0 98 51.5 151.5 q51.5 53.5 145.5 53.5 l15 0 l0 187 l132 0 l0 -187 l15 0 ZM235 127 l15 0 l0 279 l-15 0 q-58 0 -58 -73 l0 -124 q0 -82 58 -82 ZM455 209 l0 124 q0 73 -58 73 l-15 0 l0 -279 l15 0 q58 0 58 82 Z" /><glyph glyph-name="uni0445" unicode="&#x445;" d="M443 0 l-153 0 l-72 154 l-72 -154 l-153 0 l140 267 l-125 263 l149 0 l61 -144 l61 144 l149 0 l-122 -263 l137 -267 Z" /><glyph glyph-name="uni0446" unicode="&#x446;" d="M346 -119 l0 119 l-296 0 l0 530 l136 0 l0 -407 l92 0 l0 407 l136 0 l0 -407 l62 0 l0 -242 l-130 0 Z" /><glyph glyph-name="uni0447" unicode="&#x447;" d="M263 530 l127 0 l0 -530 l-127 0 l0 170 q-33 -17 -72 -17 q-166 0 -166 219 l0 158 l127 0 l0 -158 q0 -54 13 -73.5 q13 -19.5 40 -19.5 q37 0 58 15 l0 236 Z" /><glyph glyph-name="uni0448" unicode="&#x448;" d="M493 530 l134 0 l0 -530 l-582 0 l0 530 l134 0 l0 -405 l90 0 l0 405 l134 0 l0 -405 l90 0 l0 405 Z" /><glyph glyph-name="uni0449" unicode="&#x449;" d="M632 123 l62 0 l0 -242 l-130 0 l0 119 l-514 0 l0 530 l134 0 l0 -405 l90 0 l0 405 l134 0 l0 -405 l90 0 l0 405 l134 0 l0 -407 Z" /><glyph glyph-name="uni044A" unicode="&#x44a;" d="M317 359 q79 0 127.5 -49 q48.5 -49 48.5 -129 q0 -82 -48.5 -131.5 q-48.5 -49.5 -127.5 -49.5 l-205 0 l0 404 l-105 0 l0 126 l241 0 l0 -171 l69 0 ZM298 121 q58 0 58 61 q0 56 -58 56 l-50 0 l0 -117 l50 0 Z" /><glyph glyph-name="uni044B" unicode="&#x44b;" d="M255 357 q79 0 127.5 -48.5 q48.5 -48.5 48.5 -128.5 q0 -81 -48.5 -130.5 q-48.5 -49.5 -127.5 -49.5 l-205 0 l0 530 l136 0 l0 -173 l69 0 ZM480 530 l137 0 l0 -530 l-137 0 l0 530 ZM236 121 q58 0 58 60 q0 55 -58 55 l-50 0 l0 -115 l50 0 Z" /><glyph glyph-name="uni044C" unicode="&#x44c;" d="M255 359 q79 0 127.5 -49 q48.5 -49 48.5 -129 q0 -82 -48.5 -131.5 q-48.5 -49.5 -127.5 -49.5 l-205 0 l0 530 l136 0 l0 -171 l69 0 ZM236 121 q58 0 58 61 q0 56 -58 56 l-50 0 l0 -117 l50 0 Z" /><glyph glyph-name="uni044D" unicode="&#x44d;" d="M215 543 q89 0 139 -52.5 q50 -52.5 50 -145.5 l0 -158 q0 -94 -50 -146.5 q-50 -52.5 -139 -52.5 q-91 0 -143 50 q-52 50 -54 139 l137 0 q5 -59 57 -59 q54 0 54 69 l0 38 l-135 0 l0 85 l135 0 l0 35 q0 68 -54 68 q-50 0 -53 -58 l-137 0 q3 90 52 139 q49 49 141 49 Z" /><glyph glyph-name="uni044E" unicode="&#x44e;" d="M288 488.5 q50 54.5 141 54.5 q91 0 141.5 -54.5 q50.5 -54.5 50.5 -155.5 l0 -134 q0 -101 -50.5 -156 q-50.5 -55 -141.5 -55 q-90 0 -140.5 55 q-50.5 55 -50.5 156 l0 6 l-58 0 l0 -205 l-130 0 l0 530 l130 0 l0 -200 l58 0 l0 3 q0 101 50 155.5 ZM485 199 l0 134 q0 78 -56 78 q-56 0 -56 -78 l0 -134 q0 -79 56 -79 q56 0 56 79 Z" /><glyph glyph-name="uni044F" unicode="&#x44f;" d="M211 530 l179 0 l0 -530 l-130 0 l0 164 l-33 0 l-70 -164 l-152 0 l99 191 q-82 50 -82 161 q0 84 52 131 q52 47 137 47 ZM260 276 l0 133 l-41 0 q-65 0 -65 -63 q0 -70 66 -70 l40 0 Z" /><glyph glyph-name="uni0451" unicode="&#x451;" d="M186.5 630.5 q-16.5 -16.5 -44.5 -16.5 q-28 0 -44.5 16.5 q-16.5 16.5 -16.5 44.5 q0 28 16.5 44.5 q16.5 16.5 44.5 16.5 q28 0 44.5 -16.5 q16.5 -16.5 16.5 -44.5 q0 -28 -16.5 -44.5 ZM348.5 630.5 q-16.5 -16.5 -44.5 -16.5 q-28 0 -44.5 16.5 q-16.5 16.5 -16.5 44.5 q0 28 16.5 44.5 q16.5 16.5 44.5 16.5 q28 0 44.5 -16.5 q16.5 -16.5 16.5 -44.5 q0 -28 -16.5 -44.5 ZM292 169 l138 0 q-8 -86 -61 -133.5 q-53 -47.5 -141 -47.5 q-89 0 -139.5 55.5 q-50.5 55.5 -50.5 153.5 l0 141 q0 97 50.5 151 q50.5 54 140.5 54 q92 0 143 -54 q51 -54 51 -151 l0 -119 l-248 0 l0 -22 q0 -79 55 -79 q30 0 42.5 11.5 q12.5 11.5 19.5 39.5 ZM230 417 q-55 0 -55 -77 l0 -28 l113 0 l0 28 q0 77 -58 77 Z" /><glyph glyph-name="uni0452" unicode="&#x452;" d="M278 543 q71 0 110.5 -55.5 q39.5 -55.5 39.5 -162.5 l0 -306 q0 -102 -55.5 -157.5 q-55.5 -55.5 -158.5 -55.5 l0 130 q77 0 77 74 l0 315 q0 88 -51 88 q-57 0 -57 -78 l0 -335 l-136 0 l0 602 l-63 0 l0 66 l63 0 l0 57 l136 0 l0 -57 l91 0 l0 -66 l-91 0 l0 -109 q39 50 95 50 Z" /><glyph glyph-name="uni0453" unicode="&#x453;" d="M312 746 l-93 -137 l-94 0 l74 137 l113 0 ZM338 531 l0 -130 l-150 0 l0 -401 l-138 0 l0 531 l288 0 Z" /><glyph glyph-name="uni0454" unicode="&#x454;" d="M287 177 l137 0 q-2 -89 -54 -139 q-52 -50 -143 -50 q-89 0 -139 52.5 q-50 52.5 -50 146.5 l0 158 q0 93 50 145.5 q50 52.5 139 52.5 q92 0 141 -49 q49 -49 52 -139 l-137 0 q-3 58 -53 58 q-54 0 -54 -68 l0 -35 l135 0 l0 -85 l-135 0 l0 -38 q0 -69 54 -69 q52 0 57 59 Z" /><glyph glyph-name="uni0455" unicode="&#x455;" d="M224 -15 q-97 0 -150.5 53.5 q-53.5 53.5 -55.5 130.5 l136 0 q5 -60 65 -60 q27 0 42 11.5 q15 11.5 15 30.5 q0 22 -25.5 38.5 q-25.5 16.5 -62 30 q-36.5 13.5 -73.5 31.5 q-37 18 -62.5 53 q-25.5 35 -25.5 85 q0 72 49 113 q49 41 134 41 q90 0 135.5 -47.5 q45.5 -47.5 51.5 -128.5 l-131 0 q-5 56 -56 56 q-22 0 -35 -9.5 q-13 -9.5 -13 -24.5 q0 -20 26 -34 q26 -14 62.5 -26.5 q36.5 -12.5 73 -30.5 q36.5 -18 62.5 -55.5 q26 -37.5 26 -90.5 q0 -76 -50 -121.5 q-50 -45.5 -138 -45.5 Z" /><glyph glyph-name="uni0456" unicode="&#x456;" d="M119 608 q-33 0 -54 21.5 q-21 21.5 -21 53.5 q0 32 21 53.5 q21 21.5 54 21.5 q32 0 53.5 -21.5 q21.5 -21.5 21.5 -53.5 q0 -30 -22 -52.5 q-22 -22.5 -53 -22.5 ZM50 0 l0 530 l137 0 l0 -530 l-137 0 Z" /><glyph glyph-name="uni0457" unicode="&#x457;" d="M58 616 q-26 0 -42 16 q-16 16 -16 43 q0 27 16 43 q16 16 42 16 q27 0 43 -16 q16 -16 16 -43 q0 -27 -16 -43 q-16 -16 -43 -16 ZM208 616 q-27 0 -43 16 q-16 16 -16 43 q0 27 16 43 q16 16 43 16 q26 0 42 -16 q16 -16 16 -43 q0 -27 -16 -43 q-16 -16 -42 -16 ZM64 0 l0 530 l137 0 l0 -530 l-137 0 Z" /><glyph glyph-name="uni0458" unicode="&#x458;" d="M135 607 q-33 0 -54 21.5 q-21 21.5 -21 53.5 q0 32 21 53.5 q21 21.5 54 21.5 q32 0 53.5 -21.5 q21.5 -21.5 21.5 -53.5 q0 -30 -22 -52.5 q-22 -22.5 -53 -22.5 ZM-9 -194 l0 130 q77 0 77 74 l0 520 l136 0 l0 -511 q0 -102 -55 -157.5 q-55 -55.5 -158 -55.5 Z" /><glyph glyph-name="uni0459" unicode="&#x459;" d="M-5 -10 l0 131 q31 0 44 20 q13 20 19 70 q15 116 21 319 l344 0 l0 -173 l69 0 q79 0 127.5 -48.5 q48.5 -48.5 48.5 -128.5 q0 -81 -48.5 -130.5 q-48.5 -49.5 -127.5 -49.5 l-203 0 l0 405 l-80 0 q-2 -111 -17 -219 q-13 -101 -61.5 -148.5 q-48.5 -47.5 -135.5 -47.5 ZM423 121 l50 0 q58 0 58 60 q0 55 -58 55 l-50 0 l0 -115 Z" /><glyph glyph-name="uni045A" unicode="&#x45a;" d="M483 344 q79 0 127.5 -46.5 q48.5 -46.5 48.5 -123.5 q0 -78 -48.5 -126 q-48.5 -48 -127.5 -48 l-205 0 l0 219 l-92 0 l0 -219 l-136 0 l0 530 l136 0 l0 -186 l92 0 l0 186 l136 0 l0 -186 l69 0 ZM464 121 q58 0 58 54 q0 48 -58 48 l-50 0 l0 -102 l50 0 Z" /><glyph glyph-name="uni045B" unicode="&#x45b;" d="M280 543 q71 0 110.5 -55.5 q39.5 -55.5 39.5 -162.5 l0 -325 l-137 0 l0 325 q0 88 -51 88 q-57 0 -57 -78 l0 -335 l-136 0 l0 599 l-63 0 l0 66 l63 0 l0 60 l136 0 l0 -60 l91 0 l0 -66 l-91 0 l0 -106 q39 50 95 50 Z" /><glyph glyph-name="uni045C" unicode="&#x45c;" d="M358 746 l-93 -137 l-94 0 l74 137 l113 0 ZM314 0 l-104 201 l-25 -26 l0 -175 l-135 0 l0 530 l135 0 l0 -199 l44 88 l56 111 l157 0 l-143 -222 l167 -308 l-152 0 Z" /><glyph glyph-name="uni045D" unicode="&#x45d;" d="M135 746 l113 0 l74 -137 l-94 0 l-93 137 ZM50 0 l0 530 l130 0 l0 -140 q0 -19 -0.5 -77 q-0.5 -58 -0.5 -100 l3 -1 q10 39 76 224 l34 94 l138 0 l0 -530 l-130 0 l0 117 q0 121 5 201 l-3 1 q-4 -20 -32 -107.5 q-28 -87.5 -45 -124.5 l-37 -87 l-138 0 Z" /><glyph glyph-name="uni045E" unicode="&#x45e;" d="M227 615 q-55 0 -91 33.5 q-36 33.5 -38 90.5 l87 0 q0 -19 12 -30 q12 -11 29 -11 q17 0 29 11 q12 11 12 30 l87 0 q-2 -59 -37.5 -91.5 q-35.5 -32.5 -89.5 -32.5 ZM309 530 l139 0 l-159 -546 q-50 -172 -159 -172 l-70 0 l0 131 l40 0 q25 0 37 15 q12 15 23 51 l13 45 l-173 476 l142 0 l87 -281 l80 281 Z" /><glyph glyph-name="uni045F" unicode="&#x45f;" d="M414 530 l0 -530 l-119 0 l0 -119 l-125 0 l0 119 l-120 0 l0 530 l136 0 l0 -405 l92 0 l0 405 l136 0 Z" /><glyph glyph-name="uni0490" unicode="&#x490;" d="M299 830 l116 0 l0 -265 l-211 0 l0 -565 l-142 0 l0 700 l237 0 l0 130 Z" /><glyph glyph-name="uni0491" unicode="&#x491;" d="M232 629 l107 0 l0 -229 l-151 0 l0 -400 l-138 0 l0 530 l182 0 l0 99 Z" /><glyph glyph-name="Wgrave" unicode="&#x1e80;" d="M496 767 l-94 0 l-113 137 l113 0 l94 -137 ZM642 700 l147 0 l-158 -700 l-150 0 l-50 234 q-25 110 -33 229 l-4 0 q-8 -119 -33 -229 l-50 -234 l-150 0 l-158 700 l147 0 l55 -331 q24 -151 29 -195 l4 0 q5 44 29 195 l55 321 l148 0 l55 -321 q24 -151 29 -195 l4 0 q5 44 29 195 l55 331 Z" /><glyph glyph-name="wgrave" unicode="&#x1e81;" d="M414 609 l-94 0 l-93 137 l113 0 l74 -137 ZM525 530 l141 0 l-121 -530 l-147 0 l-26 118 q-28 129 -36 239 l-6 0 q-8 -110 -36 -239 l-26 -118 l-147 0 l-121 530 l141 0 l28 -185 q24 -167 26 -198 l6 0 q6 48 28 185 l32 188 l144 0 l32 -188 q22 -137 28 -185 l6 0 q2 31 26 198 l28 185 Z" /><glyph glyph-name="Wacute" unicode="&#x1e82;" d="M337 767 l94 137 l113 0 l-113 -137 l-94 0 ZM642 700 l147 0 l-158 -700 l-150 0 l-50 234 q-25 110 -33 229 l-4 0 q-8 -119 -33 -229 l-50 -234 l-150 0 l-158 700 l147 0 l55 -331 q24 -151 29 -195 l4 0 q5 44 29 195 l55 321 l148 0 l55 -321 q24 -151 29 -195 l4 0 q5 44 29 195 l55 331 Z" /><glyph glyph-name="wacute" unicode="&#x1e83;" d="M451 746 l-93 -137 l-94 0 l74 137 l113 0 ZM525 530 l141 0 l-121 -530 l-147 0 l-26 118 q-28 129 -36 239 l-6 0 q-8 -110 -36 -239 l-26 -118 l-147 0 l-121 530 l141 0 l28 -185 q24 -167 26 -198 l6 0 q6 48 28 185 l32 188 l144 0 l32 -188 q22 -137 28 -185 l6 0 q2 31 26 198 l28 185 Z" /><glyph glyph-name="Wdieresis" unicode="&#x1e84;" d="M369.5 791.5 q-16.5 -16.5 -44.5 -16.5 q-28 0 -44.5 16.5 q-16.5 16.5 -16.5 44.5 q0 28 16.5 44.5 q16.5 16.5 44.5 16.5 q28 0 44.5 -16.5 q16.5 -16.5 16.5 -44.5 q0 -28 -16.5 -44.5 ZM531.5 791.5 q-16.5 -16.5 -44.5 -16.5 q-28 0 -44.5 16.5 q-16.5 16.5 -16.5 44.5 q0 28 16.5 44.5 q16.5 16.5 44.5 16.5 q28 0 44.5 -16.5 q16.5 -16.5 16.5 -44.5 q0 -28 -16.5 -44.5 ZM642 700 l147 0 l-158 -700 l-150 0 l-50 234 q-25 110 -33 229 l-4 0 q-8 -119 -33 -229 l-50 -234 l-150 0 l-158 700 l147 0 l55 -331 q24 -151 29 -195 l4 0 q5 44 29 195 l55 321 l148 0 l55 -321 q24 -151 29 -195 l4 0 q5 44 29 195 l55 331 Z" /><glyph glyph-name="wdieresis" unicode="&#x1e85;" d="M293.5 630.5 q-16.5 -16.5 -44.5 -16.5 q-28 0 -44.5 16.5 q-16.5 16.5 -16.5 44.5 q0 28 16.5 44.5 q16.5 16.5 44.5 16.5 q28 0 44.5 -16.5 q16.5 -16.5 16.5 -44.5 q0 -28 -16.5 -44.5 ZM455.5 630.5 q-16.5 -16.5 -44.5 -16.5 q-28 0 -44.5 16.5 q-16.5 16.5 -16.5 44.5 q0 28 16.5 44.5 q16.5 16.5 44.5 16.5 q28 0 44.5 -16.5 q16.5 -16.5 16.5 -44.5 q0 -28 -16.5 -44.5 ZM525 530 l141 0 l-121 -530 l-147 0 l-26 118 q-28 129 -36 239 l-6 0 q-8 -110 -36 -239 l-26 -118 l-147 0 l-121 530 l141 0 l28 -185 q24 -167 26 -198 l6 0 q6 48 28 185 l32 188 l144 0 l32 -188 q22 -137 28 -185 l6 0 q2 31 26 198 l28 185 Z" /><glyph glyph-name="Ygrave" unicode="&#x1ef2;" d="M326 767 l-94 0 l-113 137 l113 0 l94 -137 ZM165 0 l0 208 l-165 492 l147 0 l57 -194 q21 -70 30 -112 l4 0 q11 47 32 115 l55 191 l147 0 l-165 -492 l0 -208 l-142 0 Z" /><glyph glyph-name="ygrave" unicode="&#x1ef3;" d="M307 612 l-94 0 l-93 137 l113 0 l74 -137 ZM309 530 l139 0 l-159 -546 q-50 -172 -159 -172 l-70 0 l0 131 l40 0 q25 0 37 15 q12 15 23 51 l13 45 l-173 476 l142 0 l87 -281 l80 281 Z" /><glyph glyph-name="endash" unicode="&#x2013;" d="M30 199 l0 116 l350 0 l0 -116 l-350 0 Z" /><glyph glyph-name="emdash" unicode="&#x2014;" d="M30 315 l490 0 l0 -116 l-490 0 l0 116 Z" /><glyph glyph-name="quoteleft" unicode="&#x2018;" d="M138 437 l-127 0 l68 263 l79 0 l-20 -263 Z" /><glyph glyph-name="quoteright" unicode="&#x2019;" d="M43 700 l127 0 l-68 -263 l-79 0 l20 263 Z" /><glyph glyph-name="quotesinglbase" unicode="&#x201a;" d="M42 120 l127 0 l-68 -263 l-79 0 l20 263 Z" /><glyph glyph-name="quotedblleft" unicode="&#x201c;" d="M138 437 l-127 0 l68 263 l79 0 l-20 -263 ZM298 437 l-127 0 l68 263 l79 0 l-20 -263 Z" /><glyph glyph-name="quotedblright" unicode="&#x201d;" d="M43 700 l127 0 l-68 -263 l-79 0 l20 263 ZM203 700 l127 0 l-68 -263 l-79 0 l20 263 Z" /><glyph glyph-name="quotedblbase" unicode="&#x201e;" d="M42 120 l127 0 l-68 -263 l-79 0 l20 263 Z" /><glyph glyph-name="dagger" unicode="&#x2020;" d="M355 520 l0 -120 l-107 0 l0 -500 l-126 0 l0 500 l-107 0 l0 120 l107 0 l0 180 l126 0 l0 -180 l107 0 Z" /><glyph glyph-name="daggerdbl" unicode="&#x2021;" d="M357 400 l-107 0 l0 -155 l107 0 l0 -120 l-107 0 l0 -225 l-126 0 l0 225 l-107 0 l0 120 l107 0 l0 155 l-107 0 l0 120 l107 0 l0 180 l126 0 l0 -180 l107 0 l0 -120 Z" /><glyph glyph-name="bullet" unicode="&#x2022;" d="M119 151 q-45 0 -72.5 27.5 q-27.5 27.5 -27.5 72.5 q0 44 27.5 71.5 q27.5 27.5 72.5 27.5 q44 0 71.5 -27.5 q27.5 -27.5 27.5 -71.5 q0 -45 -27.5 -72.5 q-27.5 -27.5 -71.5 -27.5 Z" /><glyph glyph-name="ellipsis" unicode="&#x2026;" d="M157.5 10.5 q-20.5 -20.5 -54.5 -20.5 q-34 0 -54.5 20.5 q-20.5 20.5 -20.5 54.5 q0 34 20.5 54.5 q20.5 20.5 54.5 20.5 q34 0 54.5 -20.5 q20.5 -20.5 20.5 -54.5 q0 -34 -20.5 -54.5 ZM347.5 10.5 q-20.5 -20.5 -54.5 -20.5 q-34 0 -54.5 20.5 q-20.5 20.5 -20.5 54.5 q0 34 20.5 54.5 q20.5 20.5 54.5 20.5 q34 0 54.5 -20.5 q20.5 -20.5 20.5 -54.5 q0 -34 -20.5 -54.5 ZM537.5 10.5 q-20.5 -20.5 -54.5 -20.5 q-34 0 -54.5 20.5 q-20.5 20.5 -20.5 54.5 q0 34 20.5 54.5 q20.5 20.5 54.5 20.5 q34 0 54.5 -20.5 q20.5 -20.5 20.5 -54.5 q0 -34 -20.5 -54.5 Z" /><glyph glyph-name="perthousand" unicode="&#x2030;" d="M209.5 414.5 q-28.5 -28.5 -78.5 -28.5 q-50 0 -79 28.5 q-29 28.5 -29 81.5 l0 105 q0 53 29 82 q29 29 79 29 q50 0 78.5 -29 q28.5 -29 28.5 -82 l0 -105 q0 -53 -28.5 -81.5 ZM14 0 l482 700 l90 0 l-482 -700 l-90 0 ZM131 457 q15 0 21 8 q6 8 6 29 l0 109 q0 21 -6 29.5 q-6 8.5 -21 8.5 q-28 0 -28 -38 l0 -109 q0 -37 28 -37 ZM530.5 19.5 q-28.5 -28.5 -78.5 -28.5 q-50 0 -79 28.5 q-29 28.5 -29 81.5 l0 105 q0 53 29 82 q29 29 79 29 q50 0 78.5 -29 q28.5 -29 28.5 -82 l0 -105 q0 -53 -28.5 -81.5 ZM790.5 19.5 q-28.5 -28.5 -78.5 -28.5 q-50 0 -79 28.5 q-29 28.5 -29 81.5 l0 105 q0 53 29 82 q29 29 79 29 q50 0 78.5 -29 q28.5 -29 28.5 -82 l0 -105 q0 -53 -28.5 -81.5 ZM452 62 q15 0 21 8 q6 8 6 29 l0 109 q0 21 -6 29.5 q-6 8.5 -21 8.5 q-28 0 -28 -38 l0 -109 q0 -37 28 -37 ZM712 62 q15 0 21 8 q6 8 6 29 l0 109 q0 21 -6 29.5 q-6 8.5 -21 8.5 q-28 0 -28 -38 l0 -109 q0 -37 28 -37 Z" /><glyph glyph-name="guilsinglleft" unicode="&#x2039;" d="M141 85 l-111 150 l0 44 l111 150 l133 0 l-125 -172 l125 -172 l-133 0 Z" /><glyph glyph-name="guilsinglright" unicode="&#x203a;" d="M163 85 l-133 0 l125 172 l-125 172 l133 0 l111 -150 l0 -44 l-111 -150 Z" /><glyph glyph-name="fraction" unicode="&#x2044;" d="M8 0 l459 700 l100 0 l-460 -700 l-99 0 Z" /><glyph glyph-name="Euro" unicode="&#x20ac;" d="M406 214 l142 0 q-2 -110 -60.5 -168 q-58.5 -58 -165.5 -58 q-103 0 -159.5 58.5 q-56.5 58.5 -56.5 167.5 l0 43 l-78 0 l0 75 l78 0 l0 45 l-78 0 l0 75 l78 0 l0 34 q0 110 57 169 q57 59 160 59 q105 0 162 -58.5 q57 -58.5 61 -169.5 l-142 0 q-3 48 -22 69 q-19 21 -60 21 q-68 0 -68 -90 l0 -34 l113 0 l0 -75 l-113 0 l0 -45 l113 0 l0 -75 l-113 0 l0 -43 q0 -88 68 -88 q41 0 61 21 q20 21 23 67 Z" /><glyph glyph-name="trademark" unicode="&#x2122;" d="M16 640 l0 60 l170 0 l0 -60 l-52 0 l0 -213 l-64 0 l0 213 l-54 0 ZM384 700 l69 0 l0 -273 l-62 0 l0 37 q0 55 6 130 l-4 1 q-11 -34 -21 -70 l-9 -33 l-58 0 l-9 33 q-10 36 -21 70 l-4 -1 q6 -75 6 -130 l0 -37 l-62 0 l0 273 l69 0 l15 -37 q27 -69 35 -113 q7 38 35 113 l15 37 Z" /><glyph glyph-name="partialdiff" unicode="&#x2202;" d="M193 740 q236 -72 239 -383 l0 -158 q0 -101 -52 -156 q-52 -55 -145 -55 q-93 0 -145 55 q-52 55 -52 156 l0 94 q0 101 49 155.5 q49 54.5 138 54.5 q27 0 54 -11 q-38 106 -136 143 l50 105 ZM293 199 l0 94 q0 78 -58 78 q-58 0 -58 -78 l0 -94 q0 -79 58 -79 q58 0 58 79 Z" /><glyph glyph-name="emptyset" unicode="&#x2205;" d="M652 608 q92 -98 92 -258 q0 -163 -97 -262.5 q-97 -99.5 -256 -99.5 q-89 0 -159 32 l-39 -54 l-152 0 l90 126 q-93 99 -93 258 q0 163 97 262.5 q97 99.5 256 99.5 q90 0 160 -32 l39 54 l152 0 l-90 -126 ZM158 350 q0 -93 46 -157 l277 388 q-39 16 -90 16 q-105 0 -169 -68 q-64 -68 -64 -179 ZM391 103 q105 0 169 68 q64 68 64 179 q0 92 -45 156 l-277 -388 q40 -15 89 -15 Z" /><glyph glyph-name="product" unicode="&#x220f;" d="M62 -100 l0 800 l398 0 l0 -800 l-140 0 l0 665 l-118 0 l0 -665 l-140 0 Z" /><glyph glyph-name="summation" unicode="&#x2211;" d="M30 -5 l0 111 l144 244 l-144 244 l0 111 l327 0 l0 -126 l-172 0 l103 -187 l0 -84 l-103 -187 l172 0 l0 -126 l-327 0 Z" /><glyph glyph-name="minus" unicode="&#x2212;" d="M40 248 l0 125 l400 0 l0 -125 l-400 0 Z" /><glyph glyph-name="radical" unicode="&#x221a;" d="M510 789 l-153 -789 l-180 0 l-85 380 l-85 0 l0 120 l194 0 l65 -383 l111 672 l133 0 Z" /><glyph glyph-name="infinity" unicode="&#x221e;" d="M436 418 q63 0 105.5 -46 q42.5 -46 42.5 -120 q0 -73 -41 -118.5 q-41 -45.5 -104 -45.5 q-77 0 -128 67 q-51 -67 -128 -67 q-63 0 -104 45.5 q-41 45.5 -41 118.5 q0 74 42.5 120 q42.5 46 105.5 46 q73 0 125 -59 q52 59 125 59 ZM196 206 q29 0 47 47 q-18 47 -47 47 q-17 0 -27.5 -12.5 q-10.5 -12.5 -10.5 -34.5 q0 -22 10.5 -34.5 q10.5 -12.5 27.5 -12.5 ZM426 206 q17 0 27.5 12.5 q10.5 12.5 10.5 34.5 q0 22 -10.5 34.5 q-10.5 12.5 -27.5 12.5 q-29 0 -47 -47 q18 -47 47 -47 Z" /><glyph glyph-name="integral" unicode="&#x222b;" d="M32 -191 l0 130 q74 0 74 64 l0 495 q0 102 54.5 157.5 q54.5 55.5 157.5 55.5 l0 -130 q-74 0 -74 -64 l0 -495 q0 -102 -54.5 -157.5 q-54.5 -55.5 -157.5 -55.5 Z" /><glyph glyph-name="approxequal" unicode="&#x2248;" d="M384 460 l65 -92 q-43 -51 -109 -51 q-38 0 -99 17.5 q-61 17.5 -89 17.5 q-32 0 -56 -26 l-65 92 q43 51 109 51 q38 0 99 -17.5 q61 -17.5 89 -17.5 q32 0 56 26 ZM384 276 l65 -92 q-43 -51 -109 -51 q-38 0 -99 17.5 q-61 17.5 -89 17.5 q-32 0 -56 -26 l-65 92 q43 51 109 51 q38 0 99 -17.5 q61 -17.5 89 -17.5 q32 0 56 26 Z" /><glyph glyph-name="notequal" unicode="&#x2260;" d="M440 332 l-129 0 l-27 -65 l156 0 l0 -125 l-208 0 l-26 -63 l-115 0 l26 63 l-77 0 l0 125 l129 0 l27 65 l-156 0 l0 125 l208 0 l26 64 l115 0 l-26 -64 l77 0 l0 -125 Z" /><glyph glyph-name="lessequal" unicode="&#x2264;" d="M410 596 l0 -126 l-228 -74 l228 -75 l0 -126 l-370 136 l0 129 l370 136 ZM40 54 l0 117 l370 0 l0 -117 l-370 0 Z" /><glyph glyph-name="greaterequal" unicode="&#x2265;" d="M40 596 l370 -136 l0 -129 l-370 -136 l0 126 l228 75 l-228 74 l0 126 ZM40 54 l0 117 l370 0 l0 -117 l-370 0 Z" /><glyph glyph-name="lozenge" unicode="&#x25ca;" d="M167 0 l-129 335 l0 32 l129 333 l147 0 l128 -333 l0 -32 l-128 -335 l-147 0 ZM240 142 l71 209 l-71 207 l-71 -207 l71 -209 Z" /></font>
</defs>
</svg>
